<?xml version="1.0" encoding="utf-8"?>
<!-- Generator: Adobe Illustrator 23.0.0, SVG Export Plug-In . SVG Version: 6.00 Build 0)  -->
<svg version="1.1" id="Ebene_1" xmlns="http://www.w3.org/2000/svg" xmlns:xlink="http://www.w3.org/1999/xlink" x="0px" y="0px"
	 viewBox="0 0 32 32" style="enable-background:new 0 0 32 32;" xml:space="preserve">
<path d="M16,0C7.2,0,0,7.2,0,16s7.2,16,16,16s16-7.1,16-16S24.9,0,16,0z M16,28.9C8.9,28.9,3.1,23.1,3.1,16S8.9,3.1,16,3.1
	S28.9,8.9,28.9,16S23.1,28.9,16,28.9z M20,22.1l-5.5-4c-0.2-0.1-0.3-0.4-0.3-0.6V6.9c0-0.4,0.4-0.8,0.8-0.8H17
	c0.5,0,0.8,0.3,0.8,0.8v9.1l4.3,3.1c0.4,0.3,0.4,0.8,0.1,1.1L21,22C20.8,22.4,20.4,22.4,20,22.1L20,22.1z"/>
</svg>
