<?xml version="1.0" encoding="utf-8"?>
<!-- Generator: Adobe Illustrator 23.0.0, SVG Export Plug-In . SVG Version: 6.00 Build 0)  -->
<svg version="1.1" id="Ebene_1" xmlns="http://www.w3.org/2000/svg" xmlns:xlink="http://www.w3.org/1999/xlink" x="0px" y="0px"
	 viewBox="0 0 52 52" style="enable-background:new 0 0 52 52;" xml:space="preserve">
<style type="text/css">
	.st0{fill:#FFFFFF;}
</style>
<path class="st0" d="M26,0C11.7,0,0,11.7,0,26s11.7,26,26,26s26-11.7,26-26S40.3,0,26,0z M47,26c0,2.3-0.4,4.6-1.1,6.7h-2.1
	c-0.4,0-0.8-0.2-1.2-0.5l-3.4-3.4c-0.5-0.5-0.5-1.3,0-1.8l1.3-1.3v-0.9c0-0.3-0.2-0.6-0.3-0.8l-1-1c-0.3-0.3-0.5-0.3-0.8-0.3h-1.7
	c-0.7,0-1.2-0.5-1.2-1.2c0-0.3,0.2-0.6,0.3-0.8l1-1c0.3-0.3,0.5-0.3,0.8-0.3h3.4c0.7,0,1.2-0.5,1.2-1.2v-1c0-0.7-0.5-1.2-1.2-1.2
	h-3.9c-0.9,0-1.7,0.8-1.7,1.7V18c0,0.8-0.4,1.3-1.2,1.6L31,20.7c-0.3,0.1-0.6,0.4-0.6,0.8v0.3c0,0.4-0.4,0.8-0.8,0.8h-1.7
	c-0.4,0-0.8-0.4-0.8-0.8S26.7,21,26.3,21h-0.3c-0.3,0-0.6,0.2-0.8,0.4l-1,1.9c-0.3,0.6-0.8,0.9-1.5,0.9h-2.3c-0.9,0-1.7-0.8-1.7-1.7
	v-2.7c0-0.4,0.2-0.8,0.5-1.2l2.1-2.1c0.5-0.5,0.8-1.2,0.8-1.8c0-0.3,0.3-0.7,0.6-0.8l4.2-1.4c0.2-0.1,0.3-0.2,0.4-0.3l2.8-2.9
	c0.3-0.3,0.3-0.5,0.3-0.8c0-0.7-0.5-1.2-1.2-1.2h-2.2l-1.7,1.7v0.8c0,0.5-0.4,0.8-0.8,0.8h-1.7c-0.4,0-0.8-0.3-0.8-0.8V7.8
	c0-0.3,0.1-0.5,0.3-0.7L25.4,5c0.2,0,0.4,0,0.6,0C37.6,5,47,14.4,47,26z M13.7,14.8c0-0.3,0.1-0.6,0.3-0.8l2.7-2.7
	c0.3-0.3,0.5-0.3,0.8-0.3c0.7,0,1.2,0.5,1.2,1.2v1.7c0,0.3-0.1,0.6-0.3,0.8l-1,1c-0.3,0.3-0.5,0.3-0.8,0.3h-1.7
	C14.2,16,13.7,15.4,13.7,14.8z M27.1,46.9v-0.8c0-0.9-0.8-1.7-1.7-1.7h-2.1c-1.2,0-2.8-0.6-3.7-1.3l-2.3-1.8
	c-1.2-0.9-1.9-2.3-1.9-3.8v-2.5c0-1.7,0.8-3.2,2.3-4.1l4.5-2.7c0.8-0.4,1.6-0.7,2.4-0.7h3.3c1.2,0,2.3,0.4,3.1,1.2l4.5,3.9h1.9
	c0.9,0,1.8,0.3,2.3,1l1.8,1.8c0.3,0.3,0.8,0.6,1.3,0.6h1.4C40.9,42.3,34.6,46.5,27.1,46.9L27.1,46.9z"/>
</svg>
