<svg id="Ebene_1" data-name="Ebene 1" xmlns="http://www.w3.org/2000/svg" width="183" height="84" viewBox="0 0 183 84"><defs><style>.cls-1{fill:#68b76b;}.cls-2{fill:#b1cc3d;stroke:#1d8a37;stroke-miterlimit:10;stroke-width:2px;}.cls-3{fill:#307e33;}.cls-4,.cls-5{fill:#68b86b;}.cls-5{fill-rule:evenodd;}</style></defs><title>logo_bruckmann</title><g id="BottomText"><path class="cls-1" d="M155.3057,80.2641a3.6909,3.6909,0,0,1-.6045-.0429c-.168-.0283-.291-.0537-.3692-.0752a.2485.2485,0,0,0-.1338-.0049.7754.7754,0,0,0-.123.0371c-.0645.0352-.1221-.0254-.1719-.1816a1.3336,1.3336,0,0,1-.0429-.3594,4.1575,4.1575,0,0,1,.0214-.4229c.0069-.0927.0147-.2119.0215-.3584s.0166-.2949.0264-.4443.0215-.2871.0322-.4121.0166-.2129.0166-.2627a.2476.2476,0,0,0-.0752-.1816c-.0576-.0577-.0713-.1075-.0429-.15.0576-.086.1005-.1553.1289-.209a.491.491,0,0,0,.0537-.1553c.0068-.05.0136-.1455.0215-.2891s.0107-.3457.0107-.61a4.9531,4.9531,0,0,0-.0381-.6152.7834.7834,0,0,0-.1445-.4229.1913.1913,0,0,1-.0371-.0644c-.0039-.0147.0088-.0362.0371-.0645a1.0876,1.0876,0,0,1,.1338-.1074c.0605-.042.123-.085.1875-.128s.125-.08.1816-.1123a.3105.3105,0,0,1,.1289-.0488.1036.1036,0,0,1,.0645.0274c.0215.0175.039.0341.0537.0478q.0425.0645.1494,0a.398.398,0,0,1,.2031-.0322c.0713,0,.2237.0088.4551.0273a7.5529,7.5529,0,0,0,.7559.0157c.164,0,.3222-.004.4755-.0108s.2588-.0107.3164-.0107c.0928,0,.0928.0468,0,.14a.7.7,0,0,1-.2841.1817,2.6823,2.6823,0,0,1-.3848.1074,2.9564,2.9564,0,0,1-.4336.0537c-.15.0068-.2969.0107-.4394.0107h-.3106c-.0791,0-.1572-.0039-.2353-.0107-.0362-.0078-.0577,0-.0645.0215a.3214.3214,0,0,0,0,.1172c.0068.0644.0107.1728.0107.3271s-.0019.3154-.0058.4863-.0108.3418-.02.5088-.0166.3018-.0166.4014a.2552.2552,0,0,0,.0166.1133c.01.0176.0439.03.1015.0371q.2989.0322.6211.0371c.2139.0039.4063.0059.5782.0059a6.1587,6.1587,0,0,0,.6474-.0323c.2031-.0215.3447-.039.4229-.0537.0576-.0137.082-.0029.0752.0322s-.0469.0821-.1182.14a1.1851,1.1851,0,0,1-.3477.1973,2.8063,2.8063,0,0,1-.4443.1289,4.0931,4.0931,0,0,1-.4814.0693c-.1651.0146-.3213.0215-.4717.0215-.1358,0-.2481-.002-.3369-.0049s-.1631-.0059-.22-.0059c-.0712-.0068-.11.0284-.1181.1075,0,.0361-.0029.1054-.0108.2089s-.0117.2188-.0156.3477-.0088.2568-.0166.3857-.01.2354-.01.3213a.8449.8449,0,0,0,.0586.4278.3959.3959,0,0,0,.22.1718,2.4556,2.4556,0,0,0,.332.0645,4.5,4.5,0,0,0,.5889.0312c.1347,0,.2812-.0029.4384-.0107s.3125-.02.4659-.042a3.1526,3.1526,0,0,0,.45-.0967,1.5472,1.5472,0,0,0,.3906-.1718c.0566-.0352.084-.03.08.0166a.2707.2707,0,0,1-.0909.1552,1.4762,1.4762,0,0,1-.4609.3428,2.9549,2.9549,0,0,1-.5723.2031,4.0266,4.0266,0,0,1-.6377.1016c-.2207.0176-.4316.0273-.6318.0273Z"/><path class="cls-1" d="M158.9365,76.0346a.4679.4679,0,0,1,.3692.1866,2.4981,2.4981,0,0,1,.3056.498,4.2671,4.2671,0,0,1,.1924.5088c.0645.2031.125.4092.1817.6162s.1093.3994.1552.5781.0811.3135.1026.4063c.0283.1572.081.165.16.0215q.107-.1494.22-.3428c.0752-.1279.1583-.2637.251-.4062.0508-.0791.1055-.168.166-.2676s.1221-.2041.1827-.3106.1142-.2109.16-.3105a1.6287,1.6287,0,0,0,.1016-.2676.6637.6637,0,0,0,.0381-.2412.37.37,0,0,0-.0381-.166.3559.3559,0,0,0-.0528-.08.2166.2166,0,0,1-.0429-.07c0-.0352.0322-.0742.0957-.1172.0508-.0361.1289-.084.2363-.1445a.5616.5616,0,0,1,.2461-.0909.1845.1845,0,0,1,.1494.085.4212.4212,0,0,1,.0752.2256,1.4443,1.4443,0,0,1-.23.6846q-.24.4394-.7656,1.2314-.2886.45-.4551.7764c-.11.2178-.1836.3662-.2187.4443a.8129.8129,0,0,0-.1074.3213.4313.4313,0,0,1-.1289.2139.5469.5469,0,0,1-.1016.0752q-.0689.044-.1494.0908a1.5453,1.5453,0,0,1-.15.081.2793.2793,0,0,1-.1016.0323c-.0644,0-.1074-.0938-.1289-.2793-.02-.2139-.0517-.4405-.0908-.68s-.0869-.48-.1445-.7227-.1211-.4814-.1924-.7177a6.368,6.368,0,0,0-.2354-.6524,1.7937,1.7937,0,0,0-.2734-.4873.4336.4336,0,0,0-.3262-.1875.962.962,0,0,0-.1933.0215.19.19,0,0,1-.08.0049.106.106,0,0,1-.0693-.0264c-.043-.0283-.0108-.0859.0957-.1719a2.3147,2.3147,0,0,1,.4609-.2783.9006.9006,0,0,1,.3213-.085Z"/><path class="cls-1" d="M164.5889,80.2749a1.507,1.507,0,0,1-.7764-.2256,1.16,1.16,0,0,1-.5186-.7275,2.4391,2.4391,0,0,1-.0966-.7393,2.5215,2.5215,0,0,1,.2675-1.124,2.5591,2.5591,0,0,1,.8135-.9424,2.85,2.85,0,0,1,.5781-.3213,1.5882,1.5882,0,0,1,.61-.1289.8686.8686,0,0,1,.541.1455.9719.9719,0,0,1,.2735.3047,1.1692,1.1692,0,0,1,.1171.3691,1.2017,1.2017,0,0,1,.0215.295.0851.0851,0,0,0,.0322.0752.2959.2959,0,0,0,.1612,0c.0713-.0147.1084-.002.1123.0371s-.0235.08-.08.123a1.6858,1.6858,0,0,1-.2842.1553,3.38,3.38,0,0,1-.5088.1767c-.1.0284-.2177.0586-.3535.0909s-.2763.0644-.4228.0966-.294.0645-.4444.0967-.2929.0625-.4277.0908a.3993.3993,0,0,0-.1611.0537c-.0284.0206-.043.0674-.043.1387a1.4334,1.4334,0,0,0,.2842.9854,1.1243,1.1243,0,0,0,.9472.3642,2.26,2.26,0,0,0,.793-.1445,2.2019,2.2019,0,0,0,.6426-.3594c.0283-.0283.05-.0351.0635-.0215a.094.094,0,0,1,.0166.0752.3968.3968,0,0,1-.0381.1231.4178.4178,0,0,1-.085.123,2.3021,2.3021,0,0,1-.3594.2842,3.234,3.234,0,0,1-.4921.2627,3.7317,3.7317,0,0,1-.5733.1924,2.4664,2.4664,0,0,1-.6.0752Zm.4609-3.77a.6431.6431,0,0,0-.3164.0859.9985.9985,0,0,0-.2832.24,1.8307,1.8307,0,0,0-.2305.3643,1.6934,1.6934,0,0,0-.1445.4443c-.0215.0928.0283.1289.15.1074.0635-.0068.1445-.0175.24-.0322s.2-.0322.3106-.0537.2236-.0439.3379-.0693.2207-.0479.3212-.0694c.1778-.0429.2676-.125.2676-.2461a.8246.8246,0,0,0-.0215-.2578.7068.7068,0,0,0-.0966-.2353.5735.5735,0,0,0-.5245-.2783Z"/><path class="cls-1" d="M171.11,76.0561a.3341.3341,0,0,1,.2724.1231.8857.8857,0,0,1,.1611.3154,1.9393,1.9393,0,0,1,.0752.4336,4.1171,4.1171,0,0,1,.0049.4658q-.0219.3427-.0478.8028c-.0176.3076-.0342.59-.0479.8466a1.0982,1.0982,0,0,0,.085.6045.3046.3046,0,0,0,.2568.166,1.008,1.008,0,0,0,.2891-.0478,1.4673,1.4673,0,0,0,.2793-.1123c.042-.0215.06,0,.0527.0635a.3156.3156,0,0,1-.1172.1933,2.3549,2.3549,0,0,1-.584.3428,1.4762,1.4762,0,0,1-.53.1279.5175.5175,0,0,1-.4278-.2246,1.08,1.08,0,0,1-.0966-.707q.01-.1392.0322-.3428c.0146-.1348.0283-.2764.0429-.4228s.0264-.29.0372-.4336.0195-.2744.0273-.3955c.0068-.1075.0107-.2256.0107-.3536a1.6145,1.6145,0,0,0-.038-.3593.7047.7047,0,0,0-.128-.2832.3145.3145,0,0,0-.2627-.1182.6466.6466,0,0,0-.2939.08,1.8677,1.8677,0,0,0-.3106.2041,3.3734,3.3734,0,0,0-.29.2568c-.0889.0889-.165.17-.23.2412a1.7293,1.7293,0,0,0-.3535.792c-.05.293-.09.6211-.1182.9854-.0136.1064-.0283.2031-.0429.289a.6475.6475,0,0,1-.085.2354.52.52,0,0,1-.123.1611,1.679,1.679,0,0,1-.3916.2725.37.37,0,0,1-.1495.0488.06.06,0,0,1-.0586-.0322c-.0107-.0215-.0019-.0723.0264-.15.0215-.1074.0449-.2549.0693-.4443s.0489-.3965.07-.6211.039-.4512.0527-.68.0215-.4356.0215-.6211a5.6975,5.6975,0,0,0-.043-.7979.796.796,0,0,0-.16-.4228c-.043-.0283-.0391-.0713.0107-.1289a1.7974,1.7974,0,0,1,.1553-.1338,2.5558,2.5558,0,0,1,.209-.1494c.0712-.0469.1367-.086.1982-.1182a.3423.3423,0,0,1,.123-.0478c.05,0,.0928.0478.128.1445a1.5815,1.5815,0,0,1,.08.3535c.0186.1387.0323.2832.043.4336s.0166.2783.0166.3857c0,.0567.0137.0869.043.0909s.06-.0166.0957-.06a7.63,7.63,0,0,1,.6641-.6045,4.2657,4.2657,0,0,1,.7285-.4873,2.2867,2.2867,0,0,1,.31-.1231.8592.8592,0,0,1,.2461-.0371Z"/><path class="cls-1" d="M174.5371,80.3491a.7748.7748,0,0,1-.375-.1172.7163.7163,0,0,1-.3008-.45,1.7045,1.7045,0,0,1-.0683-.4765c-.0039-.1817.0019-.376.0156-.5831.0068-.121.0166-.2656.0273-.4335s.0215-.3379.0323-.5088.02-.334.0312-.4873.02-.28.0274-.38a.1822.1822,0,0,0-.0059-.1074.1137.1137,0,0,0-.0693-.0323,2.8162,2.8162,0,0,0-.3047-.0049,1.28,1.28,0,0,0-.252.0264c-.0283.0068-.0469.002-.0537-.0156s.0068-.0518.043-.1026a.8818.8818,0,0,1,.2461-.2187,1.081,1.081,0,0,1,.3642-.1445.4.4,0,0,0,.0752-.0381.1381.1381,0,0,0,.0323-.08c.0136-.1494.0224-.3066.0263-.4707a.6713.6713,0,0,0-.0478-.332.2355.2355,0,0,1-.0215-.0811.1133.1133,0,0,1,.043-.0693c.0351-.0283.0849-.0655.1494-.1123s.13-.0908.1982-.1338.13-.08.1875-.1123a.2987.2987,0,0,1,.1279-.0479c.0293,0,.0518.02.07.0586a.51.51,0,0,1,.0371.1494,1.6932,1.6932,0,0,1,.0107.1875v.1719c-.0068.1-.0156.2266-.0264.38s-.0234.291-.038.4121c-.0069.0645.0146.1006.0644.1074.1641.0137.3359.0264.5137.0371s.35.0166.5146.0166c.1426,0,.2637-.0039.3633-.0107s.1719-.0147.2148-.0215c.0352-.0146.0567-.0078.0645.0215s-.0186.0713-.0752.1279a1.0513,1.0513,0,0,1-.4873.2627,2.3622,2.3622,0,0,1-.6055.08c-.1142,0-.2177-.002-.3105-.0049s-.167-.01-.2246-.0166c-.0645,0-.1.0361-.1065.1074-.0166.1641-.0322.38-.0488.6475s-.0322.5625-.0478.8838c-.0069.1924-.0069.3711,0,.5351a1.4132,1.4132,0,0,0,.0751.4229.5688.5688,0,0,0,.1924.2734.623.623,0,0,0,.375.0957,1.0727,1.0727,0,0,0,.4385-.1123,1.9745,1.9745,0,0,0,.4287-.2617c.043-.043.0654-.03.0694.0371a.326.326,0,0,1-.0909.22,2.2141,2.2141,0,0,1-.7392.5245,1.9085,1.9085,0,0,1-.749.1816Z"/><path class="cls-1" d="M177.3,77.6186a.9651.9651,0,0,1,.1074-.4443,1.68,1.68,0,0,1,.2725-.3848,2.439,2.439,0,0,1,.37-.3213,3.0642,3.0642,0,0,1,.3955-.2412,1.3367,1.3367,0,0,1,.3809-.1552,1.3784,1.3784,0,0,1,.2724-.0372.731.731,0,0,1,.3321.0743.2421.2421,0,0,1,.15.2256.3707.3707,0,0,1-.1123.2138.9563.9563,0,0,1-.1983.1817c-.0644.0293-.1074.0322-.1289.0107a.6575.6575,0,0,0-.22-.1338.8606.8606,0,0,0-.3262-.0586.6066.6066,0,0,0-.4228.1875.578.578,0,0,0-.1983.4336.4009.4009,0,0,0,.0967.2725,1.0177,1.0177,0,0,0,.2568.209,2.9322,2.9322,0,0,0,.375.1875q.2139.0907.46.1982.5244.2256.5244.6426a.9349.9349,0,0,1-.1279.4765,1.8816,1.8816,0,0,1-.3106.3965,2.62,2.62,0,0,1-.3906.3106,2.83,2.83,0,0,1-.3809.208,1.96,1.96,0,0,1-.8349.2148,1.1277,1.1277,0,0,1-.1983-.0215,1.0842,1.0842,0,0,1-.2138-.0644.5349.5349,0,0,1-.1719-.1123.2289.2289,0,0,1-.0693-.166.1656.1656,0,0,1,.0429-.0967,1.0132,1.0132,0,0,1,.1074-.1123c.043-.0391.085-.0752.128-.1074s.0791-.0586.1074-.08c.043-.0352.0752-.05.0967-.043a.1424.1424,0,0,1,.0527.0322.5641.5641,0,0,0,.2735.1983,1.0828,1.0828,0,0,0,.4121.08.8031.8031,0,0,0,.2734-.0479.8658.8658,0,0,0,.2412-.1338.7331.7331,0,0,0,.1758-.2041.49.49,0,0,0,.07-.2568.4343.4343,0,0,0-.123-.2891,1.2208,1.2208,0,0,0-.4131-.2676c-.1065-.0429-.2246-.0908-.3526-.1445a2.9644,2.9644,0,0,1-.3427-.166A.78.78,0,0,1,177.3,77.6186Z"/><path class="cls-1" d="M141.31,76.9966c.02,0,.042.0166.0664.0507a.6779.6779,0,0,1,.0654.1221c.0274.0547.0654.126.1123.2139a1.2967,1.2967,0,0,0,.1123.1836.1726.1726,0,0,1,.0361.1328.2922.2922,0,0,1-.0771.1123,1.1982,1.1982,0,0,1-.1172.0967c-.0576.0449-.1172.0908-.1777.1377a1.5162,1.5162,0,0,1-.1836.123.3434.3434,0,0,1-.1328.0508.17.17,0,0,1-.1123-.0615,1.17,1.17,0,0,1-.1172-.1377,1.0285,1.0285,0,0,1-.0967-.1582c-.0273-.0537-.0479-.0987-.0615-.1319a.2524.2524,0,0,1-.01-.21.8349.8349,0,0,1,.2031-.249,1.1406,1.1406,0,0,1,.3018-.2149.6316.6316,0,0,1,.1777-.0605Z"/><g id="Hotel"><path class="cls-1" d="M109.1631,80.3179a.5345.5345,0,0,1-.3906-.2149,1.2726,1.2726,0,0,1-.2115-.7812v-.8086c0-.1465.002-.2852.0054-.418s.0054-.23.0054-.294a.15.15,0,0,0-.0054-.0966.1585.1585,0,0,0-.0908-.0323c-.1856-.0214-.4068-.0351-.6641-.0429s-.5176-.0176-.7812-.0323c-.293-.0136-.5181-.0195-.6748-.0156a2.61,2.61,0,0,0-.3535.0264.3208.3208,0,0,0-.1177.0488.2521.2521,0,0,0-.0537.1338c-.0069.0859-.0161.1924-.0264.3213s-.0215.2656-.0322.4121-.0215.3-.0323.46-.0195.3164-.0268.4658a.7489.7489,0,0,0,.0215.2842.3978.3978,0,0,0,.0854.1338c.0288.0214.041.041.0376.0585s-.0268.045-.0693.0811a.7641.7641,0,0,1-.1445.1016q-.1019.0585-.22.1172a2.0726,2.0726,0,0,1-.2246.0966.5317.5317,0,0,1-.15.0371c-.0718,0-.1128-.0517-.1235-.1552a2.3612,2.3612,0,0,1-.0054-.3584c.0073-.1.0161-.2393.0269-.418s.0229-.3652.0376-.5615.0283-.3877.0429-.5733.0249-.3349.0318-.4492a.0534.0534,0,0,0-.0533-.06.227.227,0,0,0-.1069.0166c-.05.0284-.0752.0235-.0752-.0166a.272.272,0,0,1,.0855-.1552,1.0826,1.0826,0,0,1,.1181-.1553.35.35,0,0,0,.0855-.1553,5.6291,5.6291,0,0,0,.043-.6045c.0068-.2539.0141-.5371.0214-.8515a1.7919,1.7919,0,0,0-.0483-.541.4367.4367,0,0,0-.1445-.251c-.0713-.043-.05-.1074.0644-.1934a2.175,2.175,0,0,1,.4068-.251.8637.8637,0,0,1,.289-.1015.1418.1418,0,0,1,.1231.0908.8343.8343,0,0,1,.0752.22,1.66,1.66,0,0,1,.0317.2783c.0039.1.0054.1885.0054.2676,0,.0645-.0015.1573-.0054.2783s-.0068.2569-.01.4063-.0107.3105-.0214.4824-.0235.3389-.0376.5029q-.0111.129.1069.0967a4.2428,4.2428,0,0,1,.4443-.0429c.1534-.0069.3194-.0108.4981-.0108.1,0,.2212.002.3642.0059s.2871.0088.4336.0156.2871.0156.4229.0264.2461.02.332.0273c.0781.0068.1177-.0254.1177-.0967s.0034-.1728.0107-.3047.0157-.2734.0259-.4228.0215-.2969.0317-.44.023-.2607.0372-.3535a1.8345,1.8345,0,0,1,.0844-.417.5925.5925,0,0,1,.1162-.2041.7556.7556,0,0,1,.1739-.1445,1.7569,1.7569,0,0,1,.2383-.123,2.5774,2.5774,0,0,1,.2563-.0909c.0854-.0254.1606-.0449.2246-.0586.0786-.0146.1231-.0107.1338.0108s-.0122.0566-.0693.1064a.8493.8493,0,0,0-.1983.2461,2.1491,2.1491,0,0,0-.1767.5039,2.884,2.884,0,0,0-.0586.3584c-.0181.1533-.0342.3164-.0484.4873s-.0268.3389-.0376.503-.0161.2968-.0161.3964a.1157.1157,0,0,0,.1177.129c.2285.0136.4267.0214.5947.0214a1.742,1.742,0,0,0,.3369-.0214q.2037-.0322.0215.1279a1.1859,1.1859,0,0,1-.4873.2246,3.881,3.881,0,0,1-.519.0859.0947.0947,0,0,0-.107.1074q0,.45.01.8086a3.0227,3.0227,0,0,0,.07.6045.8034.8034,0,0,0,.1875.38.478.478,0,0,0,.3638.1338,1.34,1.34,0,0,0,.4443-.08,1.9,1.9,0,0,0,.37-.166c.05-.0283.066-.0088.0484.06a.3868.3868,0,0,1-.1021.1758,2.11,2.11,0,0,1-.3159.2148,3.1739,3.1739,0,0,1-.4013.1924,3.3377,3.3377,0,0,1-.4283.14,1.6306,1.6306,0,0,1-.3833.0538Z"/><path class="cls-1" d="M114.4824,76.0659a1.3693,1.3693,0,0,1,.3594.06.9867.9867,0,0,1,.3965.23,1.4264,1.4264,0,0,1,.32.4649,1.8586,1.8586,0,0,1,.1348.7656,2.0013,2.0013,0,0,1-.2637,1.0762,3.4225,3.4225,0,0,1-.6035.7344,3.8774,3.8774,0,0,1-.3926.3154,3.3321,3.3321,0,0,1-.4707.2783,3.1819,3.1819,0,0,1-.5083.1982,1.8351,1.8351,0,0,1-.5137.0752,1.16,1.16,0,0,1-.9155-.3808,1.6529,1.6529,0,0,1-.3374-1.1289,2.1335,2.1335,0,0,1,.2407-1.0332,2.4,2.4,0,0,1,.6587-.7657,1.1547,1.1547,0,0,1,.209-.1289c.0747-.0361.1406-.0644.1977-.0859.1-.043.1519-.0391.1553.0107a.2422.2422,0,0,1-.0908.1719,1.5263,1.5263,0,0,0-.4658.6319,2.1521,2.1521,0,0,0-.1338.77,1.7448,1.7448,0,0,0,.2568,1.0117.9.9,0,0,0,.792.37,1.2917,1.2917,0,0,0,.4717-.0967,1.2749,1.2749,0,0,0,.4385-.289,1.7474,1.7474,0,0,0,.3164-.52,2.1508,2.1508,0,0,0,.1445-.8408,1.8129,1.8129,0,0,0-.2363-.9639.7539.7539,0,0,0-.6846-.3847,1.0721,1.0721,0,0,0-.4385.0849c-.0434.0215-.0669.01-.07-.0371a.2159.2159,0,0,1,.08-.1552,1.9941,1.9941,0,0,1,.4336-.3,1.0893,1.0893,0,0,1,.51-.14Z"/><path class="cls-1" d="M118.1123,80.3491a.7748.7748,0,0,1-.375-.1172.7163.7163,0,0,1-.3008-.45,1.7045,1.7045,0,0,1-.0683-.4765c-.0039-.1817.0019-.376.0156-.5831.0068-.121.0166-.2656.0273-.4335s.0215-.3379.0323-.5088.02-.334.0312-.4873.02-.28.0274-.38a.1822.1822,0,0,0-.0059-.1074.1137.1137,0,0,0-.0693-.0323,2.8162,2.8162,0,0,0-.3047-.0049,1.28,1.28,0,0,0-.252.0264c-.0283.0068-.0469.002-.0537-.0156s.0068-.0518.043-.1026a.8818.8818,0,0,1,.2461-.2187,1.081,1.081,0,0,1,.3642-.1445.4.4,0,0,0,.0752-.0381.1375.1375,0,0,0,.0322-.08c.0137-.1494.0225-.3066.0264-.4707a.6713.6713,0,0,0-.0478-.332.2355.2355,0,0,1-.0215-.0811.1135.1135,0,0,1,.0429-.0693c.0352-.0283.085-.0655.15-.1123s.13-.0908.1982-.1338.13-.08.1875-.1123a.2982.2982,0,0,1,.1279-.0479c.0293,0,.0518.02.07.0586a.507.507,0,0,1,.0372.1494,1.6932,1.6932,0,0,1,.0107.1875v.1719c-.0068.1-.0156.2266-.0264.38s-.0234.291-.0381.4121c-.0068.0645.0147.1006.0645.1074.1641.0137.3359.0264.5137.0371s.35.0166.5146.0166c.1426,0,.2637-.0039.3633-.0107s.1719-.0147.2148-.0215c.0352-.0146.0567-.0078.0645.0215s-.0186.0713-.0752.1279a1.0513,1.0513,0,0,1-.4873.2627,2.3622,2.3622,0,0,1-.6055.08c-.1142,0-.2177-.002-.3105-.0049s-.167-.01-.2246-.0166c-.0645,0-.1.0361-.1065.1074-.0166.1641-.0322.38-.0488.6475s-.0322.5625-.0479.8838c-.0068.1924-.0068.3711,0,.5351a1.4161,1.4161,0,0,0,.0752.4229.5688.5688,0,0,0,.1924.2734.623.623,0,0,0,.375.0957,1.0727,1.0727,0,0,0,.4385-.1123,1.9745,1.9745,0,0,0,.4287-.2617c.043-.043.0654-.03.0693.0371a.3254.3254,0,0,1-.0908.22,2.2141,2.2141,0,0,1-.7392.5245,1.9086,1.9086,0,0,1-.7491.1816Z"/><path class="cls-1" d="M122.0635,80.2749a1.507,1.507,0,0,1-.7764-.2256,1.1594,1.1594,0,0,1-.5185-.7275,2.4357,2.4357,0,0,1-.0967-.7393,2.52,2.52,0,0,1,.2676-1.124,2.5579,2.5579,0,0,1,.8134-.9424,2.8481,2.8481,0,0,1,.5782-.3213,1.5873,1.5873,0,0,1,.61-.1289.8686.8686,0,0,1,.541.1455.9719.9719,0,0,1,.2735.3047,1.1692,1.1692,0,0,1,.1171.3691,1.2017,1.2017,0,0,1,.0215.295.0849.0849,0,0,0,.0323.0752.2955.2955,0,0,0,.1611,0c.0713-.0147.1084-.002.1123.0371s-.0234.08-.08.123a1.6858,1.6858,0,0,1-.2842.1553,3.38,3.38,0,0,1-.5088.1767c-.1.0284-.2177.0586-.3535.0909s-.2763.0644-.4228.0966-.294.0645-.4444.0967-.2929.0625-.4277.0908a.3993.3993,0,0,0-.1611.0537c-.0283.0206-.043.0674-.043.1387a1.4334,1.4334,0,0,0,.2842.9854,1.1244,1.1244,0,0,0,.9473.3642,2.26,2.26,0,0,0,.7929-.1445,2.2019,2.2019,0,0,0,.6426-.3594c.0283-.0283.05-.0351.0635-.0215a.094.094,0,0,1,.0166.0752.3968.3968,0,0,1-.0381.1231.4178.4178,0,0,1-.085.123,2.3056,2.3056,0,0,1-.3593.2842,3.24,3.24,0,0,1-.4922.2627,3.7317,3.7317,0,0,1-.5733.1924,2.4664,2.4664,0,0,1-.6.0752Zm.4609-3.77a.6431.6431,0,0,0-.3164.0859.9985.9985,0,0,0-.2832.24,1.8307,1.8307,0,0,0-.2305.3643,1.6934,1.6934,0,0,0-.1445.4443c-.0215.0928.0283.1289.15.1074.0635-.0068.1445-.0175.24-.0322s.2-.0322.3106-.0537.2236-.0439.3379-.0693.2207-.0479.3213-.0694c.1777-.0429.2675-.125.2675-.2461a.8274.8274,0,0,0-.0214-.2578.709.709,0,0,0-.0967-.2353.5735.5735,0,0,0-.5244-.2783Z"/><path class="cls-1" d="M126.1758,80.2749a.3853.3853,0,0,1-.2246-.0752.82.82,0,0,1-.1934-.1924,2.1133,2.1133,0,0,1-.1494-1.1894c.0215-.335.0439-.6954.0693-1.0811s.0518-.7676.08-1.1455.0518-.7412.0693-1.0869.0342-.6485.0489-.9053a4.2019,4.2019,0,0,0-.0059-.6426.5622.5622,0,0,0-.1338-.3418.1147.1147,0,0,1-.0215-.0595c0-.0176.0176-.0411.0538-.0694.0429-.0283.1-.0644.1718-.1074s.1446-.084.2188-.123.1445-.0733.209-.1016a.4319.4319,0,0,1,.1289-.043q.0849,0,.1172.1289a1.7148,1.7148,0,0,1,.0429.3213c.0069.1279.0069.2695,0,.4229s-.0146.2939-.0215.4228q-.0321.46-.0634.99t-.07,1.0654q-.0367.5361-.0694,1.05c-.0215.3428-.0361.6562-.043.9424a4.4435,4.4435,0,0,0,.0059.6845.8489.8489,0,0,0,.1016.3536.31.31,0,0,0,.1445.15.437.437,0,0,0,.1875.043,1.0432,1.0432,0,0,0,.2832-.0488,2.1152,2.1152,0,0,0,.2842-.1016c.0351-.0136.0547.0039.0586.0537s-.0342.11-.1123.1817a1.7864,1.7864,0,0,1-.2412.1767,2.3176,2.3176,0,0,1-.3047.1612,3.1376,3.1376,0,0,1-.3213.1172,1.0228,1.0228,0,0,1-.2891.0488Z"/></g><path class="cls-1" d="M96.6094,76.9966c.0205,0,.0425.0166.0664.0507a.711.711,0,0,1,.0664.1221q.04.0821.1123.2139a1.3066,1.3066,0,0,0,.1118.1836.1726.1726,0,0,1,.0361.1328.29.29,0,0,1-.0766.1123,1.3393,1.3393,0,0,1-.1172.0967c-.0581.0449-.1172.0908-.1787.1377a1.4143,1.4143,0,0,1-.1836.123.342.342,0,0,1-.1323.0508.17.17,0,0,1-.1123-.0615,1.161,1.161,0,0,1-.1172-.1377,1.0643,1.0643,0,0,1-.0972-.1582c-.0269-.0537-.0474-.0987-.061-.1319a.2525.2525,0,0,1-.01-.21.85.85,0,0,1,.2041-.249,1.122,1.122,0,0,1,.3008-.2149.6339.6339,0,0,1,.1787-.0605Z"/><g id="Restaurant"><path class="cls-1" d="M44.981,74.5561a1.753,1.753,0,0,1,1.103.3164,1.1023,1.1023,0,0,1,.4067.9258,1.3678,1.3678,0,0,1-.0908.5147,1.6425,1.6425,0,0,1-.2358.4062,2.0227,2.0227,0,0,1-.3423.3379q-.1985.1552-.4019.3047c-.0639.043-.0981.084-.1015.123a.35.35,0,0,0,.08.1875c.0645.1006.1377.2217.22.3643s.1714.291.2675.4443.1963.3067.3.461a3.237,3.237,0,0,0,.316.4013,2.4527,2.4527,0,0,0,.4819.4385.753.753,0,0,0,.4067.1289.9241.9241,0,0,0,.4073-.0752q.0958-.0323.0747.0323c0,.0576-.043.1181-.1284.1816a1.338,1.338,0,0,1-.4712.22,1.886,1.886,0,0,1-.4283.0586,1.4781,1.4781,0,0,1-1.0922-.6308c-.0855-.1006-.1768-.2178-.273-.3536s-.1894-.2714-.2783-.4072-.1714-.2637-.2466-.3857-.1338-.2207-.1768-.3a1.3839,1.3839,0,0,0-.2675-.3584.44.44,0,0,0-.3-.1123.5976.5976,0,0,0-.3.0537.2528.2528,0,0,0-.107.2246c-.0073.0859-.0161.1924-.0268.3213s-.02.2588-.0269.3906-.0141.2588-.0215.38-.0107.2178-.0107.289a.46.46,0,0,0,.1391.3858c.0289.0215.0376.0449.0269.0693a.3222.3222,0,0,1-.1016.1026,1.569,1.569,0,0,1-.1606.0908c-.0645.0322-.13.0625-.1982.0908s-.13.0537-.1871.0752a.4192.4192,0,0,1-.1181.0322q-.1179,0-.15-.2842A4.401,4.401,0,0,1,42.957,79.3c.0074-.1358.02-.3174.0376-.5459s.0376-.4766.0591-.7442.0391-.5429.0532-.8252.0249-.5439.0323-.7871.0087-.4531.0053-.6318a1.0651,1.0651,0,0,0-.0483-.3633.2321.2321,0,0,0-.0425-.0752c-.0146-.0146-.043-.0146-.0859,0a2.29,2.29,0,0,0-.3213.16q-.1817.1083-.3.1826c-.0786.0351-.1177.0351-.1177,0a.2394.2394,0,0,1,.0376-.1182.5586.5586,0,0,1,.0908-.1172,2.0727,2.0727,0,0,1,.3106-.23q.1824-.1128.3535-.209a.2791.2791,0,0,0,.0962-.0645c.0288-.0283.06-.0605.0967-.0957a1.2222,1.2222,0,0,1,.1176-.0967,1.942,1.942,0,0,1,.1768-.1181c.06-.0352.1177-.0674.1714-.0957a.2854.2854,0,0,1,.1123-.043c.0283,0,.05.0176.0639.0537s.0289.0674.043.0957c.0215.043.0713.0537.15.0323.0283-.0069.0767-.0176.1445-.0323s.1446-.0263.23-.0371.1768-.0195.273-.0273.1875-.0108.2729-.0108Zm-.5782.45c-.0571,0-.1215.002-.1928.0049a.6573.6573,0,0,0-.1714.0274c-.05.0146-.0747.0566-.0747.1279,0,.1142-.0039.2578-.0108.4287s-.0161.3574-.0268.5566-.0235.4014-.0376.6055-.0249.3945-.0323.5723a.14.14,0,0,0,.043.1123.3194.3194,0,0,0,.1929.0381,2.4863,2.4863,0,0,0,.5405-.08,1.5439,1.5439,0,0,0,.4551-.1983,1.4021,1.4021,0,0,0,.4072-.4013,1.0931,1.0931,0,0,0,.1821-.6377,1.0713,1.0713,0,0,0-.3427-.8672,1.384,1.384,0,0,0-.9209-.2891Z"/><path class="cls-1" d="M49.939,80.2749a1.5043,1.5043,0,0,1-.7764-.2256,1.1589,1.1589,0,0,1-.52-.7275,2.4528,2.4528,0,0,1-.0962-.7393,2.52,2.52,0,0,1,.2676-1.124,2.5465,2.5465,0,0,1,.8139-.9424,2.8367,2.8367,0,0,1,.5781-.3213,1.5844,1.5844,0,0,1,.61-.1289.869.869,0,0,1,.5405.1455.9719.9719,0,0,1,.2735.3047,1.17,1.17,0,0,1,.1176.3691,1.25,1.25,0,0,1,.0215.295.0859.0859,0,0,0,.0318.0752.2939.2939,0,0,0,.1606,0c.0713-.0147.1089-.002.1128.0371s-.0234.08-.0806.123a1.6565,1.6565,0,0,1-.2837.1553,3.4,3.4,0,0,1-.5088.1767q-.15.0426-.353.0909t-.4233.0966c-.146.0323-.2945.0645-.4444.0967s-.2924.0625-.4282.0908a.4023.4023,0,0,0-.1606.0537c-.0283.0206-.0425.0674-.0425.1387a1.4257,1.4257,0,0,0,.2837.9854,1.1238,1.1238,0,0,0,.9473.3642,2.253,2.253,0,0,0,.7924-.1445,2.1889,2.1889,0,0,0,.6426-.3594c.0283-.0283.05-.0351.0645-.0215a.0923.0923,0,0,1,.0156.0752.3792.3792,0,0,1-.0371.1231.4115.4115,0,0,1-.086.123,2.3135,2.3135,0,0,1-.3584.2842,3.2165,3.2165,0,0,1-.4926.2627,3.7622,3.7622,0,0,1-.5728.1924,2.4756,2.4756,0,0,1-.6.0752Zm.46-3.77a.64.64,0,0,0-.3159.0859.9949.9949,0,0,0-.2837.24,1.8536,1.8536,0,0,0-.23.3643,1.7121,1.7121,0,0,0-.1445.4443c-.0215.0928.0283.1289.15.1074.0645-.0068.1445-.0175.2407-.0322s.2-.0322.3106-.0537.2231-.0439.3374-.0693.2212-.0479.3213-.0694q.2673-.0644.2675-.2461a.8126.8126,0,0,0-.0214-.2578.6983.6983,0,0,0-.0962-.2353.5735.5735,0,0,0-.5244-.2783Z"/><path class="cls-1" d="M53.3115,77.6186a.96.96,0,0,1,.1074-.4443,1.67,1.67,0,0,1,.273-.3848,2.4072,2.4072,0,0,1,.3691-.3213,3.0452,3.0452,0,0,1,.3965-.2412,1.3317,1.3317,0,0,1,.38-.1552,1.3864,1.3864,0,0,1,.2734-.0372.7334.7334,0,0,1,.3316.0743.2409.2409,0,0,1,.15.2256.3647.3647,0,0,1-.1123.2138.9294.9294,0,0,1-.1983.1817c-.0639.0293-.1069.0322-.1284.0107a.66.66,0,0,0-.2192-.1338.8668.8668,0,0,0-.3267-.0586.6075.6075,0,0,0-.4228.1875.58.58,0,0,0-.1983.4336.4035.4035,0,0,0,.0962.2725,1.039,1.039,0,0,0,.2573.209,3.0205,3.0205,0,0,0,.3746.1875q.2138.0907.46.1982.5244.2256.5249.6426a.93.93,0,0,1-.1284.4765,1.8783,1.8783,0,0,1-.3106.3965,2.5733,2.5733,0,0,1-.3911.3106,2.8247,2.8247,0,0,1-.38.208,1.9621,1.9621,0,0,1-.8354.2148,1.1316,1.1316,0,0,1-.1982-.0215,1.1038,1.1038,0,0,1-.2139-.0644.5326.5326,0,0,1-.1714-.1123.2274.2274,0,0,1-.07-.166.1656.1656,0,0,1,.0429-.0967,1.0547,1.0547,0,0,1,.107-.1123c.0429-.0391.0859-.0752.1289-.1074s.0781-.0586.1069-.08c.043-.0352.0747-.05.0962-.043a.1547.1547,0,0,1,.0537.0322.5552.5552,0,0,0,.273.1983,1.0828,1.0828,0,0,0,.4121.08.8006.8006,0,0,0,.2734-.0479.8478.8478,0,0,0,.2407-.1338.745.745,0,0,0,.1768-.2041.4941.4941,0,0,0,.0693-.2568.4343.4343,0,0,0-.123-.2891,1.2088,1.2088,0,0,0-.4121-.2676q-.1605-.0644-.3535-.1445a2.9889,2.9889,0,0,1-.3423-.166A.7792.7792,0,0,1,53.3115,77.6186Z"/><path class="cls-1" d="M58.0552,80.3491a.77.77,0,0,1-.3745-.1172.7149.7149,0,0,1-.3013-.45,1.7267,1.7267,0,0,1-.0684-.4765q-.0059-.2725.0161-.5831.01-.1815.0264-.4335t.0322-.5088c.0108-.1719.0215-.334.0323-.4873s.02-.28.0268-.38a.1832.1832,0,0,0-.0053-.1074.1173.1173,0,0,0-.07-.0323,2.8209,2.8209,0,0,0-.3051-.0049,1.2827,1.2827,0,0,0-.2515.0264c-.0288.0068-.0464.002-.0537-.0156s.0073-.0518.0429-.1026a.8846.8846,0,0,1,.2461-.2187,1.0824,1.0824,0,0,1,.3643-.1445.3685.3685,0,0,0,.0747-.0381.1255.1255,0,0,0,.0322-.08c.0142-.1494.0235-.3066.0269-.4707a.6684.6684,0,0,0-.0484-.332.2457.2457,0,0,1-.0209-.0811.1166.1166,0,0,1,.0424-.0693c.0357-.0283.086-.0655.15-.1123s.13-.0908.1983-.1338.13-.08.1875-.1123a.3.3,0,0,1,.1284-.0479c.0283,0,.0518.02.0693.0586a.5031.5031,0,0,1,.0376.1494,1.5588,1.5588,0,0,1,.0108.1875v.1719c-.0074.1-.0161.2266-.0269.38s-.0229.291-.0371.4121c-.0073.0645.0142.1006.064.1074.164.0137.3354.0264.5141.0371s.35.0166.5137.0166c.1431,0,.2642-.0039.3643-.0107s.1713-.0147.2143-.0215c.0357-.0146.0567-.0078.064.0215s-.0181.0713-.0747.1279a1.0488,1.0488,0,0,1-.4873.2627,2.3641,2.3641,0,0,1-.605.08c-.1143,0-.2178-.002-.3106-.0049s-.1679-.01-.2251-.0166c-.0639,0-.1.0361-.1069.1074q-.0241.2462-.0483.6475t-.0479.8838c-.0073.1924-.0073.3711,0,.5351a1.417,1.417,0,0,0,.0747.4229.5762.5762,0,0,0,.1929.2734.6219.6219,0,0,0,.3745.0957,1.0753,1.0753,0,0,0,.44-.1123,1.9611,1.9611,0,0,0,.4282-.2617c.0425-.043.0659-.03.0693.0371a.3307.3307,0,0,1-.0908.22,2.2175,2.2175,0,0,1-.7388.5245,1.9087,1.9087,0,0,1-.7495.1816Z"/><path class="cls-1" d="M62.8755,76.0454a.5664.5664,0,0,1,.4888.331,1.4433,1.4433,0,0,1,.1411.879q-.0323.375-.0537.8291t-.0323.83a3.1036,3.1036,0,0,0,.0054.418.5036.5036,0,0,0,.0913.2676.4271.4271,0,0,0,.353.1816.8029.8029,0,0,0,.2359-.043.7605.7605,0,0,0,.2138-.0957c.0357-.0214.0538-.0058.0538.0479a.2376.2376,0,0,1-.064.1553c-.043.05-.0967.1054-.1607.166a1.2222,1.2222,0,0,1-.225.166,1.3711,1.3711,0,0,1-.2837.123,1.06,1.06,0,0,1-.3174.0479.5433.5433,0,0,1-.3911-.1709,1.2665,1.2665,0,0,1-.2608-.3535c-.0215-.0352-.0425-.0547-.0639-.0586a.1942.1942,0,0,0-.1065.0371,2.598,2.598,0,0,1-.2554.1553c-.1.0537-.2006.1035-.3037.15s-.2007.0849-.2929.1172a.723.723,0,0,1-.2237.0488,1.0959,1.0959,0,0,1-.4209-.0918.6552.6552,0,0,1-.3252-.2725.69.69,0,0,1-.08-.1826.831.831,0,0,1-.0268-.2246.5763.5763,0,0,1,.0693-.2783,1.21,1.21,0,0,1,.1651-.2354,1.8925,1.8925,0,0,1,.3408-.2842,3.9932,3.9932,0,0,1,.4316-.246,5.0435,5.0435,0,0,1,.4741-.2032q.2454-.0907.48-.1552.1809-.0426.1919-.1612.01-.0849.0161-.208c.0035-.082.0054-.1738.0054-.2734,0-.086-.0039-.1787-.0107-.2783a.99.99,0,0,0-.0591-.2784.5638.5638,0,0,0-.1392-.2148.3388.3388,0,0,0-.2407-.085.9925.9925,0,0,0-.3374.0694,3.0228,3.0228,0,0,0-.375.1709q-.1875.1025-.3584.2089c-.1142.0713-.2143.129-.3.1719a.095.095,0,0,1-.0806.0049c-.0175-.0107-.0122-.0478.0162-.1123a1.0036,1.0036,0,0,1,.1445-.2568.6754.6754,0,0,1,.209-.1827q.2248-.1171.5088-.2568a5.3933,5.3933,0,0,1,.519-.2246,1.7613,1.7613,0,0,1,.623-.1494Zm-.9873,3.6826a1.0758,1.0758,0,0,0,.2949-.0527.6226.6226,0,0,0,.2622-.14.4643.4643,0,0,0,.1929-.3642c.0068-.0782.0141-.1709.021-.2784s.0141-.2138.0215-.3212q0-.1173-.1392-.085a3.2682,3.2682,0,0,0-.5034.1172,1.8862,1.8862,0,0,0-.4175.1719.7627.7627,0,0,0-.2246.1757.3924.3924,0,0,0-.0859.2627.4269.4269,0,0,0,.166.3692.6146.6146,0,0,0,.4018.1445Z"/><path class="cls-1" d="M66.3965,80.2641a.7064.7064,0,0,1-.5889-.3212,1.2732,1.2732,0,0,1-.2251-.8038c0-.1562.0054-.3066.0161-.4492s.02-.2959.0269-.4609c.0215-.249.0391-.4639.0537-.6426s.021-.3281.021-.4492a1.7848,1.7848,0,0,0-.0317-.3428.4668.4668,0,0,0-.1182-.2461c-.0425-.0283-.0142-.082.0859-.1611a3.2088,3.2088,0,0,1,.4283-.2676.7635.7635,0,0,1,.2675-.0957c.05,0,.0874.044.1123.1338a1.3365,1.3365,0,0,1,.043.3262c.0034.1289.002.2607-.0054.3965s-.0141.25-.0215.3427q-.0314.2886-.0639.7061t-.043.7607a1.0212,1.0212,0,0,0,.1553.7071.6013.6013,0,0,0,.4766.2031.7877.7877,0,0,0,.3481-.086A1.4793,1.4793,0,0,0,67.66,79.3a2.3011,2.3011,0,0,0,.2734-.2783,2.251,2.251,0,0,0,.1978-.2784,1.2151,1.2151,0,0,0,.1235-.2568,1.6628,1.6628,0,0,0,.0586-.2793q.0109-.0952.0268-.2461t.0269-.3105c.0068-.1065.0142-.2139.0215-.3213s.0107-.2032.0107-.2891a1.2046,1.2046,0,0,0-.0107-.2783.9194.9194,0,0,0-.0537-.2031c-.0142-.043.0068-.0821.0644-.1182a.9829.9829,0,0,1,.1338-.1064q.0909-.0645.1978-.129a2.0464,2.0464,0,0,1,.2036-.1074.406.406,0,0,1,.15-.042q.1179,0,.0962.3633c-.0069.1074-.02.2676-.0371.4824s-.0376.4375-.0591.669-.041.4531-.0586.664-.0269.3692-.0269.4766v.3106a1.5774,1.5774,0,0,0,.0371.3476.63.63,0,0,0,.1343.2783.3449.3449,0,0,0,.2783.1123.9719.9719,0,0,0,.2354-.0322.9076.9076,0,0,0,.2251-.085c.0571-.0361.0889-.0273.0962.0264s-.0288.1162-.107.1875a1.7332,1.7332,0,0,1-.5034.3477,1.2749,1.2749,0,0,1-.5351.1338.4381.4381,0,0,1-.3-.1016.7211.7211,0,0,1-.1875-.2568,1.4511,1.4511,0,0,1-.1021-.3262,2.9562,2.9562,0,0,1-.0425-.3106c0-.122-.05-.1357-.15-.0429-.0361.0283-.0966.0781-.1821.1494s-.1821.1484-.2891.23-.2143.1611-.3212.2353a3.0621,3.0621,0,0,1-.2784.1768,1.7686,1.7686,0,0,1-.2944.1289,1.0112,1.0112,0,0,1-.3052.0429Z"/><path class="cls-1" d="M71.707,75.9917a.2115.2115,0,0,1,.1768.0957.7144.7144,0,0,1,.1069.2519,2.3238,2.3238,0,0,1,.0537.3477q.0162.1933.0161.375c0,.1142.0391.1328.1177.0537q.1494-.1714.3589-.4014a3.0143,3.0143,0,0,1,.3906-.3691q.16-.1289.3-.22a.506.506,0,0,1,.2784-.0909.5.5,0,0,1,.375.1553.4505.4505,0,0,1,.15.3047.4187.4187,0,0,1-.0967.2627,2.05,2.05,0,0,1-.2676.2725c-.0571.0507-.1.0732-.1284.07a.1075.1075,0,0,1-.0752-.06.9671.9671,0,0,0-.1978-.166.4725.4725,0,0,0-.2627-.08.5243.5243,0,0,0-.3691.2031,2.8664,2.8664,0,0,0-.3267.4287,1.8622,1.8622,0,0,0-.2089.7657q-.0477.498-.08,1.0332c-.0147.15-.03.2763-.0484.38a.5575.5575,0,0,1-.1015.2519.9254.9254,0,0,1-.1607.1817,1.0861,1.0861,0,0,1-.1928.14,1.41,1.41,0,0,1-.1822.0859.4153.4153,0,0,1-.1176.0323.0708.0708,0,0,1-.0586-.0215c-.0108-.0147-.0093-.0508.0053-.1074q.0213-.1173.0479-.337c.0181-.1464.0356-.3183.0537-.5146s.0337-.4082.0483-.6367.0249-.461.0318-.6963V77.56a2.5575,2.5575,0,0,0-.0318-.4121,1.2977,1.2977,0,0,0-.0966-.332.4116.4116,0,0,0-.1929-.2031.4806.4806,0,0,1-.064-.0381.0551.0551,0,0,1-.0215-.0479c0-.05.0645-.1181.1929-.2031q.0638-.0425.1445-.1025c.0533-.0391.107-.0762.1607-.1123a1.154,1.154,0,0,1,.15-.085.2845.2845,0,0,1,.1123-.0322Z"/><path class="cls-1" d="M77.0308,76.0454a.5663.5663,0,0,1,.4887.331,1.4418,1.4418,0,0,1,.1411.879q-.0321.375-.0537.8291t-.0322.83a3.0871,3.0871,0,0,0,.0054.418.5036.5036,0,0,0,.0913.2676.4269.4269,0,0,0,.353.1816.8029.8029,0,0,0,.2359-.043.7619.7619,0,0,0,.2138-.0957c.0357-.0214.0537-.0058.0537.0479a.238.238,0,0,1-.0639.1553c-.043.05-.0967.1054-.1607.166a1.22,1.22,0,0,1-.2251.166,1.3687,1.3687,0,0,1-.2837.123,1.0592,1.0592,0,0,1-.3173.0479.5437.5437,0,0,1-.3912-.1709,1.268,1.268,0,0,1-.2607-.3535c-.0215-.0352-.0425-.0547-.064-.0586a.1939.1939,0,0,0-.1064.0371,2.61,2.61,0,0,1-.2554.1553c-.1.0537-.2007.1035-.3037.15s-.2007.0849-.293.1172a.7231.7231,0,0,1-.2236.0488,1.0955,1.0955,0,0,1-.4209-.0918.6552.6552,0,0,1-.3252-.2725.69.69,0,0,1-.08-.1826.831.831,0,0,1-.0268-.2246.5763.5763,0,0,1,.0693-.2783,1.2141,1.2141,0,0,1,.165-.2354,1.8969,1.8969,0,0,1,.3409-.2842,3.9932,3.9932,0,0,1,.4316-.246,5.0211,5.0211,0,0,1,.4741-.2032q.2454-.0907.48-.1552.1809-.0426.1919-.1612.01-.0849.0161-.208c.0034-.082.0054-.1738.0054-.2734,0-.086-.0039-.1787-.0108-.2783a.99.99,0,0,0-.059-.2784.565.565,0,0,0-.1392-.2148.3388.3388,0,0,0-.2407-.085.9925.9925,0,0,0-.3374.0694,3.0228,3.0228,0,0,0-.375.1709q-.1875.1025-.3584.2089c-.1143.0713-.2144.129-.3.1719A.095.095,0,0,1,75,77.228c-.0176-.0107-.0122-.0478.0161-.1123a1.0069,1.0069,0,0,1,.1446-.2568.6751.6751,0,0,1,.2089-.1827q.2249-.1171.5088-.2568a5.3942,5.3942,0,0,1,.5191-.2246,1.7613,1.7613,0,0,1,.623-.1494Zm-.9873,3.6826a1.0758,1.0758,0,0,0,.2949-.0527.6226.6226,0,0,0,.2622-.14.4643.4643,0,0,0,.1929-.3642c.0068-.0782.0141-.1709.021-.2784s.0141-.2138.0214-.3212q0-.1173-.1391-.085a3.2682,3.2682,0,0,0-.5034.1172,1.8862,1.8862,0,0,0-.4175.1719.7627.7627,0,0,0-.2246.1757.3924.3924,0,0,0-.086.2627.4274.4274,0,0,0,.166.3692.6149.6149,0,0,0,.4019.1445Z"/><path class="cls-1" d="M82.7041,76.0561a.3365.3365,0,0,1,.273.1231.9051.9051,0,0,1,.1606.3154,1.9177,1.9177,0,0,1,.0747.4336,4.0511,4.0511,0,0,1,.0054.4658q-.0213.3427-.0479.8028t-.0483.8466a1.1012,1.1012,0,0,0,.0854.6045.3048.3048,0,0,0,.2574.166,1.0128,1.0128,0,0,0,.289-.0478,1.4537,1.4537,0,0,0,.2783-.1123c.043-.0215.0606,0,.0537.0635a.32.32,0,0,1-.1181.1933,2.3537,2.3537,0,0,1-.5835.3428,1.4767,1.4767,0,0,1-.53.1279.5169.5169,0,0,1-.4282-.2246,1.0767,1.0767,0,0,1-.0967-.707q.0109-.1392.0322-.3428c.0142-.1348.0283-.2764.043-.4228s.0269-.29.0376-.4336.0195-.2744.0264-.3955c.0073-.1075.0107-.2256.0107-.3536a1.64,1.64,0,0,0-.0371-.3593.72.72,0,0,0-.1289-.2832.3125.3125,0,0,0-.2622-.1182.6521.6521,0,0,0-.2945.08,1.9486,1.9486,0,0,0-.31.2041,3.452,3.452,0,0,0-.2891.2568c-.0893.0889-.166.17-.23.2412a1.7276,1.7276,0,0,0-.3531.792q-.0754.44-.1176.9854c-.0147.1064-.0288.2031-.043.289a.67.67,0,0,1-.0859.2354.5113.5113,0,0,1-.1231.1611,1.6678,1.6678,0,0,1-.1929.1553,1.7879,1.7879,0,0,1-.1977.1172.3744.3744,0,0,1-.15.0488.06.06,0,0,1-.0591-.0322c-.0107-.0215-.0019-.0723.0269-.15.0214-.1074.0444-.2549.07-.4443s.0478-.3965.0693-.6211.0391-.4512.0537-.68.0215-.4356.0215-.6211a5.84,5.84,0,0,0-.043-.7979.7958.7958,0,0,0-.1606-.4228q-.0645-.0425.0107-.1289a1.9662,1.9662,0,0,1,.1553-.1338c.0679-.0537.1372-.1035.2085-.1494s.1377-.086.1983-.1182a.3416.3416,0,0,1,.123-.0478c.05,0,.0928.0478.1284.1445a1.6364,1.6364,0,0,1,.0806.3535c.0176.1387.0322.2832.043.4336s.0161.2783.0161.3857c0,.0567.0141.0869.0424.0909s.0606-.0166.0967-.06a7.4766,7.4766,0,0,1,.6636-.6045,4.25,4.25,0,0,1,.7285-.4873,2.305,2.305,0,0,1,.31-.1231.8692.8692,0,0,1,.2466-.0371Z"/><path class="cls-1" d="M86.1309,80.3491a.7707.7707,0,0,1-.3746-.1172.7148.7148,0,0,1-.3012-.45,1.7229,1.7229,0,0,1-.0684-.4765q-.0058-.2725.0161-.5831.01-.1815.0264-.4335t.0322-.5088c.0108-.1719.0215-.334.0323-.4873s.0195-.28.0268-.38a.1829.1829,0,0,0-.0054-.1074.1166.1166,0,0,0-.07-.0323,2.8227,2.8227,0,0,0-.3052-.0049,1.2824,1.2824,0,0,0-.2514.0264c-.0288.0068-.0464.002-.0537-.0156s.0073-.0518.0429-.1026a.8846.8846,0,0,1,.2461-.2187,1.0807,1.0807,0,0,1,.3643-.1445.3685.3685,0,0,0,.0747-.0381.126.126,0,0,0,.0322-.08c.0142-.1494.0235-.3066.0269-.4707a.6684.6684,0,0,0-.0484-.332.2465.2465,0,0,1-.021-.0811.1169.1169,0,0,1,.0425-.0693c.0357-.0283.086-.0655.15-.1123s.13-.0908.1983-.1338.13-.08.1875-.1123a.3.3,0,0,1,.1284-.0479c.0283,0,.0517.02.0693.0586a.5031.5031,0,0,1,.0376.1494,1.58,1.58,0,0,1,.0108.1875v.1719c-.0074.1-.0162.2266-.0269.38s-.023.291-.0371.4121c-.0073.0645.0141.1006.064.1074.164.0137.3354.0264.5141.0371s.35.0166.5137.0166c.1431,0,.2641-.0039.3642-.0107s.1714-.0147.2144-.0215c.0356-.0146.0566-.0078.064.0215s-.0181.0713-.0747.1279a1.0488,1.0488,0,0,1-.4873.2627,2.3647,2.3647,0,0,1-.605.08c-.1143,0-.2178-.002-.3106-.0049s-.1679-.01-.2251-.0166c-.0639,0-.1.0361-.1069.1074q-.0241.2462-.0483.6475t-.0479.8838c-.0073.1924-.0073.3711,0,.5351a1.4107,1.4107,0,0,0,.0747.4229.5756.5756,0,0,0,.1929.2734.6219.6219,0,0,0,.3745.0957,1.0745,1.0745,0,0,0,.4394-.1123,1.96,1.96,0,0,0,.4283-.2617c.0424-.043.0659-.03.0693.0371a.3312.3312,0,0,1-.0908.22,2.2186,2.2186,0,0,1-.7388.5245,1.9087,1.9087,0,0,1-.7495.1816Z"/></g><path class="cls-1" d="M32.5352,76.9966c.02,0,.0424.0166.0664.0507a.711.711,0,0,1,.0664.1221q.04.0821.1123.2139a1.2874,1.2874,0,0,0,.1118.1836.1726.1726,0,0,1,.0361.1328.29.29,0,0,1-.0766.1123,1.3393,1.3393,0,0,1-.1172.0967c-.0581.0449-.1172.0908-.1787.1377a1.4143,1.4143,0,0,1-.1836.123.3423.3423,0,0,1-.1324.0508.17.17,0,0,1-.1123-.0615,1.17,1.17,0,0,1-.1171-.1377,1.0643,1.0643,0,0,1-.0972-.1582c-.0269-.0537-.0474-.0987-.061-.1319a.2525.2525,0,0,1-.01-.21.8488.8488,0,0,1,.2041-.249,1.122,1.122,0,0,1,.3008-.2149.6329.6329,0,0,1,.1787-.0605Z"/><g id="Café"><path class="cls-1" d="M8.334,79.728a2.5485,2.5485,0,0,0,.6748-.085,3.4655,3.4655,0,0,0,.5674-.2089,3.3142,3.3142,0,0,0,.4443-.252,2.7664,2.7664,0,0,0,.2944-.2246c.0289-.0283.0484-.0361.0591-.0215s.0088.0391-.0053.0752a.54.54,0,0,1-.1338.2354,1.7121,1.7121,0,0,1-.22.2138,4.7477,4.7477,0,0,1-.45.2842,5.2443,5.2443,0,0,1-.6635.3154,4.2251,4.2251,0,0,1-.6373.1875,3.0215,3.0215,0,0,1-.6372.07,2.4477,2.4477,0,0,1-.84-.1553,1.6683,1.6683,0,0,1-.6694-.4239,2.1277,2.1277,0,0,1-.37-.5888,2.4746,2.4746,0,0,1-.1552-.9737A2.96,2.96,0,0,1,6.1069,76.49,4.5732,4.5732,0,0,1,7.4561,75.188a4.621,4.621,0,0,1,.9585-.4873,2.47,2.47,0,0,1,.8085-.1651.9524.9524,0,0,1,.3531.0528.4149.4149,0,0,1,.1821.1289q.1179.1391-.043.2783c-.05.05-.1054.1-.166.15a1.6487,1.6487,0,0,1-.1763.1279c-.1142.0645-.186.0791-.2143.043a.57.57,0,0,0-.2783-.15,1.4941,1.4941,0,0,0-.3965-.0528,1.4185,1.4185,0,0,0-.728.2081,2.4632,2.4632,0,0,0-.5674.4443,2.8249,2.8249,0,0,0-.5088.7978,2.8652,2.8652,0,0,0-.2085,1.1514,2.9912,2.9912,0,0,0,.1069.8242,1.6678,1.6678,0,0,0,.3321.6377,1.4818,1.4818,0,0,0,.5781.4063,2.192,2.192,0,0,0,.8354.1445Z"/><path class="cls-1" d="M13.5186,76.0454a.5663.5663,0,0,1,.4887.331,1.4418,1.4418,0,0,1,.1411.879q-.0321.375-.0537.8291t-.0322.83a3.0871,3.0871,0,0,0,.0054.418.5036.5036,0,0,0,.0913.2676.4269.4269,0,0,0,.353.1816.8018.8018,0,0,0,.2358-.043.7613.7613,0,0,0,.2139-.0957c.0357-.0214.0537-.0058.0537.0479a.238.238,0,0,1-.0639.1553c-.043.05-.0967.1054-.1607.166a1.22,1.22,0,0,1-.2251.166,1.3687,1.3687,0,0,1-.2837.123,1.0593,1.0593,0,0,1-.3174.0479.5437.5437,0,0,1-.3911-.1709,1.268,1.268,0,0,1-.2607-.3535c-.0215-.0352-.0425-.0547-.064-.0586a.1939.1939,0,0,0-.1064.0371,2.61,2.61,0,0,1-.2554.1553c-.1.0537-.2007.1035-.3037.15s-.2007.0849-.293.1172a.7231.7231,0,0,1-.2236.0488,1.0955,1.0955,0,0,1-.4209-.0918.6552.6552,0,0,1-.3252-.2725.69.69,0,0,1-.08-.1826.8271.8271,0,0,1-.0268-.2246.5763.5763,0,0,1,.0693-.2783,1.2141,1.2141,0,0,1,.165-.2354,1.8969,1.8969,0,0,1,.3409-.2842,3.9932,3.9932,0,0,1,.4316-.246,5.0211,5.0211,0,0,1,.4741-.2032q.2454-.0907.4795-.1552.1809-.0426.1919-.1612.01-.0849.0161-.208c.0034-.082.0054-.1738.0054-.2734,0-.086-.0039-.1787-.0108-.2783a.99.99,0,0,0-.059-.2784.5662.5662,0,0,0-.1392-.2148.3388.3388,0,0,0-.2407-.085.9925.9925,0,0,0-.3374.0694,3.0228,3.0228,0,0,0-.375.1709q-.1875.1025-.3584.2089c-.1143.0713-.2144.129-.3.1719a.095.095,0,0,1-.0806.0049c-.0176-.0107-.0122-.0478.0161-.1123a1.01,1.01,0,0,1,.1445-.2568.6766.6766,0,0,1,.209-.1827q.2249-.1171.5088-.2568a5.3942,5.3942,0,0,1,.5191-.2246,1.7613,1.7613,0,0,1,.623-.1494Zm-.9873,3.6826a1.0758,1.0758,0,0,0,.2949-.0527.6232.6232,0,0,0,.2622-.14.4646.4646,0,0,0,.1929-.3642c.0068-.0782.0141-.1709.0209-.2784s.0142-.2138.0215-.3212q0-.1173-.1391-.085a3.2682,3.2682,0,0,0-.5034.1172,1.8841,1.8841,0,0,0-.4175.1719.7627.7627,0,0,0-.2246.1757.3919.3919,0,0,0-.086.2627.4274.4274,0,0,0,.166.3692.6149.6149,0,0,0,.4019.1445Z"/><path class="cls-1" d="M17.2534,76.8374a.1928.1928,0,0,0-.0854.0156c-.0215.0107-.0323.042-.0323.0918a2.8582,2.8582,0,0,0-.0268.4014q-.0051.2841-.0269.7978-.0211.5772-.0156.9688a3.1047,3.1047,0,0,0,.0264.4765.9616.9616,0,0,0,.0591.1817.4475.4475,0,0,0,.0908.14c.0288.043,0,.0928-.0855.1494a1.3915,1.3915,0,0,1-.1606.0918q-.0968.0469-.2036.0909c-.0713.0283-.1372.0517-.1978.0693a.5773.5773,0,0,1-.1553.0264c-.0786,0-.1284-.0655-.15-.1973a2.8809,2.8809,0,0,1-.0322-.4551q0-.2681.0108-.6055t.0268-.69q.0162-.353.0371-.7178.0213-.3632.043-.706c.0068-.0859-.0215-.1289-.0855-.1289a2.077,2.077,0,0,0-.2573.0156.4559.4559,0,0,0-.1924.06c-.0361.0136-.059.0127-.07-.0059s-.0019-.0508.0269-.1006a1.1556,1.1556,0,0,1,.1821-.2041,1.0778,1.0778,0,0,1,.3423-.2041c.0644-.0215.0967-.0566.0967-.1074a3.48,3.48,0,0,1,1.6167-2.7822,2.4324,2.4324,0,0,1,.52-.252,1.2514,1.2514,0,0,1,.3691-.07.5011.5011,0,0,1,.37.1338.3731.3731,0,0,1,.1337.252.3643.3643,0,0,1-.1284.2461,1.5387,1.5387,0,0,1-.2251.1923c-.0713.05-.125.0577-.1606.0215a.7034.7034,0,0,0-.2407-.166.75.75,0,0,0-.3052-.0693.7408.7408,0,0,0-.439.1455,1.3076,1.3076,0,0,0-.3535.3916,2.6555,2.6555,0,0,0-.2837.8926q-.07.495-.1015.9785c-.0074.0937.0249.1435.0961.1513.1358.0137.2784.0245.4283.0313s.3071.0107.4712.0107a2.4981,2.4981,0,0,0,.3481-.0215c.1035-.0136.1836-.0283.2407-.0419.1216-.0362.125.0136.0108.1474a.6612.6612,0,0,1-.2515.1826,1.5989,1.5989,0,0,1-.3428.1045,3.5172,3.5172,0,0,1-.38.0528c-.1289.0107-.2465.0156-.3535.0156Z"/><path class="cls-1" d="M20.627,80.2749a1.5043,1.5043,0,0,1-.7764-.2256,1.1589,1.1589,0,0,1-.52-.7275,2.4528,2.4528,0,0,1-.0962-.7393,2.5313,2.5313,0,0,1,1.0815-2.0664,2.8367,2.8367,0,0,1,.5781-.3213,1.5844,1.5844,0,0,1,.61-.1289.869.869,0,0,1,.5405.1455.97.97,0,0,1,.2734.3047,1.17,1.17,0,0,1,.1177.3691,1.2552,1.2552,0,0,1,.0215.295.0861.0861,0,0,0,.0317.0752.2943.2943,0,0,0,.1607,0c.0713-.0147.1089-.002.1128.0371s-.0235.08-.0806.123a1.6565,1.6565,0,0,1-.2837.1553,3.4,3.4,0,0,1-.5088.1767q-.15.0426-.353.0909t-.4233.0966c-.146.0323-.2945.0645-.4444.0967s-.2924.0625-.4282.0908a.4023.4023,0,0,0-.1606.0537c-.0284.0206-.0425.0674-.0425.1387a1.4257,1.4257,0,0,0,.2837.9854,1.1237,1.1237,0,0,0,.9472.3642,2.2531,2.2531,0,0,0,.7925-.1445,2.19,2.19,0,0,0,.6426-.3594c.0283-.0283.05-.0351.0645-.0215a.0923.0923,0,0,1,.0156.0752.3792.3792,0,0,1-.0371.1231.4115.4115,0,0,1-.086.123,2.3135,2.3135,0,0,1-.3584.2842,3.2165,3.2165,0,0,1-.4926.2627,3.7622,3.7622,0,0,1-.5728.1924,2.4756,2.4756,0,0,1-.6.0752Zm.46-3.77a.64.64,0,0,0-.3159.0859.9935.9935,0,0,0-.2837.24,1.8536,1.8536,0,0,0-.23.3643,1.7121,1.7121,0,0,0-.1445.4443c-.0215.0928.0283.1289.15.1074q.0966-.01.2407-.0322c.0967-.0146.2-.0322.3106-.0537s.2231-.0439.3374-.0693.2212-.0479.3213-.0694q.2673-.0644.2675-.2461a.8126.8126,0,0,0-.0214-.2578.6983.6983,0,0,0-.0962-.2353.5735.5735,0,0,0-.5245-.2783Zm1.1563-2.4307c.0786,0,.1108.0283.0961.0859a.5877.5877,0,0,1-.0747.1709,1.9493,1.9493,0,0,1-.1821.2461c-.0786.0928-.1606.1865-.2461.2783-.0859.0938-.1714.1846-.2573.2735s-.1607.1621-.2246.22a1.233,1.233,0,0,1-.5357.2568c-.0786.0215-.12.0147-.123-.0214s.0229-.086.0806-.15a1.3051,1.3051,0,0,0,.1284-.1767c.0571-.09.1176-.1856.1821-.2891s.1245-.209.1816-.3164.1-.1924.1289-.2568a.3016.3016,0,0,1,.1016-.1231.6893.6893,0,0,1,.1553-.0693,1.7281,1.7281,0,0,1,.3052-.0918,1.4592,1.4592,0,0,1,.2729-.0371Z"/></g></g><line id="TrennLinie" class="cls-2" x1="0.75" y1="69.488" x2="182.25" y2="69.488"/><path class="cls-3" d="M25.6367,27.43c.2637,0,.3965.1879.3965.561A12.2075,12.2075,0,0,1,25.92,29.45a13.0741,13.0741,0,0,1-.34,1.7388,2.59,2.59,0,0,0-.0562.5048V32.03c0,.374.15.56.4527.56a1.3438,1.3438,0,0,0,.5659-.168,15.252,15.252,0,0,1,7.3-2.2436,5.906,5.906,0,0,1,3.9331,1.2622,4.03,4.03,0,0,1,1.4995,3.2251,6.5308,6.5308,0,0,1-.4243,2.2715,7.95,7.95,0,0,1-1.2168,2.1592q-.51.6731-1.16,1.3745t-1.4428,1.43q-1.4158,1.3463-2.462,2.1592-1.048.8138-2.5185,1.7671-1.1323.7859-1.1314,1.2334,0,.5054,1.1314,1.01,8.6586,3.7587,8.6587,8.9746a8.6419,8.6419,0,0,1-.7925,3.6738,9.7518,9.7518,0,0,1-5.3477,5.0195,10.5911,10.5911,0,0,1-3.9331.73,11.7469,11.7469,0,0,1-7.3569-2.6367,14.8523,14.8523,0,0,1-2.15-1.9912A2.816,2.816,0,0,1,18.28,60.354a.4565.4565,0,0,1,.0844-.28c.0567-.0742.1221-.168.1983-.28l1.4712-1.6269q.3956-.4482.6225-.4483.3956,0,.6226.8975a9.9723,9.9723,0,0,0,2.8862,4.15A10.503,10.503,0,0,0,26.74,64.5893a6.0918,6.0918,0,0,0,2.5752.5323A5.9392,5.9392,0,0,0,33.39,63.7759a4.4816,4.4816,0,0,0,1.5284-3.5332A5.3394,5.3394,0,0,0,33.1353,56.4,14.6861,14.6861,0,0,0,27.9,53.3432l-2.15-.7851q-2.0369-.7281-2.0371-1.7949a5.0125,5.0125,0,0,1,.085-.7295,5.08,5.08,0,0,1,.2543-.9532,3.431,3.431,0,0,1,1.4717-2.1875l1.2447-.6728a20.6272,20.6272,0,0,0,2.7163-1.8511,22.48,22.48,0,0,0,2.32-2.0752,10.334,10.334,0,0,0,1.7261-2.664,6.6051,6.6051,0,0,0,.7075-2.6646A3.5084,3.5084,0,0,0,33.22,34.2734a3.9794,3.9794,0,0,0-2.83-.9536,8.7493,8.7493,0,0,0-4.6972,1.458,1.5146,1.5146,0,0,0-.6226.6734,14.5337,14.5337,0,0,0-.5093,2.019q-.3392,1.6275-.6225,2.8887t-.5943,2.44q-.3112,1.1778-.6787,2.3276-.3692,1.15-.8208,2.5518-.6789,2.0757-1.33,3.7305t-1.3867,3.1406q-.736,1.4868-1.5845,2.917T15.62,60.4106a24.3456,24.3456,0,0,1-3.7915,4.291,5.2321,5.2321,0,0,1-3.1123,1.542,2.542,2.542,0,0,1-2.2637-1.57,8.5918,8.5918,0,0,1-.8491-4.0947q0-.9522.0567-1.7383a9.6832,9.6832,0,0,1,.2265-1.5146,24.7875,24.7875,0,0,1,1.8389-5.4131,39.4244,39.4244,0,0,1,2.9712-5.356q.7346-1.0649,1.6977-2.2436.9616-1.1778,2.0655-2.3555t2.2636-2.3q1.1595-1.1214,2.3487-2.0752.2826-.28.396-.4209a1.65,1.65,0,0,0,.2265-.5327c.0371-.2612.0752-.5049.1133-.729s.0752-.43.1133-.6172q0-.3361.1694-2.1314.1128-.9528.1983-1.8789a11.7563,11.7563,0,0,1,.1982-1.43,1.34,1.34,0,0,1,.2544-.5889,2.4856,2.4856,0,0,1,.7075-.3647l3.5088-1.29.2827-.1123A1.2877,1.2877,0,0,1,25.6367,27.43ZM18.7329,39.7138q-.34,0-1.3867,1.01a28.0485,28.0485,0,0,0-2.3486,2.6358,32.805,32.805,0,0,0-5.1495,9.143,34.27,34.27,0,0,0-1.3017,4.374,17.27,17.27,0,0,0-.5093,3.6465,10.8842,10.8842,0,0,0,.1133,1.57,9.1691,9.1691,0,0,0,.2827,1.3457q.2256.8981,1.415.8975,1.5836,0,3.3956-3.1406a29.2016,29.2016,0,0,0,1.4711-3.169q.6791-1.7109,1.3584-4.0664.2248-.7851.5093-1.8789.282-1.0943.6221-2.44.3956-1.626.6792-2.832t.4526-2.16l.6226-3.4214a1.37,1.37,0,0,0,.1133-.5044v-.5049Q19.0723,39.7134,18.7329,39.7138Z"/><path class="cls-3" d="M38.8223,65.3462a.7785.7785,0,0,1,.0566-.3369,1.0436,1.0436,0,0,1,.0566-.336L40.69,54.4653a1.2776,1.2776,0,0,1,1.1319-1.1221l2.8862-.4482a.3832.3832,0,0,0,.1694-.0283.2522.2522,0,0,1,.1133-.0283q.4527,0,.4527.5615a3.34,3.34,0,0,1-.1128.56c-.0762.336-.1514.6641-.2266.9815a3.3678,3.3678,0,0,0-.1133.7011c0,.3.1133.4483.34.4483a.4333.4333,0,0,0,.311-.14,3.4248,3.4248,0,0,0,.4243-.6455,7.0469,7.0469,0,0,1,1.6411-1.9629,2.8913,2.8913,0,0,1,1.7544-.7851,1.5816,1.5816,0,0,1,1.3867.7012,3.5032,3.5032,0,0,1,.481,1.9912,7.5571,7.5571,0,0,1-.2266,1.8506,5.49,5.49,0,0,1-.5659,1.7949,1.2378,1.2378,0,0,1-.4526.3642,9.3726,9.3726,0,0,1-.9053.3653q-1.1331.3925-1.5.4765a2.9881,2.9881,0,0,1-.65.084c-.3027,0-.4531-.1308-.4531-.3926a1.8114,1.8114,0,0,1,.0566-.4482l.0567-.3369a.8922.8922,0,0,1,.0283-.2246.7634.7634,0,0,0,.0283-.168q0-.5053-.4526-.5049-.6232,0-1.5279,1.8789a26.2362,26.2362,0,0,0-1.6411,4.6836,2.2623,2.2623,0,0,1-.4531.9815,1.3329,1.3329,0,0,1-.8486.1963H39.5581Q38.8221,65.8511,38.8223,65.3462Z"/><path class="cls-3" d="M66.834,53.3432a5.5792,5.5792,0,0,1-.1133.6729l-1.2451,5.0478a10.4524,10.4524,0,0,0-.2827,1.459,11.6351,11.6351,0,0,0-.0567,1.1778q0,.8979.5093.8974a1.7422,1.7422,0,0,0,1.2168-.7851,7.8633,7.8633,0,0,0,1.16-2.02c.1128-.2607.2446-.3925.396-.3925.3012,0,.4526.1679.4526.5048A2.6152,2.6152,0,0,1,68.5034,61a7.69,7.69,0,0,1-.8208,1.2617,13.0344,13.0344,0,0,1-1.3862,1.29,12.4874,12.4874,0,0,1-1.5845,1.0938,9.6,9.6,0,0,1-1.6133.7578,4.1791,4.1791,0,0,1-1.3579.28,1.5755,1.5755,0,0,1-1.16-.4209,1.472,1.472,0,0,1-.4243-1.0938v-.2246a6.5931,6.5931,0,0,1,.0849-1.0371q.0843-.5332.1411-.87a4.7075,4.7075,0,0,0,.1133-.5039.2989.2989,0,0,0-.3393-.3369.5878.5878,0,0,0-.3682.1679,10.4583,10.4583,0,0,0-.82.8975,14.0274,14.0274,0,0,1-2.773,2.4678,5.4456,5.4456,0,0,1-1.3584.7851,4.2157,4.2157,0,0,1-1.3012.169q-2.0948,0-2.0943-2.1875a13.0767,13.0767,0,0,1,.1416-1.711,22.7847,22.7847,0,0,1,.5943-2.7207q.5089-2.187.6225-2.58c.15-.709.2827-1.28.396-1.71a7.7567,7.7567,0,0,1,.3115-.9814,1.1472,1.1472,0,0,1,.2828-.4493.9961.9961,0,0,1,.4243-.1679l2.7163-.3926h.2832q.9045,0,.9053.5605a1.3907,1.3907,0,0,1-.1695.6172l-.4531,1.795q-.1692.7294-.2827,1.1494a3.8173,3.8173,0,0,1-.17.5332,2.7648,2.7648,0,0,0-.1412.56q-.0849.45-.2548,1.1777-.2271.9552-.3111,1.4307a4.7589,4.7589,0,0,0-.0849.8135.5469.5469,0,0,0,.6225.6162q.7918,0,1.98-1.4014a11.6772,11.6772,0,0,0,1.5278-2.3q.5655-1.0092,1.1035-2.1592t.7076-1.6552A2.7588,2.7588,0,0,0,62.335,54.1a.978.978,0,0,1,.0849-.252l.1695-.3369a.9317.9317,0,0,1,.6792-.28l2.603-.4482a.33.33,0,0,1,.2265-.0566C66.5879,52.7261,66.834,52.9321,66.834,53.3432Z"/><path class="cls-3" d="M74.5869,66.188a4.9188,4.9188,0,0,1-3.6216-1.3467,4.6815,4.6815,0,0,1-1.3584-3.4776,8.2106,8.2106,0,0,1,.6509-3.2246,9.8338,9.8338,0,0,1,1.7261-2.749,8.586,8.586,0,0,1,2.49-1.9346,6.2391,6.2391,0,0,1,2.8858-.7294,4.2971,4.2971,0,0,1,1.6977.3369,4.3937,4.3937,0,0,1,1.3867.9257,4.2654,4.2654,0,0,1,.9336,1.4014,4.3986,4.3986,0,0,1,.34,1.711q0,1.5717-1.1885,1.7392l-1.6411.28h-.34a.3982.3982,0,0,1-.4526-.4492,4.4885,4.4885,0,0,1,.17-.5606,5.5729,5.5729,0,0,0,.5376-1.3183,4.533,4.533,0,0,0,.1416-1.0371,1.7007,1.7007,0,0,0-.3115-1.0381.9248.9248,0,0,0-.7642-.4209,1.9886,1.9886,0,0,0-1.4145.87A11.48,11.48,0,0,0,74.9834,57.55a10.6363,10.6363,0,0,0-.4248,1.1211q-.1984.6182-.3677,1.2343-.17.6183-.2827,1.1778a4.7232,4.7232,0,0,0-.1133.8974q0,2.5241,2.15,2.5245a4.227,4.227,0,0,0,2.2637-.5616,9.3439,9.3439,0,0,0,2.207-2.3c.2266-.2607.4146-.3926.5659-.3926a.2493.2493,0,0,1,.2827.2813,2.3431,2.3431,0,0,1-.1127.3926l-.2266.7851a4.2789,4.2789,0,0,1-1.4146,1.57A7.949,7.949,0,0,1,74.5869,66.188Z"/><path class="cls-3" d="M89.81,30.9638l2.9428-.28a.1129.1129,0,0,0,.0845-.0283.2283.2283,0,0,1,.1416-.0279.5481.5481,0,0,1,.6226.6172,1.3042,1.3042,0,0,1-.0284.2524,1.5168,1.5168,0,0,0-.0283.3082L88.6782,54.2964a3.1066,3.1066,0,0,0-.0566.6172q0,.45.3393.4492a.9786.9786,0,0,0,.4532-.169c.0371-.0361.1128-.1025.226-.1963s.2637-.2138.4527-.3642a6.9429,6.9429,0,0,1,4.414-1.9072,3.346,3.346,0,0,1,2.462.87,3.2827,3.2827,0,0,1,.8769,2.4394,4.349,4.349,0,0,1-.99,2.6084,5.8141,5.8141,0,0,1-2.5181,1.9346A5.5431,5.5431,0,0,0,93.46,61a.4284.4284,0,0,0-.1978.3642,1.15,1.15,0,0,0,.1694.5333,4.8518,4.8518,0,0,0,.6226.8134l.8491.9532,1.0752,1.01.3394.4483a.454.454,0,0,1,.2265.3369q0,.3926-1.1318.3926H92.13a2.4777,2.4777,0,0,0-.4527-.0557h-.2832a1.888,1.888,0,0,1-1.0185-.7861l-.6226-.6729-1.0185-1.1211a6.902,6.902,0,0,0-.8208-.87.7269.7269,0,0,0-.4244-.14q-.3962,0-.6225.9532l-.396,1.57-.1133.5049q-.17.6181-1.1318.6172H82.7925q-1.0181,0-1.0186-.5606v-.2246a1.0424,1.0424,0,0,1,.0567-.3369l.0566-.28,6.9043-32.5874A1.0231,1.0231,0,0,1,89.81,30.9638Zm-2.0372,28.774q0,.7294,1.1319.7285a5.3464,5.3464,0,0,0,3.1123-.8975,2.61,2.61,0,0,0,1.3017-2.1875,1.0648,1.0648,0,0,0-.4531-.8974,1.7563,1.7563,0,0,0-1.0752-.336,3.38,3.38,0,0,0-1.6977.5323,4.8421,4.8421,0,0,0-1.5279,1.4306A3.5271,3.5271,0,0,0,87.7729,59.7378Z"/><path class="cls-3" d="M103.957,58.1108c0,.2617.0933.3926.2827.3926a.5323.5323,0,0,0,.3394-.1406,9.9282,9.9282,0,0,0,.7925-.8692,18.3565,18.3565,0,0,1,3.5371-3.3086,5.6236,5.6236,0,0,1,3.0273-1.1787q2.0932,0,2.0933,2.4121a3.7344,3.7344,0,0,1-.0557.7852l-.17.6728-.1133.5049v.2246c0,.337.0938.5049.2832.5049a.3954.3954,0,0,0,.2549-.1406q.1407-.1392.707-.8691a13.8769,13.8769,0,0,1,3.1133-3.0284,5.3421,5.3421,0,0,1,2.8848-1.122,2.5343,2.5343,0,0,1,1.8672.6728,2.5665,2.5665,0,0,1,.68,1.9072,6.1375,6.1375,0,0,1-.2266,1.795c-.0371.1875-.1035.4765-.1973.8691q-.1436.5889-.4238,1.5986-.2284.8409-.3125,1.29a2.8414,2.8414,0,0,1-.1406.56,2.6718,2.6718,0,0,0-.17.7852c0,.4873.17.73.51.73q.5069,0,1.2168-.8975a7.0435,7.0435,0,0,0,1.1035-2.0185q.1671-.5055.4512-.5049.624,0,.6231,1.1777a2.4674,2.4674,0,0,1-.68,1.29,11.1,11.1,0,0,1-1.6406,1.626,11.8521,11.8521,0,0,1-2.377,1.5713,4.945,4.945,0,0,1-2.0938.6162,2.0166,2.0166,0,0,1-1.5273-.5888,2.1254,2.1254,0,0,1-.5664-1.542,8.75,8.75,0,0,1,.1973-1.459q.1992-1.0093.6523-2.6358a18.2706,18.2706,0,0,0,.48-1.7666,4.5343,4.5343,0,0,0,.084-.7578c0-.4853-.17-.7285-.5079-.7285q-.624,0-1.6425,1.0654c-.5645.5987-1.0567,1.15-1.4707,1.6543a13.5512,13.5512,0,0,0-1.1035,1.543,16.1989,16.1989,0,0,0-.9053,1.7109q-.4248.9245-.8775,2.1592a3.0734,3.0734,0,0,1-.4809.9815,1.0981,1.0981,0,0,1-.7642.1963h-2.66q-.9626,0-.962-.6172a1.7858,1.7858,0,0,1,.1133-.4483l1.3579-6.17a.9578.9578,0,0,1,.1133-.28,2.6747,2.6747,0,0,0,.0566-.6172c0-.4111-.1894-.6171-.5659-.6171a2.7923,2.7923,0,0,0-1.6411,1.01q-.4533.45-.8208.8418a7.8144,7.8144,0,0,0-.65.7852q-.34.45-.7358,1.0937t-.8491,1.43a22.6228,22.6228,0,0,0-1.0752,2.0752l-.2261.6172a2.01,2.01,0,0,1-.4243.73,1.1177,1.1177,0,0,1-.7075.168H98.7505a.8827.8827,0,0,1-.6226-.168.9692.9692,0,0,1-.17-.6738v-.3926l2.207-10.0957a1.2878,1.2878,0,0,1,.34-.7012,1.7918,1.7918,0,0,1,.792-.3086l2.7163-.3926h.1133q.8489,0,.8491.6172V53.96l-.9058,3.6455-.1128.337Z"/><path class="cls-3" d="M142.3818,53.2876a.5464.5464,0,0,1,.1133.3926,1.5415,1.5415,0,0,1-.0566.3359l-.0567.3369L140.74,60.018c-.1132.4122-.2265.8506-.3388,1.3184a4.9406,4.9406,0,0,0-.17.9815q0,.7851.5088.7851a1.5225,1.5225,0,0,0,.7364-.28,4.5438,4.5438,0,0,0,.8486-.8418,5.8462,5.8462,0,0,0,.6221-.9531,4.6624,4.6624,0,0,1,.4814-.87.5925.5925,0,0,1,.4805-.252c.1885,0,.2832.1319.2832.3926a3.0329,3.0329,0,0,1-.7354,1.9629,13.1856,13.1856,0,0,1-3.1689,2.6084,6.0668,6.0668,0,0,1-2.8867.9815,2.1123,2.1123,0,0,1-1.5557-.5889,2.3022,2.3022,0,0,1-.5947-1.711v-.5605q0-.3369-.2832-.3369a.779.779,0,0,0-.4522.28,10.9373,10.9373,0,0,1-2.4052,2.0752,4.4571,4.4571,0,0,1-2.2354.8418,2.46,2.46,0,0,1-2.1221-1.2344,5.5517,5.5517,0,0,1-.82-3.1406,8.468,8.468,0,0,1,1.2451-4.3184,11.2715,11.2715,0,0,1,1.3291-1.7109,9.1249,9.1249,0,0,1,1.6133-1.3741,8.9291,8.9291,0,0,1,1.7256-.8974,4.6558,4.6558,0,0,1,1.67-.3369,4.0084,4.0084,0,0,1,1.8672.5048l.68.337a.825.825,0,0,0,.5088.1679,1.0246,1.0246,0,0,0,.51-.1679l.5087-.337a1.55,1.55,0,0,1,.6231-.2246h2.6025A1.1058,1.1058,0,0,1,142.3818,53.2876Zm-10.6963,8.3847a1.0106,1.0106,0,0,0,.85.4766q1.2436,0,2.7724-2.1875a11.4186,11.4186,0,0,0,1.0186-1.7666,3.6391,3.6391,0,0,0,.3965-1.2061v-.0556a.3777.3777,0,0,0-.17-.3369.4372.4372,0,0,1-.17-.0557,1.8738,1.8738,0,0,0-.34-.1123.7383.7383,0,0,1-.4522-.7852v-.1679q0-1.065-.68-1.0664a1.8747,1.8747,0,0,0-.8486.28,3.0979,3.0979,0,0,0-.8486.6739,7.5562,7.5562,0,0,0-1.33,2.2715,7.2963,7.2963,0,0,0-.5371,2.664v.168A2.0326,2.0326,0,0,0,131.6855,61.6723Z"/><path class="cls-3" d="M150.6992,57.7739a.4267.4267,0,0,0,.2549-.1113,7.365,7.365,0,0,0,.5947-.6172,6.8453,6.8453,0,0,1,.7354-.8975q1.1308-1.2333,1.7256-1.7666a7.878,7.878,0,0,1,1.3867-.9814,7.6275,7.6275,0,0,1,1.33-.6172,3.4977,3.4977,0,0,1,1.1035-.2246,2.2726,2.2726,0,0,1,1.7539.6728,2.5417,2.5417,0,0,1,.623,1.795,10.0189,10.0189,0,0,1-.17,1.5146,16.4092,16.4092,0,0,1-.3965,1.7949l-.5088,1.795q-.17.6166-.2832,1.2617a6.103,6.103,0,0,0-.1132.9814c0,.4492.15.6729.4531.6729q1.188,0,2.4326-3.0284.2256-.561.51-.5615.4526,0,.4531.8418a1.72,1.72,0,0,1-.17.7852,7.624,7.624,0,0,1-.68,1.01c-.2637.3-.49.5606-.6787.7852s-.3594.4307-.51.6172a9.0918,9.0918,0,0,1-2.2637,1.7383,4.7589,4.7589,0,0,1-2.207.6728,1.8822,1.8822,0,0,1-1.499-.6162,2.4692,2.4692,0,0,1-.5381-1.6826v-.169c0-.2236.0088-.4384.0283-.6445a5.412,5.412,0,0,1,.085-.5889q.0557-.2241.2265-.8691t.4532-1.7676q.2813-1.12.3671-1.71a6.8818,6.8818,0,0,0,.085-.9258c0-.4111-.1514-.6172-.4521-.6172a2.5387,2.5387,0,0,0-1.585.8418,13.4227,13.4227,0,0,0-1.8672,2.2432q-.3969.6182-.708,1.122c-.207.336-.415.711-.6221,1.1211q-.312.6182-.623,1.4024-.3105.7866-.707,1.8515a2.0388,2.0388,0,0,1-.4249.7852,1.0009,1.0009,0,0,1-.65.168h-2.15c-.5293,0-.792-.1866-.792-.5606v-.5049a.5034.5034,0,0,0,.0566-.2246.9082.9082,0,0,1,.0567-.28l1.5273-9.4795a2.5516,2.5516,0,0,1,.2832-.9248.9708.9708,0,0,1,.5654-.3652l3.1133-.5605h.0567c.4892,0,.7353.2617.7353.7851V53.96a.934.934,0,0,1-.0283.2246c-.0195.0752-.0479.1875-.085.336l-.51,2.4677a.8779.8779,0,0,1-.0284.2247.938.938,0,0,0-.0273.2246C150.417,57.6626,150.5107,57.7739,150.6992,57.7739Z"/><path class="cls-3" d="M169.0342,57.7739a.427.427,0,0,0,.2549-.1113,7.3821,7.3821,0,0,0,.5947-.6172,6.8421,6.8421,0,0,1,.7353-.8975q1.1308-1.2333,1.7256-1.7666a7.878,7.878,0,0,1,1.3867-.9814,7.6342,7.6342,0,0,1,1.33-.6172,3.4982,3.4982,0,0,1,1.1035-.2246,2.2724,2.2724,0,0,1,1.7539.6728,2.5413,2.5413,0,0,1,.6231,1.795,10.0189,10.0189,0,0,1-.17,1.5146,16.4092,16.4092,0,0,1-.3965,1.7949l-.5088,1.795q-.17.6166-.2832,1.2617a6.094,6.094,0,0,0-.1133.9814c0,.4492.15.6729.4531.6729q1.188,0,2.4327-3.0284.2255-.561.51-.5615.4527,0,.4531.8418a1.719,1.719,0,0,1-.17.7852,7.6138,7.6138,0,0,1-.68,1.01c-.2636.3-.49.5606-.6787.7852s-.3593.4307-.51.6172a9.0937,9.0937,0,0,1-2.2637,1.7383,4.7589,4.7589,0,0,1-2.207.6728,1.8824,1.8824,0,0,1-1.4991-.6162,2.47,2.47,0,0,1-.5381-1.6826v-.169c0-.2236.0088-.4384.0284-.6445a5.3879,5.3879,0,0,1,.0849-.5889c.0371-.1494.1133-.4394.2266-.8691s.2637-1.0185.4531-1.7676q.2813-1.12.3672-1.71a6.8985,6.8985,0,0,0,.085-.9258c0-.4111-.1514-.6172-.4522-.6172a2.5388,2.5388,0,0,0-1.5849.8418,13.4179,13.4179,0,0,0-1.8672,2.2432q-.3971.6182-.708,1.122c-.2071.336-.4151.711-.6221,1.1211q-.312.6182-.6231,1.4024-.3105.7866-.707,1.8515a2.04,2.04,0,0,1-.4248.7852,1.0011,1.0011,0,0,1-.65.168h-2.15c-.5293,0-.792-.1866-.792-.5606v-.5049a.5036.5036,0,0,0,.0567-.2246.9076.9076,0,0,1,.0566-.28l1.5274-9.4795a2.5516,2.5516,0,0,1,.2832-.9248.97.97,0,0,1,.5654-.3652l3.1133-.5605h.0566c.4893,0,.7354.2617.7354.7851V53.96a.9292.9292,0,0,1-.0284.2246c-.0195.0752-.0478.1875-.0849.336l-.51,2.4677a.8822.8822,0,0,1-.0283.2247.933.933,0,0,0-.0273.2246C168.752,57.6626,168.8457,57.7739,169.0342,57.7739Z"/><path class="cls-4" d="M108.6958,46.1826a9.4042,9.4042,0,0,0,1.4912-.1177,5.6891,5.6891,0,0,0,1.2964-.3535c.1006-.043.1475-.0176.14.0752a.64.64,0,0,1-.2485.353,3.388,3.388,0,0,1-.918.5464,6.3563,6.3563,0,0,1-1.07.32,8.5609,8.5609,0,0,1-1.1343.1612q-.5727.0425-1.1128.0429c-.4033,0-.7422-.0078-1.0156-.0215s-.5112-.0293-.7129-.0429a1.331,1.331,0,0,0-.5835.0429c-.0864.0284-.1875.0567-.3027.086a1.2307,1.2307,0,0,1-.2808.042q-.1728,0-.2807-.2783a1.0961,1.0961,0,0,1-.1079-.3956q-.022-.2249-.022-.4819,0-.4284.0542-1.2637t.1406-1.6919q.1077-1.0275.1729-2.1948t.0864-2.2378a10.324,10.324,0,0,0-.0327-1.2529,1.4678,1.4678,0,0,0-.2486-.8247.1006.1006,0,0,1-.0322-.0962q.0109-.0534.1406-.1392.1509-.0856.3672-.2036c.1441-.0781.2808-.15.4107-.2138s.2485-.1182.3564-.1607a.8084.8084,0,0,1,.2051-.0644.333.333,0,0,1,.3027.2143,1.5027,1.5027,0,0,1,.1406.5137,6.2508,6.2508,0,0,1,.0323.6641v.6425q-.0221.8138-.0864,1.81t-.1514,2.1309q-.0432.8994-.0972,1.7343t-.0542,1.2422a1.3207,1.3207,0,0,0,.2593.9424,1.3775,1.3775,0,0,0,.7563.3428q.4322.0637.9292.0962t1.1885.0322Z"/><path class="cls-4" d="M116.9326,38.8369a1.143,1.143,0,0,1,.9854.6641,2.8546,2.8546,0,0,1,.2851,1.7558q-.0644.75-.1084,1.66c-.0283.6074-.0508,1.16-.0644,1.66a6.1639,6.1639,0,0,0,.0107.8354,1.007,1.007,0,0,0,.1836.5352.8635.8635,0,0,0,.7129.3642,1.6818,1.6818,0,0,0,.4756-.0854,1.5367,1.5367,0,0,0,.4326-.1929c.0713-.043.1074-.0107.1074.0962a.4676.4676,0,0,1-.13.31,4.409,4.409,0,0,1-.3232.3316,2.4331,2.4331,0,0,1-.4541.332,2.7582,2.7582,0,0,1-.5723.2461,2.1626,2.1626,0,0,1-.6406.0977,1.103,1.103,0,0,1-.7891-.3438,2.5466,2.5466,0,0,1-.5263-.706c-.043-.0713-.086-.1109-.1289-.1182a.4014.4014,0,0,0-.2149.0752,5.2327,5.2327,0,0,1-.5156.31c-.2012.1065-.4053.2071-.6133.3s-.4043.1709-.5918.2354a1.454,1.454,0,0,1-.4511.0967,2.2281,2.2281,0,0,1-.8487-.1827,1.3087,1.3087,0,0,1-.6557-.5458,1.3634,1.3634,0,0,1-.1612-.3638,1.6709,1.6709,0,0,1-.0537-.45,1.1478,1.1478,0,0,1,.14-.5572,2.44,2.44,0,0,1,.3335-.4711,3.7257,3.7257,0,0,1,.6879-.5674,7.8121,7.8121,0,0,1,.8707-.4927,10.322,10.322,0,0,1,.957-.4067q.4937-.1817.9678-.3106c.2431-.0566.372-.1641.3867-.3213q.02-.1705.0322-.4175c.0068-.164.0107-.3462.0107-.5459,0-.1713-.0078-.3569-.0214-.5571a1.952,1.952,0,0,0-.1192-.5566,1.1122,1.1122,0,0,0-.28-.4283.6862.6862,0,0,0-.4863-.1713,1.9919,1.9919,0,0,0-.6806.1391,5.8336,5.8336,0,0,0-.7569.3428q-.3779.2035-.7236.4175t-.605.3428a.1875.1875,0,0,1-.1621.0107q-.0542-.0323.0327-.2251a2.012,2.012,0,0,1,.2915-.5137,1.3352,1.3352,0,0,1,.4214-.3642q.4527-.236,1.0264-.5142a11,11,0,0,1,1.0478-.45,3.57,3.57,0,0,1,1.2569-.3ZM114.94,46.2041a2.1328,2.1328,0,0,0,.5938-.1074,1.2426,1.2426,0,0,0,.5293-.2784.9258.9258,0,0,0,.39-.728c.0137-.1567.0283-.3428.043-.5566s.0283-.4283.043-.6426c0-.1567-.0938-.2144-.28-.1714a6.7915,6.7915,0,0,0-1.0156.2358,3.8731,3.8731,0,0,0-.8428.3423,1.533,1.533,0,0,0-.4541.3535.783.783,0,0,0-.1729.5249.853.853,0,0,0,.335.7388,1.2529,1.2529,0,0,0,.81.2891Z"/><path class="cls-4" d="M127.2988,38.8584a.6848.6848,0,0,1,.5518.2461,1.81,1.81,0,0,1,.3232.6318,3.8224,3.8224,0,0,1,.1514.8677,8.0425,8.0425,0,0,1,.0107.9311q-.0425.6864-.0966,1.6065t-.0977,1.6919a2.1956,2.1956,0,0,0,.1729,1.21.62.62,0,0,0,.5185.3321,2.0733,2.0733,0,0,0,.584-.0967,2.9529,2.9529,0,0,0,.5615-.2246c.0869-.043.1221,0,.1084.1284a.6324.6324,0,0,1-.2383.3853,4.7443,4.7443,0,0,1-1.1777.6855,2.9661,2.9661,0,0,1-1.0693.2568,1.0512,1.0512,0,0,1-.8643-.45,2.136,2.136,0,0,1-.1943-1.413c.0136-.1851.0361-.4136.0644-.6851s.0576-.5532.0869-.8462.0537-.5815.0752-.8672.04-.5493.0547-.7925c.0137-.2138.0215-.45.0215-.7065a3.2026,3.2026,0,0,0-.0762-.7173,1.432,1.432,0,0,0-.2588-.5674.6328.6328,0,0,0-.5293-.2358,1.31,1.31,0,0,0-.5947.1606,3.88,3.88,0,0,0-.626.4068,6.81,6.81,0,0,0-.5839.5141q-.27.268-.4649.482a3.455,3.455,0,0,0-.7129,1.5844q-.1509.879-.2373,1.97c-.0293.2144-.0576.4073-.0869.5787a1.3085,1.3085,0,0,1-.1728.4712,1.0088,1.0088,0,0,1-.2481.32,3.0723,3.0723,0,0,1-.3887.31,3.5156,3.5156,0,0,1-.4.2363.7593.7593,0,0,1-.3017.0957.1212.1212,0,0,1-.1192-.0634c-.0214-.043-.0039-.1436.0538-.3q.0644-.3224.1406-.8892t.1406-1.2417q.0645-.6746.1074-1.36t.044-1.2421a11.5436,11.5436,0,0,0-.0869-1.5958,1.5829,1.5829,0,0,0-.3243-.8457c-.0859-.0571-.0791-.1425.0215-.2573a3.8,3.8,0,0,1,.3135-.2676q.2051-.16.4219-.3c.1435-.0927.2773-.1713.3994-.2353a.7.7,0,0,1,.249-.0967c.1006,0,.1865.0967.2588.2891a3.2151,3.2151,0,0,1,.1621.707q.0541.4175.086.8672.0336.45.0332.771c0,.1142.0283.1748.0859.1821s.1221-.0322.1943-.1177a15.1894,15.1894,0,0,1,1.34-1.21,8.5259,8.5259,0,0,1,1.47-.9746,4.4005,4.4005,0,0,1,.626-.2461,1.7783,1.7783,0,0,1,.497-.0752Z"/><path class="cls-4" d="M132.6152,47.2964a1.6578,1.6578,0,0,1-1.2968-.6748,3.0259,3.0259,0,0,1-.5616-1.981,4.5746,4.5746,0,0,1,.7344-2.6128,8.2161,8.2161,0,0,1,1.8584-1.9487,6.6431,6.6431,0,0,1,1.707-.8779,5.2536,5.2536,0,0,1,1.7071-.3213.5938.5938,0,0,0,.2373-.0323c.0439-.0214.0722-.0888.0869-.2036q.0206-.2563.043-.61c.0146-.2354.0283-.4815.0429-.7388l.044-.771c.0136-.2568.0215-.4849.0215-.6851a7.3,7.3,0,0,0-.044-1.1562,1.4446,1.4446,0,0,0-.2373-.707.1433.1433,0,0,1,.0215-.2139,3.3755,3.3755,0,0,1,.3545-.2466q.2241-.1392.459-.2568c.1552-.0781.3008-.1465.4365-.2036a.9331.9331,0,0,1,.2666-.0855q.1275,0,.2021.2783a3.0717,3.0717,0,0,1,.086.6958q.01.4182-.0108.91t-.0439.9209q-.0411.4929-.1025,1.4351t-.1231,2.0024q-.0615,1.06-.1123,2.0234-.0528.9639-.0723,1.4781-.0219.6855-.0107,1.3276a6.9576,6.9576,0,0,0,.0977,1.1245,1.8046,1.8046,0,0,0,.3017.771.7136.7136,0,0,0,.6055.2891,2.2415,2.2415,0,0,0,.5615-.086,2.3525,2.3525,0,0,0,.584-.2353c.0713-.0572.1113-.0288.1181.0854a.45.45,0,0,1-.1621.3428,4.2775,4.2775,0,0,1-.4423.374,3.6815,3.6815,0,0,1-.5948.3643,4.2733,4.2733,0,0,1-.6806.2676,2.37,2.37,0,0,1-.6807.1084.8871.8871,0,0,1-.5723-.1827,1.3847,1.3847,0,0,1-.3672-.4609,2.6119,2.6119,0,0,1-.2158-.61q-.0762-.3318-.1191-.6318-.044-.2351-.3242-.0215-.3458.2358-.8106.5357t-.9717.5781a6.8454,6.8454,0,0,1-1.0263.46,2.9528,2.9528,0,0,1-.9727.1827Zm1.4258-1.3282a2.59,2.59,0,0,0,1.3506-.396,4.1569,4.1569,0,0,0,1.0693-.8886,1.4219,1.4219,0,0,0,.3028-.8355q.02-.3852.0429-.9316t.0547-1.1026q.0323-.5565.0645-1.0283.0323-.47.0537-.685c.0146-.1426-.0293-.2071-.13-.1929a1.2546,1.2546,0,0,1-.4424.0107,5.28,5.28,0,0,0-.6162-.0322,3.69,3.69,0,0,0-1.49.3213,3.0148,3.0148,0,0,0-1.21.9424,3.6711,3.6711,0,0,0-.5732,1.06,4.1313,4.1313,0,0,0-.2051,1.36,3.91,3.91,0,0,0,.0977.8779,2.5957,2.5957,0,0,0,.3017.771,1.6118,1.6118,0,0,0,.5293.5464,1.4347,1.4347,0,0,0,.7783.2031Z"/><path class="cls-4" d="M147.5234,38.88a1.0874,1.0874,0,0,1,.4756.1284,1.5057,1.5057,0,0,1,.7129,1.0386,6.8757,6.8757,0,0,1,.1514,1.7026c0,.1714-.0078.3931-.0215.6641s-.0322.5566-.0547.8564-.0391.5928-.0537.8779-.0293.5215-.043.7071a3.5617,3.5617,0,0,0-.0107.4921,1.7506,1.7506,0,0,0,.0752.4605.74.74,0,0,0,.206.332.534.534,0,0,0,.378.1284,1.9611,1.9611,0,0,0,.54-.0961,4.2609,4.2609,0,0,0,.67-.2676c.1006-.0572.1407-.0181.1182.1177a.6333.6333,0,0,1-.2266.375,3.9516,3.9516,0,0,1-.6806.46,6.6867,6.6867,0,0,1-.7344.3428c-.2383.0928-.45.168-.6377.2256a1.6191,1.6191,0,0,1-.41.0849.9149.9149,0,0,1-.67-.3642,1.1023,1.1023,0,0,1-.2265-.503,2.3147,2.3147,0,0,1-.0118-.6748c.044-.3711.0791-.7739.1084-1.21s.0645-.9453.1084-1.5313a4.9375,4.9375,0,0,0-.2168-2.5913.7051.7051,0,0,0-.6689-.45,1.1282,1.1282,0,0,0-.584.2036,3.43,3.43,0,0,0-.6484.5459,7.9116,7.9116,0,0,0-.6367.771,9.7442,9.7442,0,0,0-.5733.8784,6.3592,6.3592,0,0,0-.3242.6529,4.5417,4.5417,0,0,0-.2158.664c-.0576.2354-.1075.4961-.1514.7818s-.0859.6284-.1289,1.0278a1.379,1.379,0,0,1-.26.6211,3.0749,3.0749,0,0,1-.4756.5244,2.5072,2.5072,0,0,1-.5185.3535.9941.9941,0,0,1-.3887.128c-.1006,0-.1152-.1143-.043-.3418.0713-.3291.1368-.7139.1944-1.1568s.1191-.9668.1836-1.5737.126-1.3027.1836-2.0884.122-1.6846.1943-2.6982q.0864-1.37.1084-2.3345t-.0107-1.5952a5.5642,5.5642,0,0,0-.1192-.9854,1.2439,1.2439,0,0,0-.2158-.5029.3331.3331,0,0,1-.0654-.0859c-.0147-.0284.0361-.0928.1513-.1929a2.5427,2.5427,0,0,1,.3565-.2891,4.23,4.23,0,0,1,.4111-.2461c.1367-.0713.2549-.1284.3565-.1713a.655.655,0,0,1,.2158-.0645q.2152,0,.3135.3535a4.89,4.89,0,0,1,.1406.8355,9.25,9.25,0,0,1,.0322.9956q-.0117.5141-.0322.8354-.022.5355-.0547,1.2525t-.0645,1.4887q-.0321.7706-.0869,1.52t-.0966,1.3492q-.0221.3852.2373.0639c.0722-.0854.17-.2065.2919-.3637s.26-.3179.41-.482.3066-.3281.4648-.4927a4.6216,4.6216,0,0,1,.4542-.4174c.1152-.086.2548-.1929.4208-.3213a4.2123,4.2123,0,0,1,.54-.3535,5.5491,5.5491,0,0,1,.584-.2784,1.48,1.48,0,0,1,.5508-.1176Z"/><path class="cls-4" d="M155.8691,38.8369a1.1429,1.1429,0,0,1,.9854.6641,2.8546,2.8546,0,0,1,.2851,1.7558q-.0644.75-.1083,1.66t-.0645,1.66a6.18,6.18,0,0,0,.0107.8354,1.007,1.007,0,0,0,.1836.5352.8635.8635,0,0,0,.7129.3642,1.6818,1.6818,0,0,0,.4756-.0854,1.5353,1.5353,0,0,0,.4326-.1929c.0713-.043.1074-.0107.1074.0962a.468.468,0,0,1-.13.31,4.4319,4.4319,0,0,1-.3233.3316,2.4331,2.4331,0,0,1-.4541.332,2.755,2.755,0,0,1-.5722.2461,2.1633,2.1633,0,0,1-.6407.0977,1.1028,1.1028,0,0,1-.789-.3438,2.5451,2.5451,0,0,1-.5264-.706c-.043-.0713-.0859-.1109-.1289-.1182a.4009.4009,0,0,0-.2148.0752,5.247,5.247,0,0,1-.5157.31c-.2011.1065-.4052.2071-.6133.3s-.4043.1709-.5908.2354a1.4653,1.4653,0,0,1-.4511.0967,2.229,2.229,0,0,1-.85-.1827,1.3054,1.3054,0,0,1-.6552-.5458,1.3628,1.3628,0,0,1-.1621-.3638,1.7078,1.7078,0,0,1-.0537-.45,1.143,1.143,0,0,1,.1406-.5572,2.438,2.438,0,0,1,.333-.4711,3.7357,3.7357,0,0,1,.6875-.5674,7.8544,7.8544,0,0,1,.8711-.4927,10.322,10.322,0,0,1,.957-.4067q.4937-.1817.9678-.3106c.2431-.0566.3721-.1641.3867-.3213q.0206-.1705.0322-.4175t.0108-.5459c0-.1713-.0078-.3569-.0215-.5571a1.952,1.952,0,0,0-.1192-.5566,1.1132,1.1132,0,0,0-.28-.4283.6866.6866,0,0,0-.4864-.1713,1.9919,1.9919,0,0,0-.6806.1391,5.8336,5.8336,0,0,0-.7569.3428q-.3778.2035-.7236.4175t-.6045.3428a.1874.1874,0,0,1-.1621.0107q-.0542-.0323.0322-.2251a1.9843,1.9843,0,0,1,.292-.5137,1.3282,1.3282,0,0,1,.4209-.3642q.4542-.236,1.0264-.5142a11.0112,11.0112,0,0,1,1.0478-.45,3.5708,3.5708,0,0,1,1.2569-.3Zm-1.9921,7.3672a2.1322,2.1322,0,0,0,.5937-.1074A1.242,1.242,0,0,0,155,45.8183a.9252.9252,0,0,0,.39-.728c.0137-.1567.0284-.3428.043-.5566s.0283-.4283.043-.6426c0-.1567-.0938-.2144-.28-.1714a6.7915,6.7915,0,0,0-1.0156.2358,3.8516,3.8516,0,0,0-.8428.3423,1.533,1.533,0,0,0-.4541.3535.783.783,0,0,0-.1728.5249.8526.8526,0,0,0,.3349.7388,1.2529,1.2529,0,0,0,.8106.2891Z"/><path class="cls-4" d="M161.9355,47.2749a1.4321,1.4321,0,0,1-1.1884-.6426,2.5287,2.5287,0,0,1-.4532-1.606q0-.4708.0323-.9t.0537-.9209q.0645-.7492.1084-1.2846t.043-.8994a3.4831,3.4831,0,0,0-.0645-.6856.94.94,0,0,0-.2383-.4922q-.1288-.0857.1729-.3213a6.33,6.33,0,0,1,.8642-.5356,1.5346,1.5346,0,0,1,.541-.1929c.1006,0,.1758.0894.2266.2681a2.7275,2.7275,0,0,1,.0859.6528q.0119.386-.0107.7925c-.0146.2715-.0283.5-.043.6856q-.0643.5778-.13,1.413t-.0859,1.52a2.0179,2.0179,0,0,0,.3135,1.4136,1.211,1.211,0,0,0,.9609.4068,1.6107,1.6107,0,0,0,.7022-.1709,3.0643,3.0643,0,0,0,.6592-.4288,4.6981,4.6981,0,0,0,.9511-1.1132,2.3718,2.3718,0,0,0,.2481-.5142,3.2667,3.2667,0,0,0,.1191-.5566c.0137-.1285.0322-.2925.0537-.4927s.04-.4067.0537-.6211l.044-.6426c.0137-.2138.0215-.4067.0215-.5781a2.4121,2.4121,0,0,0-.0215-.5566,1.8616,1.8616,0,0,0-.1084-.4073c-.0293-.0854.0146-.1635.13-.2353a2.1976,2.1976,0,0,1,.27-.2144c.123-.0854.2559-.1709.4-.2568a3.7813,3.7813,0,0,1,.41-.2139.8258.8258,0,0,1,.3028-.0859q.2373,0,.1943.728-.0219.3216-.0752.9639t-.1191,1.3384q-.0645.6964-.1192,1.3276t-.0537.9531v.6211a3.1527,3.1527,0,0,0,.0752.6958,1.2647,1.2647,0,0,0,.27.5571.7017.7017,0,0,0,.5616.2246,2.0089,2.0089,0,0,0,.4755-.0639,1.8663,1.8663,0,0,0,.4541-.1714c.1153-.0713.18-.0537.1944.0537s-.0576.2319-.2158.3745a3.5216,3.5216,0,0,1-1.0157.6958,2.6146,2.6146,0,0,1-1.081.2686.8954.8954,0,0,1-.6045-.2041,1.4282,1.4282,0,0,1-.3779-.5147,2.83,2.83,0,0,1-.2061-.6523,5.6277,5.6277,0,0,1-.0859-.6211c0-.2427-.1016-.271-.3028-.086q-.1083.0866-.3672.3t-.583.46q-.3252.2469-.6484.4712a6.3137,6.3137,0,0,1-.5625.3535,3.6912,3.6912,0,0,1-.5938.2568,2.0532,2.0532,0,0,1-.6162.086Z"/><path class="cls-4" d="M170.2539,41.9853a1.9052,1.9052,0,0,1,.2168-.8891,3.3492,3.3492,0,0,1,.5508-.771,4.9178,4.9178,0,0,1,.7451-.6421,6.0275,6.0275,0,0,1,.8-.4819,2.668,2.668,0,0,1,.7666-.3106,2.9151,2.9151,0,0,1,.5518-.0752,1.4964,1.4964,0,0,1,.67.15.48.48,0,0,1,.3017.45.7256.7256,0,0,1-.2265.4287,1.9512,1.9512,0,0,1-.3994.3638c-.13.0571-.2168.0645-.26.0215a1.3388,1.3388,0,0,0-.4424-.2676,1.7522,1.7522,0,0,0-.6592-.1177,1.2325,1.2325,0,0,0-.8535.3745,1.1572,1.1572,0,0,0-.4.8672.8064.8064,0,0,0,.1953.5464,2.0633,2.0633,0,0,0,.5186.4175,6.1263,6.1263,0,0,0,.7559.375q.432.1816.9287.396,1.059.45,1.06,1.2851a1.8413,1.8413,0,0,1-.26.9527,3.7028,3.7028,0,0,1-.627.7925,5.0255,5.0255,0,0,1-.7881.6211,5.662,5.662,0,0,1-.7675.4174,3.98,3.98,0,0,1-1.6856.4278,2.2,2.2,0,0,1-.3994-.042,2.2327,2.2327,0,0,1-.4316-.1289,1.059,1.059,0,0,1-.3457-.2246.4481.4481,0,0,1-.1407-.3321.3209.3209,0,0,1,.086-.1923,2.0252,2.0252,0,0,1,.2168-.2251c.0859-.0782.1728-.15.2588-.2144s.1582-.1177.2158-.1606c.0869-.0713.1513-.1.1943-.0855a.2668.2668,0,0,1,.1084.0645,1.1257,1.1257,0,0,0,.5508.396,2.2155,2.2155,0,0,0,.832.1606,1.6305,1.6305,0,0,0,.5508-.0962,1.6667,1.6667,0,0,0,.4863-.2681,1.4869,1.4869,0,0,0,.3565-.4067.9836.9836,0,0,0,.1406-.5142.8665.8665,0,0,0-.248-.5781,2.4527,2.4527,0,0,0-.8321-.5351c-.2158-.086-.4541-.1822-.7129-.2891a6.2255,6.2255,0,0,1-.6914-.332A1.5579,1.5579,0,0,1,170.2539,41.9853Z"/><path id="Baum" class="cls-5" d="M65.208,47.798a5.539,5.539,0,0,1-1.7707.1753c-.5557,0-1.5187.4272-2.0939.3749a9.63,9.63,0,0,1-2.1984-.112,7.6456,7.6456,0,0,0-2.55-.0452,1.6066,1.6066,0,0,1-1.0322-.1932,9.2693,9.2693,0,0,0-1.326-.4866,12.293,12.293,0,0,0-2.43-.0956,12.5784,12.5784,0,0,1-2.8682-.3745c-.3689-.0687-1.1871.3028-1.6014.2789a1.474,1.474,0,0,1-1.0516-.5976c-.3665.1673-.8988-.03-1.6253-.08a9.3913,9.3913,0,0,1-3.2665-.3506,2.6445,2.6445,0,0,0-1.0741-.0608.3131.3131,0,0,1-.4148-.0717c-.1165-.1453-.0219-.2514.1031-.3475.2743-.21.6627-.1952.973-.3341a3.8869,3.8869,0,0,1,.4765-.1544c.0747-.0224.1842-.0349.1773-.1085-.0523-.5807.5418-.4477.8868-.5672.3889-.135.8306-.0792,1.2364-.2086a1.9694,1.9694,0,0,1,.7369.0542c.141.0185.2057.0214.2754-.1259.2082-.4377.6085-.5344,1.1369-.3262a.5071.5071,0,0,0,.3779.04,1.1521,1.1521,0,0,1,.5443-.0164,1.0515,1.0515,0,0,0,.9391-.1643.57.57,0,0,1,.7215.01.4885.4885,0,0,0,.4143.1125,6.4314,6.4314,0,0,1,1.3215-.0522c.4556.0219.9347-.2923,1.3774.0328a9.4391,9.4391,0,0,1,1.0431-.3087,4.5126,4.5126,0,0,1,1.822-.3416.7454.7454,0,0,1,.6269.2356c.1076.1428.2221.1.3312.0293a1.28,1.28,0,0,1,1.081-.0976.759.759,0,0,0,.46-.0039,3.2957,3.2957,0,0,1,1.1174.01,1.8765,1.8765,0,0,0,1.096.1026c.5452-.113.5477-.04.64-.5313.1375-.7325.0165-1.9843.1135-2.7193.0643-.496.0981-1.5043.2251-1.9943a.6886.6886,0,0,0-.0463-.53,2.6764,2.6764,0,0,1-.2778-1.48,1.077,1.077,0,0,0-.6066-.9595,2.1953,2.1953,0,0,1-.5716-.5572,1.2115,1.2115,0,0,0-.248-.2595c-1.1123-.8071-.833-1.3105-2.282-1.5182a25.78,25.78,0,0,0-2.9454-.1464c-.0772-.003-.1713-.0264-.22.0379-.0652.0861.0274.1449.0911.1991.1853.1614.3431.3207.1848.5612-.0588.0877.0568.1365.1051.2012.2594.3271.1673.58-.2709.6737-.1733.0383-.1888.1105-.2012.234a.8026.8026,0,0,1-.832.743.7892.7892,0,0,1-.7669-.6623c-.0428-.3475-.5154-.4516-.5368-.7962-.0055-.0617-.1284-.0065-.1738.0518a1.473,1.473,0,0,1-.9157.481,1.7844,1.7844,0,0,0-.9346.4467,1.088,1.088,0,0,1-1.0258.3739.8614.8614,0,0,0-.8833.365c-.132.1818-.3406.3137-.4726.5124-.1434.2141-.37.128-.497-.0583a.4854.4854,0,0,0-.4192-.2465c-.2689-.0213-.3436-.24-.1957-.5058.0961-.1733.2918-.3466-.129-.4208a.25.25,0,0,1-.1867-.2455c.0219-.3555-.247-.6832-.1514-1.0472a.3283.3283,0,0,0-.1135-.3023c-.2371.2908-.64.3715-.9371.5861-.242.17-.4586.0752-.482-.2A.8121.8121,0,0,1,43.3,33.36a.3462.3462,0,0,0,.0294-.3864c-.19-.3033.0169-.46.2848-.5941.3227-.1588.4631-.4188.2888-.6782-.1808-.2609-.1105-.4163.16-.5522.0736-.0364.2006-.0652.1593-.1614-.0508-.1115-.1743-.0627-.2778-.0547-.3431.0288-.6091-.1967-.9661-.2017-.37-.003-.5243-.3028-.6169-.5891-.0224-.0657-.0608-.1493-.1454-.1493-.373-.0055-.5751-.31-.9147-.3765a.3152.3152,0,0,1-.269-.227c-.0338-.143.0708-.2405.1988-.2983a.706.706,0,0,0,.4282-.91.296.296,0,0,1,.1927-.3356,1.7606,1.7606,0,0,1,.7389-.2121c.4751-.0274.8112-.1773.8968-.614.0294-.1578.1922-.237.36-.2788.2127-.0528.4323-.0872.6469-.13a1.3689,1.3689,0,0,0-1.3271-.4725c-.1921.0328-.3869.0687-.5821.0831a.731.731,0,0,1-.826-.4964,1.5808,1.5808,0,0,0-.56-.8186c-.1135-.0782-.1792-.1928-.1229-.3.1309-.2535-.0125-.4571-.1364-.6682a1.9593,1.9593,0,0,1-.2724-.6329.226.226,0,0,0-.1649-.2047c-.4118-.1494-.4879-.4033-.2-.6951.1364-.1365.2206-.2271.0881-.4248-.1315-.1952.0543-.3271.2619-.4113.4561-.1842.5826-.41.3894-.8281-.1-.2151-.0483-.3231.1494-.4491.238-.1529.4481-.3356.6687-.5084a1.231,1.231,0,0,1,.8371-.3207c.2863.013.4257-.113.4466-.3222.02-.2285.1838-.2833.3949-.2863a2.69,2.69,0,0,1,1.1169.1957c.5442.2311.8958.1738,1.1856-.2534a.7434.7434,0,0,1,.6483-.3018,3.0551,3.0551,0,0,0,.732-.1056c-.2241-.0468-.4481-.0946-.6747-.1394a2.8178,2.8178,0,0,1-2.1108-1.7806c-.1155-.2629-.1753-.5647-.3167-.8391a.4018.4018,0,0,1,.0951-.4725,2.4068,2.4068,0,0,0,.5005-.8938.91.91,0,0,1,.4959-.5378,4.36,4.36,0,0,0,.6274-.3944,1.1153,1.1153,0,0,1,.7141-.238c.343.0045.47-.1449.2788-.367-.4755-.5557-.0463-.963.27-1.3529a4.951,4.951,0,0,0,.7494-.9576c.1648-.3485.6394-.46,1.0208-.6154a2.9838,2.9838,0,0,1,1.4739-.114c.2475.0263.3456-.023.4034-.2366a1.2462,1.2462,0,0,1,.721-.7957.436.436,0,0,0,.2918-.3625c.0313-.2968.3012-.4431.62-.5771-.5039.0234-.5338-.2992-.6269-.5482a.6785.6785,0,0,0-.4322-.4512c-.1389-.0493-.2605-.15-.1982-.2544.1579-.267.0463-.61.3291-.8331A.41.41,0,0,0,51.61,5.33a.2619.2619,0,0,1,.138-.2295,3.9073,3.9073,0,0,0,1.0491-.7395c.4073-.3689,1.0228-.4491,1.4092-.8275.1529-.15.4207-.0917.6488-.1161-.0348-.1419-.1658-.2848-.0159-.4113.1618-.1369.3162-.001.472.04.1892.0468.3854.0826.5777.1254a.3622.3622,0,0,0,.45-.1463.53.53,0,0,1,.8614.06c.115.2684.2291.2609.4716.1384.4128-.2086.4661-.1922.6568.1972.0627.127.1329.1434.2669.127.234-.03.4705-.0478.7046-.0737a1.6327,1.6327,0,0,1,1.2493.3291c.2584.2167.3192.1345.4323-.0936a2.5255,2.5255,0,0,1,.32-.6767,1.1925,1.1925,0,0,1,.9337-.4153c.2365-.001.471-.0279.7071-.0428.1782-.01.3122-.0792.3386-.23A1.5821,1.5821,0,0,1,64.597,1.15,8.9832,8.9832,0,0,1,68.476.83a3.9233,3.9233,0,0,1,2.062.9486,1.3787,1.3787,0,0,1,.475,1.1771c-.0209.37.0085.362.4367.2938a3.0806,3.0806,0,0,1,2.7149.6538,1.9665,1.9665,0,0,1,.6741,1.3719A1.6762,1.6762,0,0,1,74.535,6.71c-.1558.1727-.15.334.1608.3923a.1514.1514,0,0,1,.0369.0125c.2938.1309.5861.2933.5557.6015-.0279.3067-.3979.3745-.6523.5153a.3106.3106,0,0,1-.115.015c-.144.0055-.2391.0647-.1873.19.0583.1379.1723.0523.2624.0234.2321-.0737.4616-.1548.6952-.227a1.2788,1.2788,0,0,1,1.2807.2155c.0971.0832.1857.1679.3391.0962a3.2671,3.2671,0,0,1,2.063.0677,6.3865,6.3865,0,0,1,2.1123.8495,1.1275,1.1275,0,0,1,.5781.74c.13.5737.2415,1.15.3983,1.7194a1.2349,1.2349,0,0,1-.3191,1.2285c-.1639.1707-.16.2823.0079.4845a1.8033,1.8033,0,0,1,.3212,1.6671,1.2851,1.2851,0,0,1-1.2643,1.0979c-.126.008-.1384.1136-.1643.2022a.9108.9108,0,0,1-.966.7275c-.119-.001-.2863.0224-.2565.1469.0409.1623.241.0882.3307.0588A3.823,3.823,0,0,1,81.2667,17.4a1.2513,1.2513,0,0,1,.5622.1554,1.7435,1.7435,0,0,0,1.1532.354.4232.4232,0,0,1,.4816.5981.3666.3666,0,0,0,.0577.3809,10.2242,10.2242,0,0,1,.8839,1.941c.0543.1045.0692.2763-.03.3167-.353.1439-.3431.4531-.4711.6961a1.01,1.01,0,0,1-.3679.4969c-.0628.0354-.1325.0867-.0946.1644.0368.0762.1334.0592.2076.0707.5726.0911.601.121.5453.5821a9.2416,9.2416,0,0,1-.4128.971.3818.3818,0,0,1-.36.1608.6563.6563,0,0,0-.3923.115c.1907.1155.3669.2251.5472.33a1.0417,1.0417,0,0,1,.6364,1.1183c-.0458.2694.0189.4472.3545.5831.5169.21.598.4268.5278.9347-.0219.1633.0269.3341.02.5014a1.0185,1.0185,0,0,1-.9814,1.0064c-.2843.0463-.2694.1259-.114.27.2793.2579.4576.52.22.87-.0468.0717.0139.1971.0254.2977.01.0782.0642.1788.0239.23-.3959.5128-.3606,1.2075-.9257,1.6452a1.0722,1.0722,0,0,1-.9083.23,4.4784,4.4784,0,0,0-1.0108.0309c-.13-.0055-.1673.0772-.2176.16a.7576.7576,0,0,1-.8983.3626c-.38-.0772-.597-.2694-.6135-.616-.0094-.2325-.5711-.5876-.8574-.5562-.116.0129-.26.0747-.3441.0354-.5567-.251-.6165.1932-.8336.4083-.1185.1175-.0916.1917.1225.1981a4.2147,4.2147,0,0,1,2.38.8117.4021.4021,0,0,1,.1977.4442c-.0279.12-.0583.24-.0857.36a.91.91,0,0,0,.1908.8375,1.4524,1.4524,0,0,1,.1324,1.5208,1.84,1.84,0,0,1-1.7617.9211,1.1352,1.1352,0,0,0-.236,0,1.14,1.14,0,0,1-1.458-.7634c-.0279-.0657-.0409-.1314-.139-.1424-.109-.01-.1932.0344-.1991.123-.014.243-.2266.3326-.4323.4312-.3968.19-.7907.3809-1.188.5677-.1748.0826-.3387.0712-.4268-.1026a3.63,3.63,0,0,0-.5955-.86c-.2027-.2166-.12-.4944-.0578-.7484.0389-.1494.0891-.2973.1469-.4815-.16.1056-.2783.2062-.45.1793-.3176-.0523-.4575.0732-.5078.3241a.6375.6375,0,0,1-.1873.363.3684.3684,0,0,1-.59-.0547,1.2437,1.2437,0,0,0-.3574-.4323.2493.2493,0,0,1-.0982-.28.31.31,0,0,0-.1658-.4526c-.1553-.0847-.1165-.2555-.0946-.4059.08-.5338-.1324-.72-.7469-.608-.6951.127-1.4072.1056-2.1083.18q-.78.0837-1.55.2086a1.8389,1.8389,0,0,0-1.35.9367,2.05,2.05,0,0,0-.3466,1.17,10.5892,10.5892,0,0,1-.1967,2.303,4.8666,4.8666,0,0,0-.02,1.5306c.107.4557-.0314,1.9535.0244,2.4255a.7919.7919,0,0,0,1.1015.7017,2.1727,2.1727,0,0,1,.656-.0284,2.3744,2.3744,0,0,0,1.1112.06.6278.6278,0,0,1,.5283-.0578c.3152.1345.61.02.9092.0463.2679.0215,1.5785.1086,1.9146.1664.5234.0821,1.0407-.0837,1.5616.0368a3.5752,3.5752,0,0,0,2.0351.245c.0844-.0149.485-.1728.5975-.1912a1.8616,1.8616,0,0,1,1.1552.1753c.1753.1538.7-.0568,1.0437-.008a2.7935,2.7935,0,0,1,1.5855.5418c1.158.6632.8843,1.1154-.2988,1.089-.3259-.0073-.5509.0975-.7847.0821a5.2354,5.2354,0,0,0-1.936.2709,3.7445,3.7445,0,0,1-1.482.6454,4.3858,4.3858,0,0,0-1.6611.5218,4.0454,4.0454,0,0,1-2.0386.1553,3.4515,3.4515,0,0,0-1.28.0384c-.2773.0772-1.59.5617-1.8319.3048a3.484,3.484,0,0,0-1.9963.0243A11.7864,11.7864,0,0,0,65.208,47.798Zm.2888-15.7261c.01-.1559-.0573-.2341-.248-.1349a3.8766,3.8766,0,0,1-1.1592.3779.2416.2416,0,0,0-.2246.1574,2.9212,2.9212,0,0,0-.2569,1.6237c.0428.1683.125.3292.369.1773A3.05,3.05,0,0,0,65.4968,32.0719Zm-6.29-.2121a2.4458,2.4458,0,0,0,.02.8669.6414.6414,0,0,0,.6408.4038c.5189-.1553.6518-.4646.358-.8809a1.2055,1.2055,0,0,1-.32-.6772c0-.14-.123-.1837-.2689-.2C59.1594,31.3205,59.2551,31.6357,59.2068,31.86Zm-3.3632-.4616a.8585.8585,0,0,1-.93.4526c.4685.5612,1.1487.4735,1.7443.5841.09.0184.1708-.0463.111-.1185-.1882-.2211-.1907-.5572-.5642-.6563A.7989.7989,0,0,1,55.8436,31.3982Zm6.93.93.0085-.0549c.0135-.106.1663-.225-.0573-.3087-.2325-.0891-.2489.0957-.3451.1808-.21.18-.2579.4635-.54.5985-.0851.04-.0513.1131-.0349.1788.0628.2375.3043.364.4676.5328.0767.0792.1345.005.1593-.0663A2.9186,2.9186,0,0,0,62.7735,32.3279Zm7.2217-3.3523a.9468.9468,0,0,0,.9322-.8216c-.001-.1229-.0677-.1917-.2166-.1842a2.0969,2.0969,0,0,0-.9626.7738C69.7343,28.8611,69.7383,28.9752,69.9952,28.9756Zm-3.6165,4.36c.9142-.47.9715-.6588.4158-1.3385-.0055-.0065-.0234-.0035-.0553-.007C66.6206,32.4284,66.5032,32.8681,66.3787,33.3357ZM57.2752,21.7116c-.004-.2843-.0637-.4974-.3934-.5089-.2285-.0074-.4979-.0159-.5616.25-.0284.1185.4237.4611.602.4616C57.1238,21.9173,57.2956,21.8809,57.2752,21.7116Zm-3.6445,10.544c.13-.0055.26-.0129.39-.0164.099-.0035.1667-.04.1085-.122a2.6644,2.6644,0,0,1-.4163-.7937.1555.1555,0,0,0-.1822-.0991c-.0951.0284-.0617.112-.0389.1728a.6849.6849,0,0,1-.0607.5831C53.3419,32.1556,53.3669,32.2636,53.6307,32.2556ZM48.0712,18.2589c.117.1041.254.0946.3466.1429.3137.1673.7434.2076.8873.5657.0229.06-.0105.1469.0867.1653.0846.0179.1414-.0483.1882-.1.0891-.0976-.0334-.131-.0911-.1833a2.1284,2.1284,0,0,1-.2669-.2449C48.8211,18.0826,48.8246,18.0821,48.0712,18.2589Z"/></svg>