<?xml version="1.0" encoding="utf-8"?><svg width="249" height="199" viewBox="0 0 249 199" xmlns="http://www.w3.org/2000/svg" xmlns:xlink="http://www.w3.org/1999/xlink"><svg viewBox="-1 -1 66 66" width="66" height="66" id="clock" y="86" xmlns="http://www.w3.org/2000/svg"><path d="M32 0C14.3 0 0 14.3 0 32s14.3 32 32 32 32-14.3 32-32S49.7 0 32 0zm0 57.8C17.7 57.8 6.2 46.3 6.2 32S17.7 6.2 32 6.2 57.8 17.7 57.8 32 46.3 57.8 32 57.8zm8-13.5l-11-8c-.4-.3-.6-.8-.6-1.3V13.9c0-.9.7-1.5 1.5-1.5H34c.9 0 1.5.7 1.5 1.5v18.3l8.6 6.3c.7.5.8 1.5.3 2.2L42.1 44c-.5.7-1.4.8-2.1.3z"/></svg><svg version="1.1" id="facebook-square" x="66" y="86" viewBox="-1 -1 58 66" xml:space="preserve" width="58" height="66" xmlns="http://www.w3.org/2000/svg"><style>.bst0{fill:#03a87c}</style><path class="bst0" d="M56 10v44c0 3.3-2.7 6-6 6H39.3V37.8h7.6l1.1-8.5h-8.7V24c0-2.5.7-4.1 4.2-4.1H48v-7.6c-.8-.1-3.4-.3-6.5-.3-6.5 0-10.9 3.9-10.9 11.2v6.2H23v8.5h7.6V60H6c-3.3 0-6-2.7-6-6V10c0-3.3 2.7-6 6-6h44c3.3 0 6 2.7 6 6z"/></svg><svg version="1.1" id="globe-europe" x="185" viewBox="-1 -1 64 66" xml:space="preserve" width="64" height="66" xmlns="http://www.w3.org/2000/svg"><style>.cst0{fill:#03a87c}</style><path class="cst0" d="M31 1C13.9 1 0 14.9 0 32s13.9 31 31 31 31-13.9 31-31S48.1 1 31 1zm25 31c0 2.8-.5 5.5-1.3 8h-2.5c-.5 0-1-.2-1.4-.6l-4-4.1c-.6-.6-.6-1.5 0-2.1l1.6-1.6v-1.1c0-.4-.2-.7-.4-1l-1.2-1.2c-.3-.3-.6-.4-1-.4h-2c-.8 0-1.4-.6-1.4-1.4 0-.4.2-.7.4-1l1.2-1.2c.3-.3.6-.4 1-.4h4c.8 0 1.4-.6 1.4-1.4v-1.2c0-.8-.6-1.4-1.4-1.4h-4.6c-1.1 0-2 .9-2 2v.6c0 .9-.5 1.6-1.4 1.9l-4 1.3c-.4.1-.7.5-.7 1v.3c0 .5-.5 1-1 1h-2c-.5 0-1-.5-1-1s-.5-1-1-1h-.4c-.4 0-.7.2-.9.5l-1.2 2.3c-.3.7-1 1.1-1.8 1.1h-2.8c-1.1 0-2-.9-2-2v-3.2c0-.5.2-1 .6-1.4l2.5-2.5c.6-.6.9-1.4.9-2.2 0-.4.3-.8.7-1l5-1.7c.2-.1.4-.2.5-.3l3.3-3.4c.3-.3.4-.6.4-1 0-.8-.6-1.4-1.4-1.4h-2.6l-2 2v1c0 .6-.5 1-1 1h-2c-.5 0-1-.4-1-1v-2.5c0-.3.1-.6.4-.8L30.3 7h.7c13.8 0 25 11.2 25 25zM16.3 18.6c0-.4.1-.7.4-1l3.2-3.2c.3-.3.6-.4 1-.4.8 0 1.4.6 1.4 1.4v2c0 .4-.1.7-.4 1l-1.2 1.2c-.3.3-.6.4-1 .4h-2c-.8.1-1.4-.6-1.4-1.4zm16 38.3V56c0-1.1-.9-2-2-2h-2.5c-1.4 0-3.3-.7-4.4-1.5l-2.8-2.1c-1.4-1.1-2.3-2.8-2.3-4.5v-3c0-2 1-3.8 2.8-4.9l5.4-3.2c.9-.5 1.9-.8 2.9-.8h3.9c1.4 0 2.7.5 3.7 1.4l5.4 4.6h2.3c1.1 0 2.1.4 2.8 1.2l2.2 2.2c.4.4 1 .7 1.6.7H53c-4.2 7.3-11.8 12.4-20.7 12.8z"/></svg><svg version="1.1" id="instagram" x="185" y="66" viewBox="-1 -1 58 66" xml:space="preserve" width="58" height="66" xmlns="http://www.w3.org/2000/svg"><style>.dst0{fill:#03a87c}</style><path class="dst0" d="M28.1 17.6c-7.9 0-14.3 6.4-14.3 14.3s6.4 14.3 14.3 14.3 14.3-6.4 14.3-14.3S36 17.6 28.1 17.6zm0 23.6c-5.1 0-9.3-4.2-9.3-9.3s4.2-9.3 9.3-9.3 9.3 4.2 9.3 9.3-4.2 9.3-9.3 9.3zM46.3 17c0 1.9-1.5 3.3-3.3 3.3-1.9 0-3.3-1.5-3.3-3.3s1.5-3.3 3.3-3.3c1.8-.1 3.3 1.4 3.3 3.3zm9.5 3.4c-.2-4.5-1.2-8.4-4.5-11.7-3.3-3.3-7.2-4.3-11.7-4.5-4.6-.3-18.4-.3-23.1 0-4.4.2-8.4 1.2-11.7 4.5S.5 15.9.3 20.4C0 25 0 38.8.3 43.4c.2 4.5 1.2 8.4 4.5 11.7 3.3 3.3 7.2 4.3 11.7 4.5 4.6.3 18.4.3 23.1 0 4.5-.2 8.4-1.2 11.7-4.5 3.3-3.3 4.3-7.2 4.5-11.7.3-4.6.3-18.4 0-23zm-6 28c-1 2.4-2.9 4.3-5.3 5.3-3.7 1.5-12.4 1.1-16.5 1.1s-12.8.3-16.5-1.1c-2.4-1-4.3-2.9-5.3-5.3C4.8 44.7 5.1 36 5.1 31.9s-.3-12.8 1.2-16.5c1-2.4 2.9-4.3 5.3-5.3C15.3 8.7 24 9 28.1 9s12.8-.3 16.5 1.1c2.4 1 4.3 2.9 5.3 5.3 1.5 3.7 1.1 12.4 1.1 16.5s.3 12.8-1.2 16.5z"/></svg><svg id="logo" data-name="Ebene 1" width="185" height="86" viewBox="-1 -1 185 86" xmlns="http://www.w3.org/2000/svg"><defs><style>.ecls-1{fill:#68b76b}.ecls-2{fill:#b1cc3d;stroke:#1d8a37;stroke-miterlimit:10;stroke-width:2px}.ecls-3{fill:#307e33}.ecls-4,.ecls-5{fill:#68b86b}.ecls-5{fill-rule:evenodd}</style></defs><g id="eBottomText"><path class="ecls-1" d="M155.306 80.264a3.69 3.69 0 0 1-.605-.043 4.072 4.072 0 0 1-.369-.075.248.248 0 0 0-.134-.005.775.775 0 0 0-.123.037c-.064.035-.122-.025-.172-.181a1.334 1.334 0 0 1-.043-.36 4.157 4.157 0 0 1 .022-.423c.007-.092.014-.212.021-.358s.017-.295.027-.444.021-.288.032-.413.016-.212.016-.262a.248.248 0 0 0-.075-.182c-.057-.058-.071-.107-.043-.15.058-.086.1-.155.13-.209a.491.491 0 0 0 .053-.155c.007-.05.014-.146.021-.29s.011-.345.011-.61a4.953 4.953 0 0 0-.038-.614.783.783 0 0 0-.144-.423.191.191 0 0 1-.037-.065c-.004-.014.008-.036.037-.064a1.088 1.088 0 0 1 .133-.108c.06-.042.123-.085.188-.128s.125-.08.182-.112a.31.31 0 0 1 .128-.049.104.104 0 0 1 .065.028l.054.047q.042.065.149 0a.398.398 0 0 1 .203-.032c.071 0 .224.01.455.028a7.553 7.553 0 0 0 .756.015c.164 0 .322-.004.476-.01s.258-.011.316-.011c.093 0 .093.047 0 .14a.7.7 0 0 1-.284.181 2.682 2.682 0 0 1-.385.108 2.956 2.956 0 0 1-.433.054c-.15.006-.297.01-.44.01h-.31c-.08 0-.158-.004-.236-.01-.036-.008-.057 0-.064.021a.321.321 0 0 0 0 .117c.006.065.01.173.01.327s-.001.316-.005.487-.011.341-.02.508-.017.302-.017.402a.255.255 0 0 0 .017.113c.01.018.044.03.101.037q.299.032.621.037c.214.004.407.006.578.006a6.159 6.159 0 0 0 .648-.032c.203-.022.345-.039.423-.054.057-.013.082-.003.075.032s-.047.083-.118.14a1.185 1.185 0 0 1-.348.198 2.806 2.806 0 0 1-.444.129 4.093 4.093 0 0 1-.482.069 5.34 5.34 0 0 1-.471.021c-.136 0-.248-.002-.337-.004s-.163-.006-.22-.006c-.071-.007-.11.028-.118.107 0 .036-.003.106-.011.21s-.012.218-.016.347-.009.257-.016.385-.01.236-.01.322a.845.845 0 0 0 .058.428.396.396 0 0 0 .22.171 2.456 2.456 0 0 0 .332.065 4.5 4.5 0 0 0 .59.031c.134 0 .28-.003.438-.01s.312-.02.465-.043a3.153 3.153 0 0 0 .45-.096 1.547 1.547 0 0 0 .391-.172c.057-.035.084-.03.08.016a.27.27 0 0 1-.09.156 1.476 1.476 0 0 1-.462.342 2.955 2.955 0 0 1-.572.204 4.027 4.027 0 0 1-.638.101c-.22.018-.431.027-.632.027zM158.936 76.035a.468.468 0 0 1 .37.186 2.498 2.498 0 0 1 .305.498 4.267 4.267 0 0 1 .193.509c.064.203.125.41.181.616s.11.4.156.578.08.314.102.407c.029.157.081.165.16.021q.107-.15.22-.343c.075-.128.159-.263.251-.406a12.858 12.858 0 0 0 .349-.578c.06-.107.114-.211.16-.31a1.629 1.629 0 0 0 .101-.268.664.664 0 0 0 .039-.241.37.37 0 0 0-.039-.166.356.356 0 0 0-.052-.08.217.217 0 0 1-.043-.07c0-.036.032-.075.095-.118.051-.036.13-.084.237-.144a.562.562 0 0 1 .246-.091.184.184 0 0 1 .15.085.421.421 0 0 1 .075.226 1.444 1.444 0 0 1-.23.684q-.24.44-.766 1.232-.289.45-.455.776c-.11.218-.184.366-.219.444a.813.813 0 0 0-.107.322.431.431 0 0 1-.13.214.547.547 0 0 1-.1.075q-.07.044-.15.09a1.545 1.545 0 0 1-.15.081.28.28 0 0 1-.102.033c-.064 0-.107-.094-.129-.28-.02-.213-.051-.44-.09-.68s-.087-.48-.145-.722-.121-.482-.192-.718a6.368 6.368 0 0 0-.236-.652 1.794 1.794 0 0 0-.273-.488.434.434 0 0 0-.326-.187.962.962 0 0 0-.194.021.19.19 0 0 1-.08.005.106.106 0 0 1-.069-.026c-.043-.028-.01-.086.096-.172a2.315 2.315 0 0 1 .46-.278.9.9 0 0 1 .322-.085zM164.589 80.275a1.507 1.507 0 0 1-.777-.226 1.16 1.16 0 0 1-.518-.727 2.44 2.44 0 0 1-.097-.74 2.522 2.522 0 0 1 .268-1.123 2.56 2.56 0 0 1 .813-.943 2.85 2.85 0 0 1 .578-.321 1.588 1.588 0 0 1 .61-.13.869.869 0 0 1 .541.146.972.972 0 0 1 .274.305 1.17 1.17 0 0 1 .117.37 1.202 1.202 0 0 1 .022.294.085.085 0 0 0 .032.075.296.296 0 0 0 .16 0c.072-.014.11-.002.113.037s-.023.08-.08.123a1.686 1.686 0 0 1-.284.156 3.38 3.38 0 0 1-.509.176c-.1.029-.217.06-.353.091s-.277.065-.423.097l-.444.097c-.15.033-.293.062-.428.09a.4.4 0 0 0-.161.054c-.029.02-.043.068-.043.139a1.433 1.433 0 0 0 .284.985 1.124 1.124 0 0 0 .947.364 2.26 2.26 0 0 0 .793-.144 2.202 2.202 0 0 0 .643-.36c.028-.028.05-.034.063-.02a.094.094 0 0 1 .017.074.397.397 0 0 1-.038.123.418.418 0 0 1-.085.123 2.302 2.302 0 0 1-.36.285 3.234 3.234 0 0 1-.492.262 3.732 3.732 0 0 1-.573.193 2.466 2.466 0 0 1-.6.075zm.46-3.77a.643.643 0 0 0-.316.086.999.999 0 0 0-.283.24 1.83 1.83 0 0 0-.23.364 1.693 1.693 0 0 0-.145.444c-.021.093.029.13.15.108a6.988 6.988 0 0 0 .55-.086c.111-.022.224-.044.339-.07s.22-.047.32-.069c.179-.043.269-.125.269-.246a.825.825 0 0 0-.022-.258.707.707 0 0 0-.097-.235.574.574 0 0 0-.524-.278zM171.11 76.056a.334.334 0 0 1 .272.123.886.886 0 0 1 .162.316 1.94 1.94 0 0 1 .075.433 4.117 4.117 0 0 1 .005.466q-.022.343-.048.803l-.048.846a1.098 1.098 0 0 0 .085.605.305.305 0 0 0 .257.166 1.008 1.008 0 0 0 .289-.048 1.467 1.467 0 0 0 .28-.112c.041-.022.06 0 .052.063a.316.316 0 0 1-.117.194 2.355 2.355 0 0 1-.584.342 1.476 1.476 0 0 1-.53.128.517.517 0 0 1-.428-.224 1.08 1.08 0 0 1-.097-.707q.01-.14.032-.343a21.163 21.163 0 0 0 .107-1.252c.008-.107.012-.226.012-.354a1.615 1.615 0 0 0-.038-.359.705.705 0 0 0-.128-.283.315.315 0 0 0-.263-.118.647.647 0 0 0-.294.08 1.868 1.868 0 0 0-.31.204 3.373 3.373 0 0 0-.29.257c-.09.089-.166.17-.23.24a1.73 1.73 0 0 0-.354.793c-.05.293-.09.62-.118.985a7.097 7.097 0 0 1-.043.29.647.647 0 0 1-.085.235.52.52 0 0 1-.123.16 1.679 1.679 0 0 1-.392.273.37.37 0 0 1-.15.049.06.06 0 0 1-.058-.032c-.01-.022-.002-.073.026-.15.022-.108.045-.255.07-.445s.049-.396.07-.62.039-.452.052-.68.022-.436.022-.622a5.697 5.697 0 0 0-.043-.798.796.796 0 0 0-.16-.422c-.043-.029-.04-.072.01-.13a1.797 1.797 0 0 1 .156-.133 2.556 2.556 0 0 1 .209-.15c.071-.046.137-.085.198-.118a.342.342 0 0 1 .123-.048c.05 0 .093.048.128.145a1.581 1.581 0 0 1 .08.353 7.018 7.018 0 0 1 .06.82c0 .056.013.087.043.09s.06-.016.095-.06a7.63 7.63 0 0 1 .665-.604 4.266 4.266 0 0 1 .728-.487 2.287 2.287 0 0 1 .31-.123.86.86 0 0 1 .246-.037zM174.537 80.35a.775.775 0 0 1-.375-.118.716.716 0 0 1-.3-.45 1.704 1.704 0 0 1-.069-.477 6.701 6.701 0 0 1 .016-.583c.006-.12.016-.265.027-.433l.032-.509c.011-.171.02-.334.031-.487l.028-.38a.182.182 0 0 0-.006-.108.114.114 0 0 0-.07-.032 2.816 2.816 0 0 0-.304-.005 1.28 1.28 0 0 0-.252.027c-.028.006-.047.001-.054-.016s.007-.052.043-.103a.882.882 0 0 1 .246-.218 1.081 1.081 0 0 1 .365-.145.4.4 0 0 0 .075-.038.138.138 0 0 0 .032-.08 7.05 7.05 0 0 0 .026-.47.671.671 0 0 0-.047-.333.235.235 0 0 1-.022-.08.113.113 0 0 1 .043-.07 3.97 3.97 0 0 1 .535-.358.299.299 0 0 1 .128-.048c.03 0 .052.02.07.058a.51.51 0 0 1 .037.15 1.693 1.693 0 0 1 .01.187v.172l-.026.38a8.737 8.737 0 0 1-.038.412c-.006.065.015.1.065.108.164.013.336.026.514.037s.35.016.514.016c.143 0 .264-.004.363-.01s.172-.015.215-.022c.035-.015.057-.008.065.021s-.019.072-.075.128a1.051 1.051 0 0 1-.488.263 2.362 2.362 0 0 1-.605.08c-.114 0-.218-.002-.31-.005s-.168-.01-.225-.016c-.065 0-.1.036-.107.107-.016.164-.032.38-.049.647s-.032.563-.047.884a6.908 6.908 0 0 0 0 .535 1.413 1.413 0 0 0 .075.423.569.569 0 0 0 .192.274.623.623 0 0 0 .375.095 1.073 1.073 0 0 0 .439-.112 1.974 1.974 0 0 0 .428-.262c.043-.043.066-.03.07.037a.326.326 0 0 1-.091.22 2.214 2.214 0 0 1-.74.525 1.909 1.909 0 0 1-.748.182zM177.3 77.619a.965.965 0 0 1 .107-.445 1.68 1.68 0 0 1 .273-.385 2.439 2.439 0 0 1 .37-.32 3.064 3.064 0 0 1 .395-.242 1.337 1.337 0 0 1 .381-.155 1.378 1.378 0 0 1 .273-.037.731.731 0 0 1 .332.074.242.242 0 0 1 .15.226.37.37 0 0 1-.112.213.956.956 0 0 1-.199.182c-.064.03-.107.032-.129.01a.657.657 0 0 0-.22-.133.86.86 0 0 0-.326-.059.607.607 0 0 0-.423.188.578.578 0 0 0-.198.433.4.4 0 0 0 .097.273 1.018 1.018 0 0 0 .257.209 2.932 2.932 0 0 0 .375.187q.213.091.46.199.524.225.524.642a.935.935 0 0 1-.128.477 1.882 1.882 0 0 1-.31.396 2.62 2.62 0 0 1-.391.31 2.83 2.83 0 0 1-.381.209 1.96 1.96 0 0 1-.835.215 1.128 1.128 0 0 1-.198-.022 1.084 1.084 0 0 1-.214-.064.535.535 0 0 1-.172-.113.229.229 0 0 1-.07-.166.166.166 0 0 1 .044-.096 1.013 1.013 0 0 1 .107-.113c.043-.039.085-.075.128-.107l.107-.08c.043-.035.076-.05.097-.043a.142.142 0 0 1 .053.032.564.564 0 0 0 .273.199 1.083 1.083 0 0 0 .412.08.803.803 0 0 0 .274-.048.866.866 0 0 0 .241-.134.733.733 0 0 0 .176-.204.49.49 0 0 0 .07-.257.434.434 0 0 0-.123-.29 1.22 1.22 0 0 0-.413-.267 26.24 26.24 0 0 1-.353-.144 2.964 2.964 0 0 1-.343-.166.78.78 0 0 1-.438-.664zM141.31 76.997c.02 0 .042.016.066.05a.678.678 0 0 1 .066.122c.027.055.065.126.112.214a1.297 1.297 0 0 0 .112.184.173.173 0 0 1 .037.133.292.292 0 0 1-.078.112 1.198 1.198 0 0 1-.117.097l-.177.137a1.516 1.516 0 0 1-.184.123.343.343 0 0 1-.133.051.17.17 0 0 1-.112-.061 1.17 1.17 0 0 1-.117-.138 1.028 1.028 0 0 1-.097-.158 1.852 1.852 0 0 1-.062-.132.252.252 0 0 1-.01-.21.835.835 0 0 1 .204-.25 1.14 1.14 0 0 1 .301-.214.632.632 0 0 1 .178-.06z"/><g id="eHotel"><path class="ecls-1" d="M109.163 80.318a.534.534 0 0 1-.39-.215 1.273 1.273 0 0 1-.212-.781v-.809c0-.146.002-.285.005-.418s.006-.23.006-.294a.15.15 0 0 0-.006-.096.159.159 0 0 0-.09-.033c-.186-.021-.407-.035-.665-.043s-.517-.017-.78-.032c-.294-.014-.519-.02-.676-.016a2.61 2.61 0 0 0-.353.027.32.32 0 0 0-.118.049.252.252 0 0 0-.053.133l-.027.322-.032.412a34.764 34.764 0 0 0-.06.926.749.749 0 0 0 .022.284.398.398 0 0 0 .086.134c.029.021.04.04.037.058s-.026.045-.069.081a.764.764 0 0 1-.144.102q-.102.058-.22.117a2.073 2.073 0 0 1-.225.097.532.532 0 0 1-.15.037c-.072 0-.113-.052-.124-.155a2.361 2.361 0 0 1-.005-.359l.027-.418c.011-.178.023-.365.038-.561l.042-.574c.014-.186.025-.335.032-.449a.053.053 0 0 0-.053-.06.227.227 0 0 0-.107.017c-.05.028-.075.023-.075-.017a.272.272 0 0 1 .085-.155 1.083 1.083 0 0 1 .118-.155.35.35 0 0 0 .086-.156 5.63 5.63 0 0 0 .043-.604l.021-.852a1.792 1.792 0 0 0-.048-.54.437.437 0 0 0-.144-.252c-.072-.043-.05-.107.064-.193a2.175 2.175 0 0 1 .407-.251.864.864 0 0 1 .289-.102.142.142 0 0 1 .123.091.834.834 0 0 1 .075.22 1.66 1.66 0 0 1 .032.279 6.844 6.844 0 0 1 0 .545c-.004.121-.007.257-.01.407s-.01.31-.022.482-.023.34-.037.503q-.011.13.107.097a4.243 4.243 0 0 1 .444-.043 11.096 11.096 0 0 1 .862-.005c.143.004.287.009.434.016s.287.015.423.026l.332.027c.078.007.117-.025.117-.096s.004-.173.011-.305.016-.274.026-.423l.032-.44c.01-.143.023-.26.037-.353a1.835 1.835 0 0 1 .084-.417.593.593 0 0 1 .117-.205.756.756 0 0 1 .173-.144 1.757 1.757 0 0 1 .239-.123 2.577 2.577 0 0 1 .256-.09c.085-.026.16-.046.225-.06.078-.014.123-.01.133.011s-.012.057-.069.107a.85.85 0 0 0-.198.246 2.15 2.15 0 0 0-.177.504 2.884 2.884 0 0 0-.058.358c-.019.153-.035.316-.049.487s-.027.34-.037.503-.017.297-.017.397a.116.116 0 0 0 .118.129c.229.013.427.021.595.021a1.742 1.742 0 0 0 .337-.021q.203-.032.021.128a1.186 1.186 0 0 1-.487.224 3.881 3.881 0 0 1-.519.086.095.095 0 0 0-.107.108q0 .45.01.808a3.023 3.023 0 0 0 .07.605.803.803 0 0 0 .187.38.478.478 0 0 0 .364.133 1.34 1.34 0 0 0 .445-.08 1.9 1.9 0 0 0 .37-.166c.05-.028.066-.008.048.06a.387.387 0 0 1-.102.176 2.11 2.11 0 0 1-.316.215 3.174 3.174 0 0 1-.401.192 3.338 3.338 0 0 1-.429.14 1.63 1.63 0 0 1-.383.054zM114.482 76.066a1.37 1.37 0 0 1 .36.06.987.987 0 0 1 .396.23 1.426 1.426 0 0 1 .32.465 1.859 1.859 0 0 1 .135.765 2.001 2.001 0 0 1-.264 1.077 3.422 3.422 0 0 1-.603.734 3.877 3.877 0 0 1-.393.315 3.332 3.332 0 0 1-.47.279 3.182 3.182 0 0 1-.509.198 1.835 1.835 0 0 1-.513.075 1.16 1.16 0 0 1-.916-.38 1.653 1.653 0 0 1-.337-1.13 2.134 2.134 0 0 1 .24-1.033 2.4 2.4 0 0 1 .66-.765 1.155 1.155 0 0 1 .208-.13c.075-.035.14-.064.198-.085.1-.043.152-.04.155.01a.242.242 0 0 1-.09.172 1.526 1.526 0 0 0-.467.632 2.152 2.152 0 0 0-.133.77 1.745 1.745 0 0 0 .256 1.012.9.9 0 0 0 .792.37 1.292 1.292 0 0 0 .472-.097 1.275 1.275 0 0 0 .439-.289 1.747 1.747 0 0 0 .316-.52 2.15 2.15 0 0 0 .145-.84 1.813 1.813 0 0 0-.237-.964.754.754 0 0 0-.684-.385 1.072 1.072 0 0 0-.439.085c-.043.021-.067.01-.07-.037a.216.216 0 0 1 .08-.156 1.994 1.994 0 0 1 .434-.3 1.09 1.09 0 0 1 .51-.14zM118.112 80.35a.775.775 0 0 1-.375-.118.716.716 0 0 1-.3-.45 1.704 1.704 0 0 1-.069-.477 6.701 6.701 0 0 1 .016-.583l.027-.433.032-.509c.01-.171.02-.334.032-.487l.027-.38a.182.182 0 0 0-.006-.108.114.114 0 0 0-.07-.032 2.816 2.816 0 0 0-.304-.005 1.28 1.28 0 0 0-.252.027c-.028.006-.047.001-.054-.016s.007-.052.043-.103a.882.882 0 0 1 .247-.218 1.081 1.081 0 0 1 .364-.145.4.4 0 0 0 .075-.038.138.138 0 0 0 .032-.08c.014-.15.023-.307.027-.47a.671.671 0 0 0-.048-.333.235.235 0 0 1-.022-.08.114.114 0 0 1 .043-.07 3.763 3.763 0 0 1 .348-.246c.069-.043.13-.08.188-.112a.298.298 0 0 1 .128-.048c.029 0 .052.02.07.058a.507.507 0 0 1 .037.15 1.693 1.693 0 0 1 .01.187v.172l-.026.38a8.596 8.596 0 0 1-.038.412c-.007.065.015.1.065.108.164.013.336.026.513.037s.35.016.515.016c.143 0 .264-.004.363-.01s.172-.015.215-.022c.035-.015.057-.008.065.021s-.02.072-.076.128a1.051 1.051 0 0 1-.487.263 2.362 2.362 0 0 1-.605.08c-.115 0-.218-.002-.311-.005s-.167-.01-.225-.016c-.064 0-.1.036-.106.107-.017.164-.032.38-.049.647s-.032.563-.048.884a7.01 7.01 0 0 0 0 .535 1.416 1.416 0 0 0 .075.423.569.569 0 0 0 .193.274.623.623 0 0 0 .375.095 1.073 1.073 0 0 0 .438-.112 1.974 1.974 0 0 0 .429-.262c.043-.043.065-.03.07.037a.325.325 0 0 1-.091.22 2.214 2.214 0 0 1-.74.525 1.909 1.909 0 0 1-.749.182zM122.064 80.275a1.507 1.507 0 0 1-.777-.226 1.16 1.16 0 0 1-.518-.727 2.436 2.436 0 0 1-.097-.74 2.52 2.52 0 0 1 .268-1.123 2.558 2.558 0 0 1 .813-.943 2.848 2.848 0 0 1 .578-.321 1.587 1.587 0 0 1 .61-.13.869.869 0 0 1 .541.146.972.972 0 0 1 .274.305 1.17 1.17 0 0 1 .117.37 1.202 1.202 0 0 1 .021.294.085.085 0 0 0 .032.075.295.295 0 0 0 .162 0c.07-.014.108-.002.112.037s-.023.08-.08.123a1.686 1.686 0 0 1-.284.156 3.38 3.38 0 0 1-.51.176c-.1.029-.217.06-.353.091s-.276.065-.422.097l-.445.097c-.15.033-.293.062-.427.09a.4.4 0 0 0-.162.054c-.028.02-.043.068-.043.139a1.433 1.433 0 0 0 .285.985 1.124 1.124 0 0 0 .947.364 2.26 2.26 0 0 0 .793-.144 2.202 2.202 0 0 0 .642-.36c.029-.028.05-.034.064-.02a.094.094 0 0 1 .017.074.397.397 0 0 1-.039.123.418.418 0 0 1-.085.123 2.306 2.306 0 0 1-.359.285 3.24 3.24 0 0 1-.492.262 3.732 3.732 0 0 1-.573.193 2.466 2.466 0 0 1-.6.075zm.46-3.77a.643.643 0 0 0-.316.086.999.999 0 0 0-.283.24 1.83 1.83 0 0 0-.23.364 1.693 1.693 0 0 0-.145.444c-.022.093.028.13.15.108a6.746 6.746 0 0 0 .55-.086c.111-.022.224-.044.338-.07s.221-.047.322-.069c.177-.043.267-.125.267-.246a.827.827 0 0 0-.021-.258.709.709 0 0 0-.097-.235.574.574 0 0 0-.524-.278zM126.176 80.275a.385.385 0 0 1-.225-.075.82.82 0 0 1-.193-.193 2.113 2.113 0 0 1-.15-1.19l.07-1.08c.026-.386.052-.768.08-1.146s.052-.74.069-1.087.034-.648.049-.905a4.202 4.202 0 0 0-.006-.643.562.562 0 0 0-.134-.341.115.115 0 0 1-.021-.06c0-.017.017-.04.054-.07a4.725 4.725 0 0 1 .6-.331.432.432 0 0 1 .128-.043q.085 0 .117.129a1.715 1.715 0 0 1 .043.321c.007.128.007.27 0 .423l-.021.423q-.032.46-.064.99t-.07 1.065l-.07 1.05c-.02.343-.035.656-.042.942a4.444 4.444 0 0 0 .006.685.849.849 0 0 0 .101.354.31.31 0 0 0 .145.15.437.437 0 0 0 .187.043 1.043 1.043 0 0 0 .284-.05 2.115 2.115 0 0 0 .284-.1c.035-.014.054.003.058.053s-.034.11-.112.182a1.786 1.786 0 0 1-.241.176 2.318 2.318 0 0 1-.305.161 3.138 3.138 0 0 1-.321.118 1.023 1.023 0 0 1-.29.048z"/></g><path class="ecls-1" d="M96.61 76.997c.02 0 .042.016.066.05a.711.711 0 0 1 .066.122q.04.083.112.214a1.307 1.307 0 0 0 .112.184.173.173 0 0 1 .036.133.29.29 0 0 1-.076.112 1.34 1.34 0 0 1-.117.097l-.18.137a1.414 1.414 0 0 1-.183.123.342.342 0 0 1-.132.051.17.17 0 0 1-.112-.061 1.161 1.161 0 0 1-.117-.138 1.064 1.064 0 0 1-.098-.158 2 2 0 0 1-.06-.132.253.253 0 0 1-.01-.21.85.85 0 0 1 .203-.25 1.122 1.122 0 0 1 .301-.214.634.634 0 0 1 .179-.06z"/><g id="eRestaurant"><path class="ecls-1" d="M44.981 74.556a1.753 1.753 0 0 1 1.103.317 1.102 1.102 0 0 1 .407.925 1.368 1.368 0 0 1-.091.515 1.643 1.643 0 0 1-.236.406 2.023 2.023 0 0 1-.342.338q-.199.155-.402.305c-.064.043-.098.084-.102.123a.35.35 0 0 0 .08.187c.065.1.138.222.22.365s.172.29.268.444.196.307.3.46a3.237 3.237 0 0 0 .316.402 2.453 2.453 0 0 0 .482.439.753.753 0 0 0 .407.129.924.924 0 0 0 .407-.076q.096-.032.075.033c0 .057-.043.118-.129.181a1.338 1.338 0 0 1-.471.22 1.886 1.886 0 0 1-.428.059 1.478 1.478 0 0 1-1.093-.63c-.085-.101-.176-.219-.273-.354s-.189-.272-.278-.408-.171-.263-.247-.385-.133-.221-.176-.3a1.384 1.384 0 0 0-.268-.359.44.44 0 0 0-.3-.112.598.598 0 0 0-.3.054.253.253 0 0 0-.107.224l-.027.322c-.01.129-.02.258-.027.39l-.021.38a5.32 5.32 0 0 0-.01.29.46.46 0 0 0 .138.385c.03.021.038.045.027.07a.322.322 0 0 1-.101.102 1.569 1.569 0 0 1-.16.09c-.065.033-.13.063-.2.091s-.13.054-.186.076a.42.42 0 0 1-.118.032q-.118 0-.15-.284a4.401 4.401 0 0 1-.011-.702c.007-.136.02-.317.038-.546l.059-.744c.022-.267.039-.543.053-.825s.025-.544.032-.787.009-.453.005-.632a1.065 1.065 0 0 0-.048-.364.232.232 0 0 0-.042-.075c-.015-.014-.043-.014-.086 0a2.29 2.29 0 0 0-.322.16q-.181.109-.3.183c-.078.035-.117.035-.117 0a.24.24 0 0 1 .037-.118.559.559 0 0 1 .091-.118 2.073 2.073 0 0 1 .31-.23q.183-.112.354-.208a.28.28 0 0 0 .096-.065c.03-.028.06-.06.097-.096a1.222 1.222 0 0 1 .118-.096 1.942 1.942 0 0 1 .177-.118c.06-.036.117-.068.171-.096a.285.285 0 0 1 .112-.043c.029 0 .05.017.064.054s.03.067.043.095c.022.043.071.054.15.033l.145-.033c.068-.015.144-.026.23-.037s.176-.02.273-.027.187-.011.273-.011zm-.578.45a4.87 4.87 0 0 0-.193.005.657.657 0 0 0-.171.027c-.05.015-.075.057-.075.128 0 .115-.004.258-.01.429s-.017.357-.028.557-.023.401-.037.605-.025.395-.033.572a.14.14 0 0 0 .043.113.32.32 0 0 0 .193.038 2.486 2.486 0 0 0 .54-.08 1.544 1.544 0 0 0 .456-.198 1.402 1.402 0 0 0 .407-.402 1.093 1.093 0 0 0 .182-.637 1.071 1.071 0 0 0-.342-.868 1.384 1.384 0 0 0-.921-.289zM49.939 80.275a1.504 1.504 0 0 1-.776-.226 1.159 1.159 0 0 1-.52-.727 2.453 2.453 0 0 1-.097-.74 2.52 2.52 0 0 1 .268-1.123 2.546 2.546 0 0 1 .814-.943 2.837 2.837 0 0 1 .578-.321 1.584 1.584 0 0 1 .61-.13.869.869 0 0 1 .54.146.972.972 0 0 1 .274.305 1.17 1.17 0 0 1 .118.37 1.25 1.25 0 0 1 .021.294.086.086 0 0 0 .032.075.294.294 0 0 0 .16 0c.072-.014.11-.002.113.037s-.023.08-.08.123a1.657 1.657 0 0 1-.284.156 3.4 3.4 0 0 1-.509.176q-.15.043-.353.091t-.423.097a74.38 74.38 0 0 1-.873.187.402.402 0 0 0-.16.054c-.029.02-.043.068-.043.139a1.426 1.426 0 0 0 .284.985 1.124 1.124 0 0 0 .947.364 2.253 2.253 0 0 0 .793-.144 2.189 2.189 0 0 0 .642-.36c.028-.028.05-.034.065-.02a.092.092 0 0 1 .015.074.38.38 0 0 1-.037.123.411.411 0 0 1-.086.123 2.313 2.313 0 0 1-.358.285 3.216 3.216 0 0 1-.493.262 3.762 3.762 0 0 1-.573.193 2.476 2.476 0 0 1-.6.075zm.46-3.77a.64.64 0 0 0-.316.086.995.995 0 0 0-.284.24 1.854 1.854 0 0 0-.23.364 1.712 1.712 0 0 0-.144.444c-.022.093.028.13.15.108a6.746 6.746 0 0 0 .551-.086c.11-.022.223-.044.338-.07s.22-.047.32-.069q.268-.064.268-.246a.813.813 0 0 0-.021-.258.698.698 0 0 0-.096-.235.574.574 0 0 0-.525-.278zM53.312 77.619a.96.96 0 0 1 .107-.445 1.67 1.67 0 0 1 .273-.385 2.407 2.407 0 0 1 .369-.32 3.045 3.045 0 0 1 .397-.242 1.332 1.332 0 0 1 .38-.155 1.386 1.386 0 0 1 .273-.037.733.733 0 0 1 .332.074.24.24 0 0 1 .15.226.365.365 0 0 1-.113.213.93.93 0 0 1-.198.182c-.064.03-.107.032-.128.01a.66.66 0 0 0-.22-.133.867.867 0 0 0-.326-.059.608.608 0 0 0-.423.188.58.58 0 0 0-.198.433.404.404 0 0 0 .096.273 1.039 1.039 0 0 0 .257.209 3.02 3.02 0 0 0 .375.187q.213.091.46.199.524.225.525.642a.93.93 0 0 1-.129.477 1.878 1.878 0 0 1-.31.396 2.573 2.573 0 0 1-.392.31 2.825 2.825 0 0 1-.38.209 1.962 1.962 0 0 1-.835.215 1.132 1.132 0 0 1-.198-.022 1.104 1.104 0 0 1-.214-.064.533.533 0 0 1-.171-.113.227.227 0 0 1-.07-.166.166.166 0 0 1 .042-.096 1.055 1.055 0 0 1 .107-.113c.043-.039.086-.075.13-.107l.106-.08c.043-.035.075-.05.096-.043a.155.155 0 0 1 .054.032.555.555 0 0 0 .273.199 1.083 1.083 0 0 0 .412.08.8.8 0 0 0 .274-.048.848.848 0 0 0 .24-.134.745.745 0 0 0 .177-.204.494.494 0 0 0 .07-.257.434.434 0 0 0-.124-.29 1.209 1.209 0 0 0-.412-.267q-.16-.064-.353-.144a2.989 2.989 0 0 1-.342-.166.78.78 0 0 1-.44-.664zM58.055 80.35a.77.77 0 0 1-.374-.118.715.715 0 0 1-.302-.45 1.727 1.727 0 0 1-.068-.477q-.006-.272.016-.583.01-.181.027-.433t.032-.509c.01-.172.021-.334.032-.487l.027-.38a.183.183 0 0 0-.005-.108.117.117 0 0 0-.07-.032 2.82 2.82 0 0 0-.306-.005 1.283 1.283 0 0 0-.251.027c-.029.006-.046.001-.054-.016s.008-.052.043-.103a.885.885 0 0 1 .246-.218 1.082 1.082 0 0 1 .365-.145.368.368 0 0 0 .074-.038.126.126 0 0 0 .032-.08c.015-.15.024-.307.027-.47a.668.668 0 0 0-.048-.333.246.246 0 0 1-.021-.08.117.117 0 0 1 .042-.07 5.342 5.342 0 0 1 .349-.246c.068-.043.13-.08.187-.112a.3.3 0 0 1 .129-.048c.028 0 .051.02.069.058a.503.503 0 0 1 .038.15 1.559 1.559 0 0 1 .01.187v.172l-.027.38a9.407 9.407 0 0 1-.037.412c-.007.065.015.1.064.108.164.013.336.026.514.037s.35.016.514.016c.143 0 .264-.004.364-.01s.172-.015.215-.022c.035-.015.056-.008.064.021s-.018.072-.075.128a1.049 1.049 0 0 1-.487.263 2.364 2.364 0 0 1-.605.08c-.115 0-.218-.002-.31-.005s-.169-.01-.226-.016c-.064 0-.1.036-.107.107q-.024.246-.048.647t-.048.884a6.53 6.53 0 0 0 0 .535 1.417 1.417 0 0 0 .075.423.576.576 0 0 0 .193.274.622.622 0 0 0 .374.095 1.075 1.075 0 0 0 .44-.112 1.961 1.961 0 0 0 .428-.262c.043-.043.066-.03.07.037a.33.33 0 0 1-.091.22 2.217 2.217 0 0 1-.74.525 1.909 1.909 0 0 1-.749.182zM62.876 76.045a.566.566 0 0 1 .488.331 1.443 1.443 0 0 1 .141.88q-.032.374-.053.829t-.033.83a3.104 3.104 0 0 0 .006.417.504.504 0 0 0 .091.268.427.427 0 0 0 .353.182.803.803 0 0 0 .236-.043.76.76 0 0 0 .214-.096c.036-.021.054-.006.054.048a.238.238 0 0 1-.064.155c-.043.05-.097.106-.161.166a1.222 1.222 0 0 1-.225.166 1.371 1.371 0 0 1-.284.123 1.06 1.06 0 0 1-.317.048.543.543 0 0 1-.391-.17 1.266 1.266 0 0 1-.261-.354c-.022-.035-.043-.055-.064-.059a.194.194 0 0 0-.106.037 2.598 2.598 0 0 1-.256.156c-.1.053-.2.103-.304.15s-.2.084-.292.117a.723.723 0 0 1-.224.049 1.096 1.096 0 0 1-.421-.092.655.655 0 0 1-.325-.273.69.69 0 0 1-.08-.182.831.831 0 0 1-.027-.225.576.576 0 0 1 .07-.278 1.21 1.21 0 0 1 .164-.236 1.893 1.893 0 0 1 .341-.284 3.993 3.993 0 0 1 .432-.246 5.043 5.043 0 0 1 .474-.203q.245-.09.48-.155.18-.043.192-.161.01-.085.016-.208c.003-.082.005-.174.005-.274 0-.086-.004-.179-.01-.278a.99.99 0 0 0-.06-.279.564.564 0 0 0-.139-.214.339.339 0 0 0-.24-.085.993.993 0 0 0-.338.069 3.023 3.023 0 0 0-.375.17q-.187.103-.358.21a3.78 3.78 0 0 1-.3.172.095.095 0 0 1-.08.005c-.018-.011-.013-.048.015-.113a1.004 1.004 0 0 1 .145-.256.675.675 0 0 1 .209-.183q.225-.117.509-.257a5.393 5.393 0 0 1 .519-.225 1.761 1.761 0 0 1 .623-.149zm-.988 3.683a1.076 1.076 0 0 0 .295-.053.623.623 0 0 0 .262-.14.464.464 0 0 0 .193-.364c.007-.078.014-.17.021-.278l.022-.322q0-.117-.14-.085a3.268 3.268 0 0 0-.503.118 1.886 1.886 0 0 0-.417.172.763.763 0 0 0-.225.175.392.392 0 0 0-.086.263.427.427 0 0 0 .166.37.615.615 0 0 0 .402.144zM66.397 80.264a.706.706 0 0 1-.59-.321 1.273 1.273 0 0 1-.224-.804c0-.156.005-.306.016-.45s.02-.295.027-.46l.053-.643a5.92 5.92 0 0 0 .021-.449 1.785 1.785 0 0 0-.031-.343.467.467 0 0 0-.119-.246c-.042-.028-.014-.082.086-.16a3.209 3.209 0 0 1 .429-.268.763.763 0 0 1 .267-.096c.05 0 .087.044.112.134a1.337 1.337 0 0 1 .043.326c.004.129.002.26-.005.396s-.014.25-.022.343q-.031.289-.063.706t-.044.76a1.021 1.021 0 0 0 .156.708.601.601 0 0 0 .476.203.788.788 0 0 0 .348-.086 1.48 1.48 0 0 0 .327-.214 2.301 2.301 0 0 0 .273-.278 2.251 2.251 0 0 0 .198-.279 1.215 1.215 0 0 0 .124-.257 1.663 1.663 0 0 0 .058-.279l.027-.246q.016-.15.027-.31l.021-.322c.007-.108.011-.203.011-.289a1.205 1.205 0 0 0-.01-.278.92.92 0 0 0-.054-.203c-.014-.043.007-.082.064-.118a.983.983 0 0 1 .134-.107q.09-.064.198-.129a2.046 2.046 0 0 1 .203-.107.406.406 0 0 1 .15-.042q.118 0 .097.363a77.214 77.214 0 0 1-.096 1.151c-.022.232-.042.454-.06.664s-.026.37-.026.477v.31a1.577 1.577 0 0 0 .037.348.63.63 0 0 0 .134.279.345.345 0 0 0 .279.112.972.972 0 0 0 .235-.032.908.908 0 0 0 .225-.085c.057-.036.089-.028.096.026s-.029.116-.107.188a1.733 1.733 0 0 1-.503.347 1.275 1.275 0 0 1-.535.134.438.438 0 0 1-.3-.102.721.721 0 0 1-.188-.256 1.451 1.451 0 0 1-.102-.327 2.956 2.956 0 0 1-.042-.31c0-.122-.05-.136-.15-.043-.036.028-.097.078-.182.15s-.183.148-.29.23-.214.16-.32.235a3.062 3.062 0 0 1-.28.176 1.769 1.769 0 0 1-.294.13 1.011 1.011 0 0 1-.305.042zM71.707 75.992a.211.211 0 0 1 .177.095.714.714 0 0 1 .107.252 2.324 2.324 0 0 1 .053.348q.017.193.016.375c0 .114.04.133.118.054q.15-.172.36-.402a3.014 3.014 0 0 1 .39-.369q.16-.129.3-.22a.506.506 0 0 1 .278-.09.5.5 0 0 1 .375.155.45.45 0 0 1 .15.304.419.419 0 0 1-.097.263 2.05 2.05 0 0 1-.267.272c-.057.051-.1.074-.129.07a.107.107 0 0 1-.075-.06.967.967 0 0 0-.198-.166.472.472 0 0 0-.262-.08.524.524 0 0 0-.37.204 2.866 2.866 0 0 0-.326.428 1.862 1.862 0 0 0-.209.766q-.048.498-.08 1.033c-.015.15-.03.276-.048.38a.557.557 0 0 1-.102.252.925.925 0 0 1-.16.182 1.086 1.086 0 0 1-.193.14 1.41 1.41 0 0 1-.183.086.415.415 0 0 1-.117.032.07.07 0 0 1-.059-.022c-.01-.014-.01-.05.006-.107q.02-.117.047-.337a23.511 23.511 0 0 0 .134-1.848v-.422a2.558 2.558 0 0 0-.032-.412 1.298 1.298 0 0 0-.096-.332.412.412 0 0 0-.193-.203.48.48 0 0 1-.064-.038.055.055 0 0 1-.022-.048c0-.05.065-.118.193-.203q.064-.043.145-.103c.053-.039.107-.076.16-.112a1.154 1.154 0 0 1 .15-.085.284.284 0 0 1 .113-.032zM77.03 76.045a.566.566 0 0 1 .49.331 1.442 1.442 0 0 1 .14.88q-.032.374-.053.829t-.032.83a3.087 3.087 0 0 0 .005.417.504.504 0 0 0 .091.268.427.427 0 0 0 .353.182.803.803 0 0 0 .236-.043.762.762 0 0 0 .214-.096c.036-.021.054-.006.054.048a.238.238 0 0 1-.064.155c-.043.05-.097.106-.16.166a1.22 1.22 0 0 1-.226.166 1.369 1.369 0 0 1-.284.123 1.06 1.06 0 0 1-.317.048.544.544 0 0 1-.391-.17 1.268 1.268 0 0 1-.26-.354c-.022-.035-.043-.055-.065-.059a.194.194 0 0 0-.106.037 2.61 2.61 0 0 1-.256.156c-.1.053-.2.103-.303.15s-.201.084-.293.117a.723.723 0 0 1-.224.049 1.095 1.095 0 0 1-.42-.092.655.655 0 0 1-.326-.273.69.69 0 0 1-.08-.182.831.831 0 0 1-.027-.225.576.576 0 0 1 .07-.278 1.214 1.214 0 0 1 .164-.236 1.897 1.897 0 0 1 .341-.284 3.993 3.993 0 0 1 .432-.246 5.021 5.021 0 0 1 .474-.203q.246-.09.48-.155.181-.043.192-.161.01-.085.016-.208a4.056 4.056 0 0 0-.005-.552.99.99 0 0 0-.06-.279.565.565 0 0 0-.138-.214.339.339 0 0 0-.241-.085.993.993 0 0 0-.338.069 3.023 3.023 0 0 0-.375.17q-.187.103-.358.21a3.816 3.816 0 0 1-.3.172.095.095 0 0 1-.08.005c-.018-.01-.012-.048.016-.112a1.007 1.007 0 0 1 .145-.257.675.675 0 0 1 .209-.183q.224-.117.508-.257a5.394 5.394 0 0 1 .52-.224 1.761 1.761 0 0 1 .622-.15zm-.987 3.683a1.076 1.076 0 0 0 .295-.053.623.623 0 0 0 .263-.14.464.464 0 0 0 .192-.364c.007-.078.015-.17.021-.278s.015-.214.022-.322q0-.117-.14-.085a3.268 3.268 0 0 0-.503.118 1.886 1.886 0 0 0-.417.172.763.763 0 0 0-.225.175.392.392 0 0 0-.086.263.427.427 0 0 0 .166.37.615.615 0 0 0 .402.144zM82.704 76.056a.337.337 0 0 1 .273.123.905.905 0 0 1 .16.316 1.918 1.918 0 0 1 .075.433 4.051 4.051 0 0 1 .006.466q-.022.343-.048.803t-.048.846a1.101 1.101 0 0 0 .085.605.305.305 0 0 0 .257.166 1.013 1.013 0 0 0 .29-.048 1.454 1.454 0 0 0 .278-.112c.043-.022.06 0 .053.063a.32.32 0 0 1-.118.194 2.354 2.354 0 0 1-.583.342 1.477 1.477 0 0 1-.53.128.517.517 0 0 1-.428-.224 1.077 1.077 0 0 1-.097-.707q.01-.14.032-.343l.043-.423a19.862 19.862 0 0 0 .064-.83c.007-.106.01-.225.01-.353a1.64 1.64 0 0 0-.036-.359.72.72 0 0 0-.13-.283.313.313 0 0 0-.261-.118.652.652 0 0 0-.295.08 1.949 1.949 0 0 0-.31.204 3.452 3.452 0 0 0-.289.257c-.09.089-.166.17-.23.24a1.728 1.728 0 0 0-.353.793q-.075.44-.118.985c-.014.107-.028.203-.043.29a.67.67 0 0 1-.086.235.511.511 0 0 1-.123.16 1.668 1.668 0 0 1-.193.156 1.788 1.788 0 0 1-.197.117.374.374 0 0 1-.15.049.06.06 0 0 1-.06-.032c-.01-.022-.001-.073.028-.15.02-.108.044-.255.07-.445s.047-.396.069-.62.039-.452.054-.68.021-.436.021-.622a5.84 5.84 0 0 0-.043-.798.796.796 0 0 0-.16-.422q-.065-.043.01-.13a1.966 1.966 0 0 1 .155-.133 2.637 2.637 0 0 1 .407-.268.342.342 0 0 1 .123-.048c.05 0 .093.048.129.145a1.636 1.636 0 0 1 .08.353 7.988 7.988 0 0 1 .06.82c0 .056.013.087.042.09s.06-.016.096-.06a7.477 7.477 0 0 1 .664-.604 4.25 4.25 0 0 1 .729-.487 2.305 2.305 0 0 1 .31-.123.87.87 0 0 1 .246-.037zM86.13 80.35a.77.77 0 0 1-.374-.118.715.715 0 0 1-.3-.45 1.723 1.723 0 0 1-.07-.477q-.005-.272.017-.583l.026-.433.032-.509.033-.487.027-.38a.183.183 0 0 0-.006-.108.117.117 0 0 0-.07-.032 2.823 2.823 0 0 0-.305-.005 1.282 1.282 0 0 0-.251.027c-.03.006-.047.001-.054-.016s.007-.052.043-.103a.885.885 0 0 1 .246-.218 1.08 1.08 0 0 1 .364-.145.368.368 0 0 0 .075-.038.126.126 0 0 0 .032-.08c.014-.15.024-.307.027-.47a.668.668 0 0 0-.048-.333.246.246 0 0 1-.021-.08.117.117 0 0 1 .042-.07 5.342 5.342 0 0 1 .348-.246c.069-.043.13-.08.188-.112a.3.3 0 0 1 .128-.048c.029 0 .052.02.07.058a.503.503 0 0 1 .037.15 1.58 1.58 0 0 1 .01.187v.172l-.026.38a9.565 9.565 0 0 1-.037.412c-.007.065.014.1.064.108.164.013.335.026.514.037s.35.016.514.016c.143 0 .264-.004.364-.01s.171-.015.214-.022c.036-.015.057-.008.064.021s-.018.072-.074.128a1.049 1.049 0 0 1-.488.263 2.365 2.365 0 0 1-.605.08c-.114 0-.218-.002-.31-.005s-.168-.01-.225-.016c-.064 0-.1.036-.107.107q-.024.246-.049.647t-.047.884a6.53 6.53 0 0 0 0 .535 1.41 1.41 0 0 0 .074.423.576.576 0 0 0 .193.274.622.622 0 0 0 .375.095 1.075 1.075 0 0 0 .439-.112 1.96 1.96 0 0 0 .428-.262c.043-.043.066-.03.07.037a.331.331 0 0 1-.091.22 2.219 2.219 0 0 1-.739.525 1.909 1.909 0 0 1-.75.182z"/></g><path class="ecls-1" d="M32.535 76.997c.02 0 .043.016.067.05a.711.711 0 0 1 .066.122q.04.083.112.214a1.287 1.287 0 0 0 .112.184.173.173 0 0 1 .036.133.29.29 0 0 1-.076.112 1.34 1.34 0 0 1-.118.097l-.178.137a1.414 1.414 0 0 1-.184.123.342.342 0 0 1-.132.051.17.17 0 0 1-.113-.061 1.17 1.17 0 0 1-.117-.138 1.064 1.064 0 0 1-.097-.158 2 2 0 0 1-.06-.132.253.253 0 0 1-.01-.21.849.849 0 0 1 .203-.25 1.122 1.122 0 0 1 .301-.214.633.633 0 0 1 .179-.06z"/><g id="eCafé"><path class="ecls-1" d="M8.334 79.728a2.549 2.549 0 0 0 .675-.085 3.466 3.466 0 0 0 .567-.209 3.314 3.314 0 0 0 .444-.252 2.766 2.766 0 0 0 .295-.224c.029-.029.048-.037.059-.022s.009.04-.005.075a.54.54 0 0 1-.134.236 1.712 1.712 0 0 1-.22.213 4.748 4.748 0 0 1-.45.285 5.244 5.244 0 0 1-.664.315 4.225 4.225 0 0 1-.637.188 3.022 3.022 0 0 1-.637.07 2.448 2.448 0 0 1-.84-.156 1.668 1.668 0 0 1-.67-.424 2.128 2.128 0 0 1-.37-.589 2.475 2.475 0 0 1-.155-.973 2.96 2.96 0 0 1 .515-1.686 4.573 4.573 0 0 1 1.35-1.302 4.621 4.621 0 0 1 .958-.487 2.47 2.47 0 0 1 .808-.165.952.952 0 0 1 .353.052.415.415 0 0 1 .182.13q.118.138-.043.278c-.05.05-.105.1-.166.15a1.649 1.649 0 0 1-.176.128c-.114.064-.186.079-.214.043a.57.57 0 0 0-.279-.15 1.494 1.494 0 0 0-.396-.053 1.419 1.419 0 0 0-.728.208 2.463 2.463 0 0 0-.567.444 2.825 2.825 0 0 0-.51.798 2.865 2.865 0 0 0-.208 1.151 2.991 2.991 0 0 0 .107.824 1.668 1.668 0 0 0 .332.638 1.482 1.482 0 0 0 .578.406 2.192 2.192 0 0 0 .836.145zM13.519 76.045a.566.566 0 0 1 .488.331 1.442 1.442 0 0 1 .141.88q-.032.374-.053.829t-.033.83a3.087 3.087 0 0 0 .006.417.504.504 0 0 0 .091.268.427.427 0 0 0 .353.182.802.802 0 0 0 .236-.043.761.761 0 0 0 .214-.096c.036-.021.054-.006.054.048a.238.238 0 0 1-.064.155c-.043.05-.097.106-.161.166a1.22 1.22 0 0 1-.225.166 1.369 1.369 0 0 1-.284.123 1.06 1.06 0 0 1-.317.048.544.544 0 0 1-.391-.17 1.268 1.268 0 0 1-.261-.354c-.021-.035-.043-.055-.064-.059a.194.194 0 0 0-.106.037 2.61 2.61 0 0 1-.256.156c-.1.053-.2.103-.304.15s-.2.084-.292.117a.723.723 0 0 1-.224.049 1.095 1.095 0 0 1-.421-.092.655.655 0 0 1-.325-.273.69.69 0 0 1-.08-.182.827.827 0 0 1-.027-.225.576.576 0 0 1 .07-.278 1.214 1.214 0 0 1 .164-.236 1.897 1.897 0 0 1 .341-.284 3.993 3.993 0 0 1 .432-.246 5.021 5.021 0 0 1 .474-.203q.245-.09.48-.155.18-.043.191-.161.01-.085.016-.208a4.056 4.056 0 0 0-.005-.552.99.99 0 0 0-.059-.279.566.566 0 0 0-.14-.214.339.339 0 0 0-.24-.085.993.993 0 0 0-.337.069 3.023 3.023 0 0 0-.375.17q-.188.103-.359.21a3.816 3.816 0 0 1-.3.172.095.095 0 0 1-.08.005c-.018-.011-.013-.048.016-.113a1.01 1.01 0 0 1 .144-.256.677.677 0 0 1 .21-.183q.224-.117.508-.257a5.394 5.394 0 0 1 .52-.225 1.761 1.761 0 0 1 .622-.149zm-.988 3.683a1.076 1.076 0 0 0 .295-.053.623.623 0 0 0 .262-.14.465.465 0 0 0 .193-.364c.007-.078.014-.17.021-.278l.022-.322q0-.117-.14-.085a3.268 3.268 0 0 0-.503.118 1.884 1.884 0 0 0-.417.172.763.763 0 0 0-.225.175.392.392 0 0 0-.086.263.427.427 0 0 0 .166.37.615.615 0 0 0 .402.144zM17.253 76.837a.193.193 0 0 0-.085.016c-.021.01-.032.042-.032.092a2.858 2.858 0 0 0-.027.401q-.005.284-.027.798-.021.577-.016.969a3.105 3.105 0 0 0 .027.476.962.962 0 0 0 .059.182.448.448 0 0 0 .09.14c.03.043 0 .093-.085.15a1.391 1.391 0 0 1-.16.091q-.097.047-.204.091a2.228 2.228 0 0 1-.198.07.577.577 0 0 1-.155.026c-.079 0-.129-.066-.15-.197a2.88 2.88 0 0 1-.032-.456q0-.268.01-.605t.027-.69q.016-.353.037-.718l.043-.706c.007-.086-.021-.129-.085-.129a2.077 2.077 0 0 0-.257.016.456.456 0 0 0-.193.06c-.036.013-.059.013-.07-.006s-.002-.05.027-.1a1.156 1.156 0 0 1 .182-.205 1.078 1.078 0 0 1 .342-.204c.065-.021.097-.056.097-.107a3.48 3.48 0 0 1 1.617-2.782 2.432 2.432 0 0 1 .52-.252 1.251 1.251 0 0 1 .369-.07.501.501 0 0 1 .37.133.373.373 0 0 1 .134.252.364.364 0 0 1-.129.246 1.539 1.539 0 0 1-.225.193c-.071.05-.125.057-.16.021a.703.703 0 0 0-.241-.166.75.75 0 0 0-.305-.07.74.74 0 0 0-.44.146 1.308 1.308 0 0 0-.353.392 2.655 2.655 0 0 0-.283.893q-.07.495-.102.978c-.007.094.025.144.096.151.136.014.278.025.428.032s.308.01.472.01a2.498 2.498 0 0 0 .348-.021c.103-.014.183-.028.24-.042.122-.036.125.014.011.147a.661.661 0 0 1-.251.183 1.599 1.599 0 0 1-.343.105 3.517 3.517 0 0 1-.38.052c-.129.011-.247.016-.354.016zM20.627 80.275a1.504 1.504 0 0 1-.776-.226 1.159 1.159 0 0 1-.52-.727 2.453 2.453 0 0 1-.097-.74 2.531 2.531 0 0 1 1.082-2.066 2.837 2.837 0 0 1 .578-.321 1.584 1.584 0 0 1 .61-.13.869.869 0 0 1 .54.146.97.97 0 0 1 .274.305 1.17 1.17 0 0 1 .118.37 1.255 1.255 0 0 1 .021.294.086.086 0 0 0 .032.075.294.294 0 0 0 .16 0c.072-.014.11-.002.113.037s-.023.08-.08.123a1.657 1.657 0 0 1-.284.156 3.4 3.4 0 0 1-.509.176q-.15.043-.353.091t-.423.097a74.38 74.38 0 0 1-.873.187.402.402 0 0 0-.16.054c-.029.02-.043.068-.043.139a1.426 1.426 0 0 0 .284.985 1.124 1.124 0 0 0 .947.364 2.253 2.253 0 0 0 .793-.144 2.19 2.19 0 0 0 .642-.36c.028-.028.05-.034.065-.02a.092.092 0 0 1 .015.074.38.38 0 0 1-.037.123.411.411 0 0 1-.086.123 2.313 2.313 0 0 1-.358.285 3.216 3.216 0 0 1-.493.262 3.762 3.762 0 0 1-.573.193 2.476 2.476 0 0 1-.6.075zm.46-3.77a.64.64 0 0 0-.316.086.994.994 0 0 0-.284.24 1.854 1.854 0 0 0-.23.364 1.712 1.712 0 0 0-.144.444c-.022.093.028.13.15.108q.096-.01.24-.032a10.846 10.846 0 0 0 .648-.123l.322-.07q.267-.064.267-.246a.813.813 0 0 0-.021-.258.698.698 0 0 0-.096-.235.574.574 0 0 0-.525-.278zm1.156-2.43c.079 0 .111.028.096.085a.588.588 0 0 1-.074.171 1.95 1.95 0 0 1-.182.246 4.843 4.843 0 0 1-.728.772 1.233 1.233 0 0 1-.536.257c-.079.021-.12.014-.123-.022s.023-.086.08-.15a1.305 1.305 0 0 0 .129-.176c.057-.09.118-.186.182-.29a5.78 5.78 0 0 0 .31-.573.302.302 0 0 1 .102-.123.69.69 0 0 1 .155-.07 1.728 1.728 0 0 1 .306-.09 1.46 1.46 0 0 1 .273-.038z"/></g></g><path id="eTrennLinie" class="ecls-2" d="M.75 69.488h181.5"/><path class="ecls-3" d="M25.637 27.43c.263 0 .396.188.396.561a12.207 12.207 0 0 1-.113 1.459 13.074 13.074 0 0 1-.34 1.739 2.59 2.59 0 0 0-.056.505v.336c0 .374.15.56.453.56a1.344 1.344 0 0 0 .565-.168 15.252 15.252 0 0 1 7.3-2.244 5.906 5.906 0 0 1 3.933 1.263 4.03 4.03 0 0 1 1.5 3.225 6.53 6.53 0 0 1-.424 2.271 7.95 7.95 0 0 1-1.217 2.16q-.51.673-1.16 1.374T35.03 41.9q-1.416 1.346-2.462 2.16-1.048.813-2.518 1.766-1.133.786-1.132 1.234 0 .505 1.132 1.01 8.658 3.758 8.658 8.974a8.642 8.642 0 0 1-.792 3.674 9.752 9.752 0 0 1-5.348 5.02 10.591 10.591 0 0 1-3.933.73 11.747 11.747 0 0 1-7.357-2.637 14.852 14.852 0 0 1-2.15-1.991 2.816 2.816 0 0 1-.849-1.487.457.457 0 0 1 .084-.28c.057-.074.122-.168.199-.28l1.47-1.627q.396-.448.623-.448.396 0 .623.897a9.972 9.972 0 0 0 2.886 4.15 10.503 10.503 0 0 0 2.575 1.823 6.092 6.092 0 0 0 2.575.533 5.94 5.94 0 0 0 4.075-1.346 4.482 4.482 0 0 0 1.528-3.533 5.34 5.34 0 0 0-1.783-3.843 14.686 14.686 0 0 0-5.235-3.057l-2.15-.785q-2.037-.728-2.037-1.795a5.013 5.013 0 0 1 .085-.73 5.08 5.08 0 0 1 .254-.952 3.431 3.431 0 0 1 1.472-2.188l1.245-.673a20.627 20.627 0 0 0 2.716-1.85 22.48 22.48 0 0 0 2.32-2.076 10.334 10.334 0 0 0 1.726-2.664 6.605 6.605 0 0 0 .708-2.665 3.508 3.508 0 0 0-1.019-2.692 3.98 3.98 0 0 0-2.83-.953 8.75 8.75 0 0 0-4.697 1.458 1.515 1.515 0 0 0-.623.673 14.534 14.534 0 0 0-.51 2.02q-.338 1.627-.622 2.888t-.594 2.44q-.311 1.178-.679 2.327l-.82 2.552q-.68 2.076-1.33 3.73t-1.387 3.141q-.736 1.487-1.585 2.917t-1.923 2.945a24.346 24.346 0 0 1-3.792 4.29 5.232 5.232 0 0 1-3.112 1.543 2.542 2.542 0 0 1-2.264-1.57 8.592 8.592 0 0 1-.849-4.095q0-.952.057-1.738a9.683 9.683 0 0 1 .227-1.515 24.788 24.788 0 0 1 1.838-5.413 39.424 39.424 0 0 1 2.972-5.356q.734-1.065 1.697-2.244.962-1.178 2.066-2.355t2.263-2.3q1.16-1.122 2.35-2.075.282-.28.395-.421a1.65 1.65 0 0 0 .227-.533 27.1 27.1 0 0 1 .226-1.346q0-.336.17-2.132.112-.952.198-1.879a11.756 11.756 0 0 1 .198-1.43 1.34 1.34 0 0 1 .255-.588 2.486 2.486 0 0 1 .707-.365l3.509-1.29.283-.112a1.288 1.288 0 0 1 .396-.057zm-6.904 12.284q-.34 0-1.387 1.01a28.049 28.049 0 0 0-2.348 2.636 32.805 32.805 0 0 0-5.15 9.143 34.27 34.27 0 0 0-1.302 4.374 17.27 17.27 0 0 0-.509 3.646 10.884 10.884 0 0 0 .113 1.57 9.17 9.17 0 0 0 .283 1.346q.226.898 1.415.897 1.584 0 3.396-3.14a29.202 29.202 0 0 0 1.47-3.17q.68-1.71 1.36-4.066.224-.785.509-1.879.282-1.094.622-2.44.395-1.626.679-2.832t.452-2.16l.623-3.421a1.37 1.37 0 0 0 .113-.504v-.505q0-.506-.34-.505zM38.822 65.346a.778.778 0 0 1 .057-.337 1.044 1.044 0 0 1 .057-.336l1.754-10.208a1.278 1.278 0 0 1 1.132-1.122l2.886-.448a.383.383 0 0 0 .17-.028.252.252 0 0 1 .113-.029q.453 0 .453.562a3.34 3.34 0 0 1-.113.56c-.076.336-.152.664-.227.981a3.368 3.368 0 0 0-.113.701c0 .3.113.449.34.449a.433.433 0 0 0 .31-.14 3.425 3.425 0 0 0 .425-.646 7.047 7.047 0 0 1 1.641-1.963 2.891 2.891 0 0 1 1.755-.785 1.582 1.582 0 0 1 1.386.701 3.503 3.503 0 0 1 .481 1.992 7.557 7.557 0 0 1-.226 1.85 5.49 5.49 0 0 1-.566 1.795 1.238 1.238 0 0 1-.453.364 9.373 9.373 0 0 1-.905.366q-1.133.392-1.5.476a2.988 2.988 0 0 1-.65.084c-.303 0-.453-.13-.453-.392a1.811 1.811 0 0 1 .056-.449l.057-.337a.892.892 0 0 1 .028-.224.763.763 0 0 0 .029-.168q0-.505-.453-.505-.623 0-1.528 1.879a26.236 26.236 0 0 0-1.64 4.683 2.262 2.262 0 0 1-.454.982 1.333 1.333 0 0 1-.849.196h-2.264q-.736.001-.736-.504zM66.834 53.343a5.58 5.58 0 0 1-.113.673l-1.245 5.048a10.452 10.452 0 0 0-.283 1.459 11.635 11.635 0 0 0-.057 1.178q0 .898.51.897a1.742 1.742 0 0 0 1.216-.785 7.863 7.863 0 0 0 1.16-2.02c.113-.26.245-.393.396-.393.301 0 .453.168.453.505A2.615 2.615 0 0 1 68.503 61a7.69 7.69 0 0 1-.82 1.262 13.034 13.034 0 0 1-1.387 1.29 12.487 12.487 0 0 1-1.584 1.093 9.6 9.6 0 0 1-1.613.758 4.18 4.18 0 0 1-1.358.28 1.575 1.575 0 0 1-1.16-.42 1.472 1.472 0 0 1-.425-1.094v-.225a6.593 6.593 0 0 1 .085-1.037q.085-.533.141-.87a4.707 4.707 0 0 0 .114-.504.299.299 0 0 0-.34-.337.588.588 0 0 0-.368.168 10.458 10.458 0 0 0-.82.897 14.027 14.027 0 0 1-2.773 2.468 5.446 5.446 0 0 1-1.358.785 4.216 4.216 0 0 1-1.301.17q-2.095 0-2.095-2.188a13.077 13.077 0 0 1 .142-1.711 22.785 22.785 0 0 1 .594-2.72q.51-2.188.623-2.58c.15-.71.282-1.28.396-1.71a7.757 7.757 0 0 1 .311-.982 1.147 1.147 0 0 1 .283-.45.996.996 0 0 1 .424-.167l2.717-.393h.283q.904 0 .905.56a1.39 1.39 0 0 1-.17.618l-.453 1.795q-.169.73-.282 1.15a3.817 3.817 0 0 1-.17.532 2.765 2.765 0 0 0-.141.56q-.085.45-.255 1.178-.227.955-.311 1.43a4.759 4.759 0 0 0-.085.814.547.547 0 0 0 .622.616q.792 0 1.98-1.401a11.677 11.677 0 0 0 1.528-2.3q.566-1.01 1.104-2.16t.707-1.654a2.759 2.759 0 0 0 .142-.421.978.978 0 0 1 .085-.252l.17-.337a.932.932 0 0 1 .679-.28l2.603-.448a.33.33 0 0 1 .226-.057c.49 0 .736.206.736.617zM74.587 66.188a4.919 4.919 0 0 1-3.622-1.347 4.681 4.681 0 0 1-1.358-3.477 8.21 8.21 0 0 1 .65-3.225 9.834 9.834 0 0 1 1.727-2.749 8.586 8.586 0 0 1 2.49-1.935 6.24 6.24 0 0 1 2.886-.729 4.297 4.297 0 0 1 1.697.337 4.394 4.394 0 0 1 1.387.926 4.265 4.265 0 0 1 .934 1.401 4.399 4.399 0 0 1 .34 1.711q0 1.572-1.189 1.74l-1.64.28h-.34a.398.398 0 0 1-.454-.45 4.489 4.489 0 0 1 .17-.56 5.573 5.573 0 0 0 .538-1.319 4.533 4.533 0 0 0 .142-1.037 1.7 1.7 0 0 0-.312-1.038.925.925 0 0 0-.764-.42 1.989 1.989 0 0 0-1.415.87 11.48 11.48 0 0 0-1.47 2.383 10.636 10.636 0 0 0-.425 1.121q-.199.618-.368 1.234-.17.619-.283 1.178a4.723 4.723 0 0 0-.113.898q0 2.524 2.15 2.524a4.227 4.227 0 0 0 2.264-.562 9.344 9.344 0 0 0 2.207-2.3c.226-.26.414-.392.566-.392a.25.25 0 0 1 .282.281 2.343 2.343 0 0 1-.112.393l-.227.785a4.279 4.279 0 0 1-1.415 1.57 7.949 7.949 0 0 1-4.923 1.908zM89.81 30.964l2.943-.28a.113.113 0 0 0 .084-.029.228.228 0 0 1 .142-.027.548.548 0 0 1 .623.617 1.304 1.304 0 0 1-.029.252 1.517 1.517 0 0 0-.028.308l-4.867 22.491a3.107 3.107 0 0 0-.056.618q0 .45.339.449a.979.979 0 0 0 .453-.17c.037-.035.113-.102.226-.196s.264-.213.453-.364a6.943 6.943 0 0 1 4.414-1.907 3.346 3.346 0 0 1 2.462.87 3.283 3.283 0 0 1 .877 2.44 4.349 4.349 0 0 1-.99 2.608 5.814 5.814 0 0 1-2.518 1.934 5.543 5.543 0 0 0-.878.422.428.428 0 0 0-.198.364 1.15 1.15 0 0 0 .17.533 4.852 4.852 0 0 0 .622.814l.85.953 1.075 1.01.339.448a.454.454 0 0 1 .226.337q0 .393-1.131.393H92.13a2.478 2.478 0 0 0-.453-.056h-.283a1.888 1.888 0 0 1-1.018-.786l-.623-.673-1.018-1.12a6.902 6.902 0 0 0-.821-.87.727.727 0 0 0-.425-.14q-.396 0-.622.952l-.396 1.57-.114.505q-.17.618-1.131.617h-2.433q-1.019 0-1.02-.56v-.225a1.042 1.042 0 0 1 .058-.337l.056-.28 6.905-32.587a1.023 1.023 0 0 1 1.018-.898zm-2.037 28.774q0 .73 1.132.728a5.346 5.346 0 0 0 3.112-.897 2.61 2.61 0 0 0 1.302-2.188 1.065 1.065 0 0 0-.453-.897 1.756 1.756 0 0 0-1.076-.336 3.38 3.38 0 0 0-1.697.532 4.842 4.842 0 0 0-1.528 1.43 3.527 3.527 0 0 0-.792 1.628zM103.957 58.11c0 .262.093.393.283.393a.532.532 0 0 0 .34-.14 9.928 9.928 0 0 0 .792-.87 18.357 18.357 0 0 1 3.537-3.308 5.624 5.624 0 0 1 3.027-1.179q2.093 0 2.093 2.412a3.734 3.734 0 0 1-.055.786l-.17.672-.114.505v.225c0 .337.094.505.283.505a.395.395 0 0 0 .255-.14q.141-.14.707-.87a13.877 13.877 0 0 1 3.114-3.028 5.342 5.342 0 0 1 2.884-1.122 2.534 2.534 0 0 1 1.868.673 2.567 2.567 0 0 1 .68 1.907 6.138 6.138 0 0 1-.227 1.795c-.037.187-.103.476-.197.869q-.144.589-.424 1.598-.228.841-.313 1.29a2.841 2.841 0 0 1-.14.56 2.672 2.672 0 0 0-.17.786c0 .487.17.73.51.73q.507 0 1.217-.898a7.043 7.043 0 0 0 1.103-2.018q.167-.506.451-.505.624 0 .623 1.177a2.467 2.467 0 0 1-.68 1.29 11.1 11.1 0 0 1-1.64 1.626 11.852 11.852 0 0 1-2.377 1.572 4.945 4.945 0 0 1-2.094.616 2.017 2.017 0 0 1-1.527-.589 2.125 2.125 0 0 1-.567-1.542 8.75 8.75 0 0 1 .198-1.459q.199-1.01.652-2.636a18.27 18.27 0 0 0 .48-1.766 4.534 4.534 0 0 0 .084-.758c0-.485-.17-.729-.508-.729q-.624 0-1.642 1.066a32.724 32.724 0 0 0-1.471 1.654 13.551 13.551 0 0 0-1.104 1.543 16.199 16.199 0 0 0-.905 1.711q-.425.924-.877 2.16a3.073 3.073 0 0 1-.481.98 1.098 1.098 0 0 1-.765.197h-2.66q-.962 0-.962-.617a1.786 1.786 0 0 1 .114-.448l1.358-6.17a.958.958 0 0 1 .113-.28 2.675 2.675 0 0 0 .057-.618c0-.41-.19-.617-.566-.617a2.792 2.792 0 0 0-1.641 1.01q-.454.45-.821.842a7.814 7.814 0 0 0-.65.785q-.34.45-.736 1.094t-.85 1.43a22.623 22.623 0 0 0-1.074 2.075l-.226.617a2.01 2.01 0 0 1-.425.73 1.118 1.118 0 0 1-.707.168H98.75a.883.883 0 0 1-.623-.168.97.97 0 0 1-.17-.674v-.392l2.207-10.096a1.288 1.288 0 0 1 .34-.701 1.792 1.792 0 0 1 .792-.309l2.716-.392h.113q.85 0 .85.617v.223l-.906 3.646-.113.336zM142.382 53.288a.546.546 0 0 1 .113.392 1.542 1.542 0 0 1-.056.336l-.057.337-1.642 5.665c-.113.412-.227.85-.339 1.318a4.94 4.94 0 0 0-.17.982q0 .785.509.785a1.522 1.522 0 0 0 .736-.28 4.544 4.544 0 0 0 .849-.842 5.846 5.846 0 0 0 .622-.953 4.662 4.662 0 0 1 .482-.87.593.593 0 0 1 .48-.252c.189 0 .283.132.283.393a3.033 3.033 0 0 1-.735 1.963 13.186 13.186 0 0 1-3.17 2.608 6.067 6.067 0 0 1-2.886.981 2.112 2.112 0 0 1-1.555-.588 2.302 2.302 0 0 1-.595-1.711v-.56q0-.338-.283-.338a.779.779 0 0 0-.453.28 10.937 10.937 0 0 1-2.405 2.075 4.457 4.457 0 0 1-2.235.842 2.46 2.46 0 0 1-2.122-1.234 5.552 5.552 0 0 1-.82-3.14 8.468 8.468 0 0 1 1.245-4.32 11.271 11.271 0 0 1 1.329-1.71 9.125 9.125 0 0 1 1.613-1.374 8.93 8.93 0 0 1 1.726-.898 4.656 4.656 0 0 1 1.67-.336 4.008 4.008 0 0 1 1.867.504l.68.337a.825.825 0 0 0 .509.168 1.025 1.025 0 0 0 .51-.168l.509-.337a1.55 1.55 0 0 1 .623-.224h2.602a1.106 1.106 0 0 1 .566.169zm-10.697 8.384a1.01 1.01 0 0 0 .85.477q1.244 0 2.773-2.188a11.419 11.419 0 0 0 1.018-1.766 3.64 3.64 0 0 0 .397-1.206v-.056a.378.378 0 0 0-.17-.337.437.437 0 0 1-.17-.055 1.874 1.874 0 0 0-.34-.113.738.738 0 0 1-.452-.785v-.168q0-1.065-.68-1.066a1.875 1.875 0 0 0-.849.28 3.098 3.098 0 0 0-.848.674 7.556 7.556 0 0 0-1.33 2.271 7.296 7.296 0 0 0-.538 2.664v.168a2.033 2.033 0 0 0 .34 1.206zM150.7 57.774a.427.427 0 0 0 .254-.111 7.365 7.365 0 0 0 .595-.618 6.845 6.845 0 0 1 .735-.897q1.131-1.233 1.726-1.767a7.878 7.878 0 0 1 1.386-.981 7.628 7.628 0 0 1 1.33-.617 3.498 3.498 0 0 1 1.104-.225 2.273 2.273 0 0 1 1.754.673 2.542 2.542 0 0 1 .623 1.795 10.019 10.019 0 0 1-.17 1.515 16.41 16.41 0 0 1-.397 1.794l-.508 1.795q-.17.617-.284 1.262a6.103 6.103 0 0 0-.113.982c0 .449.15.672.453.672q1.188 0 2.433-3.028.225-.561.51-.561.452 0 .453.841a1.72 1.72 0 0 1-.17.786 7.624 7.624 0 0 1-.68 1.01 41.974 41.974 0 0 0-1.189 1.402 9.092 9.092 0 0 1-2.263 1.738 4.759 4.759 0 0 1-2.207.673 1.882 1.882 0 0 1-1.5-.616 2.47 2.47 0 0 1-.537-1.683v-.169c0-.223.008-.438.028-.644a5.412 5.412 0 0 1 .085-.59q.056-.223.226-.868t.454-1.768q.28-1.12.367-1.71a6.882 6.882 0 0 0 .085-.926c0-.41-.152-.617-.452-.617a2.539 2.539 0 0 0-1.585.842 13.423 13.423 0 0 0-1.868 2.243q-.397.618-.708 1.122c-.207.336-.415.711-.622 1.121q-.312.618-.623 1.403-.31.786-.707 1.851a2.039 2.039 0 0 1-.425.785 1 1 0 0 1-.65.168h-2.15c-.529 0-.792-.186-.792-.56v-.505a.503.503 0 0 0 .057-.225.908.908 0 0 1 .057-.28l1.527-9.48a2.552 2.552 0 0 1 .283-.924.97.97 0 0 1 .566-.365l3.113-.56h.057c.489 0 .735.26.735.784v.224a.934.934 0 0 1-.028.225l-.085.336-.51 2.467a.878.878 0 0 1-.029.225.938.938 0 0 0-.027.225c0 .225.094.336.282.336zM169.034 57.774a.427.427 0 0 0 .255-.111 7.382 7.382 0 0 0 .595-.618 6.842 6.842 0 0 1 .735-.897q1.13-1.233 1.726-1.767a7.878 7.878 0 0 1 1.386-.981 7.634 7.634 0 0 1 1.33-.617 3.498 3.498 0 0 1 1.104-.225 2.272 2.272 0 0 1 1.754.673 2.541 2.541 0 0 1 .623 1.795 10.019 10.019 0 0 1-.17 1.515 16.41 16.41 0 0 1-.397 1.794l-.508 1.795q-.17.617-.284 1.262a6.094 6.094 0 0 0-.113.982c0 .449.15.672.453.672q1.188 0 2.433-3.028.225-.561.51-.561.453 0 .453.841a1.719 1.719 0 0 1-.17.786 7.614 7.614 0 0 1-.68 1.01 42.621 42.621 0 0 0-1.189 1.402 9.094 9.094 0 0 1-2.263 1.738 4.759 4.759 0 0 1-2.207.673 1.882 1.882 0 0 1-1.5-.616 2.47 2.47 0 0 1-.538-1.683v-.169c0-.223.01-.438.029-.644a5.388 5.388 0 0 1 .085-.59c.037-.149.113-.439.226-.868s.264-1.019.453-1.768q.282-1.12.368-1.71a6.899 6.899 0 0 0 .085-.926c0-.41-.152-.617-.453-.617a2.539 2.539 0 0 0-1.584.842 13.418 13.418 0 0 0-1.868 2.243q-.397.618-.708 1.122c-.207.336-.415.711-.622 1.121q-.312.618-.623 1.403-.31.786-.707 1.851a2.04 2.04 0 0 1-.425.785 1.001 1.001 0 0 1-.65.168h-2.15c-.529 0-.792-.186-.792-.56v-.505a.504.504 0 0 0 .057-.225.908.908 0 0 1 .057-.28l1.527-9.48a2.552 2.552 0 0 1 .283-.924.97.97 0 0 1 .566-.365l3.113-.56h.057c.489 0 .735.26.735.784v.224a.93.93 0 0 1-.028.225l-.085.336-.51 2.467a.882.882 0 0 1-.029.225.933.933 0 0 0-.027.225c0 .225.094.336.282.336z"/><path class="ecls-4" d="M108.696 46.183a9.404 9.404 0 0 0 1.491-.118 5.69 5.69 0 0 0 1.296-.354c.101-.043.148-.017.14.076a.64.64 0 0 1-.248.353 3.388 3.388 0 0 1-.918.546 6.356 6.356 0 0 1-1.07.32 8.56 8.56 0 0 1-1.134.161q-.573.043-1.113.043a20.726 20.726 0 0 1-1.729-.064 1.331 1.331 0 0 0-.583.043 4.692 4.692 0 0 1-.303.086 1.23 1.23 0 0 1-.28.042q-.174 0-.281-.279a1.096 1.096 0 0 1-.108-.395q-.022-.225-.022-.482 0-.429.054-1.264t.14-1.692q.108-1.027.173-2.195t.087-2.237a10.324 10.324 0 0 0-.033-1.253 1.468 1.468 0 0 0-.249-.825.1.1 0 0 1-.032-.096q.011-.054.14-.14.152-.085.368-.203c.144-.078.28-.15.41-.214s.25-.118.357-.16a.808.808 0 0 1 .205-.065.333.333 0 0 1 .303.214 1.503 1.503 0 0 1 .14.514 6.25 6.25 0 0 1 .033.664v.643q-.022.814-.087 1.81t-.15 2.13q-.044.9-.098 1.735t-.054 1.242a1.32 1.32 0 0 0 .259.942 1.377 1.377 0 0 0 .756.343q.433.064.93.096t1.188.033zM116.933 38.837a1.143 1.143 0 0 1 .985.664 2.855 2.855 0 0 1 .285 1.756q-.064.75-.108 1.66c-.029.607-.051 1.16-.065 1.66a6.164 6.164 0 0 0 .011.835 1.007 1.007 0 0 0 .184.535.864.864 0 0 0 .712.365 1.682 1.682 0 0 0 .476-.086 1.537 1.537 0 0 0 .433-.193c.071-.043.107-.01.107.096a.468.468 0 0 1-.13.31 4.409 4.409 0 0 1-.323.332 2.433 2.433 0 0 1-.454.332 2.758 2.758 0 0 1-.573.246 2.163 2.163 0 0 1-.64.098 1.103 1.103 0 0 1-.79-.344 2.547 2.547 0 0 1-.526-.706c-.043-.071-.086-.11-.128-.118a.401.401 0 0 0-.215.075 5.233 5.233 0 0 1-.516.31c-.201.107-.405.207-.613.3s-.405.171-.592.235a1.454 1.454 0 0 1-.451.097 2.228 2.228 0 0 1-.849-.183 1.309 1.309 0 0 1-.656-.545 1.363 1.363 0 0 1-.16-.364 1.67 1.67 0 0 1-.054-.45 1.148 1.148 0 0 1 .14-.557 2.44 2.44 0 0 1 .333-.471 3.726 3.726 0 0 1 .688-.568 7.812 7.812 0 0 1 .87-.493 10.322 10.322 0 0 1 .958-.406q.493-.182.967-.31c.244-.057.372-.165.387-.322q.02-.17.032-.418c.007-.164.011-.346.011-.546a8.29 8.29 0 0 0-.021-.557 1.952 1.952 0 0 0-.12-.556 1.112 1.112 0 0 0-.28-.429.686.686 0 0 0-.486-.17 1.992 1.992 0 0 0-.68.138 5.834 5.834 0 0 0-.757.343q-.378.204-.724.418t-.605.342a.188.188 0 0 1-.162.011q-.054-.032.033-.225a2.012 2.012 0 0 1 .291-.514 1.335 1.335 0 0 1 .422-.364q.452-.236 1.026-.514a11 11 0 0 1 1.048-.45 3.57 3.57 0 0 1 1.257-.3zm-1.993 7.367a2.133 2.133 0 0 0 .594-.107 1.243 1.243 0 0 0 .53-.279.926.926 0 0 0 .39-.728c.013-.156.027-.343.042-.556l.043-.643c0-.157-.094-.214-.28-.171a6.792 6.792 0 0 0-1.015.235 3.873 3.873 0 0 0-.843.343 1.533 1.533 0 0 0-.454.353.783.783 0 0 0-.173.525.853.853 0 0 0 .335.739 1.253 1.253 0 0 0 .81.29zM127.299 38.858a.685.685 0 0 1 .552.247 1.81 1.81 0 0 1 .323.631 3.822 3.822 0 0 1 .151.868 8.043 8.043 0 0 1 .01.931l-.096 1.607q-.054.92-.097 1.691a2.196 2.196 0 0 0 .173 1.21.62.62 0 0 0 .518.333 2.073 2.073 0 0 0 .584-.097 2.953 2.953 0 0 0 .561-.225c.087-.043.123 0 .109.129a.632.632 0 0 1-.238.385 4.744 4.744 0 0 1-1.178.685 2.966 2.966 0 0 1-1.07.257 1.051 1.051 0 0 1-.864-.45 2.136 2.136 0 0 1-.194-1.413c.014-.185.036-.413.064-.685l.087-.846c.03-.293.054-.582.075-.867s.04-.55.055-.793c.014-.214.022-.45.022-.706a3.203 3.203 0 0 0-.077-.718 1.432 1.432 0 0 0-.258-.567.633.633 0 0 0-.53-.236 1.31 1.31 0 0 0-.594.16 3.88 3.88 0 0 0-.626.408 6.81 6.81 0 0 0-.584.514q-.27.268-.465.482a3.455 3.455 0 0 0-.713 1.584q-.15.88-.237 1.97c-.03.215-.058.407-.087.579a1.308 1.308 0 0 1-.173.471 1.009 1.009 0 0 1-.248.32 3.072 3.072 0 0 1-.389.31 3.516 3.516 0 0 1-.4.236.76.76 0 0 1-.302.096.121.121 0 0 1-.119-.063c-.021-.043-.004-.144.054-.3q.064-.323.14-.89t.141-1.241q.065-.675.108-1.36t.044-1.242a11.544 11.544 0 0 0-.087-1.596 1.583 1.583 0 0 0-.325-.846c-.085-.057-.079-.142.022-.257a3.8 3.8 0 0 1 .313-.268q.206-.16.422-.3c.144-.092.278-.171.4-.235a.7.7 0 0 1 .249-.097c.1 0 .186.097.259.29a3.215 3.215 0 0 1 .162.706q.054.418.086.868.033.45.033.77c0 .115.028.175.086.183s.122-.033.194-.118a15.19 15.19 0 0 1 1.34-1.21 8.526 8.526 0 0 1 1.47-.975 4.4 4.4 0 0 1 .626-.246 1.778 1.778 0 0 1 .497-.075zM132.615 47.296a1.658 1.658 0 0 1-1.297-.674 3.026 3.026 0 0 1-.561-1.981 4.575 4.575 0 0 1 .734-2.613 8.216 8.216 0 0 1 1.859-1.949 6.643 6.643 0 0 1 1.707-.878 5.254 5.254 0 0 1 1.707-.321.594.594 0 0 0 .237-.032c.044-.022.072-.09.087-.204q.02-.256.043-.61l.043-.739.044-.77c.013-.258.021-.486.021-.686a7.3 7.3 0 0 0-.044-1.156 1.445 1.445 0 0 0-.237-.707.143.143 0 0 1 .021-.214 3.376 3.376 0 0 1 .355-.247q.224-.139.459-.256c.155-.078.3-.147.436-.204a.933.933 0 0 1 .267-.086q.128 0 .202.279a3.072 3.072 0 0 1 .086.696q.01.418-.01.91t-.044.92q-.042.493-.103 1.436t-.123 2.002q-.062 1.06-.112 2.023-.053.964-.073 1.478-.022.686-.01 1.328a6.958 6.958 0 0 0 .097 1.125 1.805 1.805 0 0 0 .302.77.714.714 0 0 0 .606.29 2.241 2.241 0 0 0 .561-.086 2.353 2.353 0 0 0 .584-.236c.071-.057.111-.028.118.086a.45.45 0 0 1-.162.343 4.277 4.277 0 0 1-.442.374 3.682 3.682 0 0 1-.595.364 4.273 4.273 0 0 1-.68.267 2.37 2.37 0 0 1-.681.109.887.887 0 0 1-.573-.183 1.385 1.385 0 0 1-.367-.46 2.612 2.612 0 0 1-.216-.61q-.076-.333-.119-.633-.044-.235-.324-.021-.346.236-.81.536t-.972.578a6.845 6.845 0 0 1-1.027.46 2.953 2.953 0 0 1-.972.182zm1.426-1.328a2.59 2.59 0 0 0 1.35-.396 4.157 4.157 0 0 0 1.07-.888 1.422 1.422 0 0 0 .303-.836q.02-.385.043-.932t.054-1.102q.033-.557.065-1.028.032-.47.053-.685c.015-.143-.029-.208-.13-.193a1.255 1.255 0 0 1-.442.01 5.28 5.28 0 0 0-.616-.032 3.69 3.69 0 0 0-1.49.321 3.015 3.015 0 0 0-1.21.943 3.671 3.671 0 0 0-.573 1.06 4.131 4.131 0 0 0-.205 1.36 3.91 3.91 0 0 0 .097.878 2.596 2.596 0 0 0 .302.77 1.612 1.612 0 0 0 .53.547 1.435 1.435 0 0 0 .778.203zM147.523 38.88a1.087 1.087 0 0 1 .476.128 1.506 1.506 0 0 1 .713 1.039 6.876 6.876 0 0 1 .151 1.703c0 .171-.007.393-.021.664s-.032.556-.055.856-.039.593-.054.878-.029.521-.043.707a3.562 3.562 0 0 0-.01.492 1.75 1.75 0 0 0 .075.46.74.74 0 0 0 .206.333.534.534 0 0 0 .378.128 1.961 1.961 0 0 0 .54-.096 4.26 4.26 0 0 0 .67-.268c.1-.057.14-.018.118.118a.633.633 0 0 1-.227.375 3.952 3.952 0 0 1-.68.46 6.687 6.687 0 0 1-.735.343c-.238.093-.45.168-.637.225a1.62 1.62 0 0 1-.41.085.915.915 0 0 1-.67-.364 1.102 1.102 0 0 1-.227-.503 2.315 2.315 0 0 1-.011-.675c.044-.37.079-.774.108-1.21s.064-.945.108-1.53a4.938 4.938 0 0 0-.217-2.592.705.705 0 0 0-.668-.45 1.128 1.128 0 0 0-.584.203 3.43 3.43 0 0 0-.649.546 7.912 7.912 0 0 0-.637.771 9.744 9.744 0 0 0-.573.879 6.36 6.36 0 0 0-.324.653 4.542 4.542 0 0 0-.216.664c-.057.235-.107.496-.151.781s-.086.629-.13 1.028a1.379 1.379 0 0 1-.26.621 3.075 3.075 0 0 1-.475.525 2.507 2.507 0 0 1-.518.353.994.994 0 0 1-.389.128c-.1 0-.115-.114-.043-.342.071-.329.137-.714.195-1.156s.119-.967.183-1.574.126-1.303.184-2.089.122-1.684.194-2.698q.086-1.37.108-2.334t-.01-1.595a5.564 5.564 0 0 0-.12-.986 1.244 1.244 0 0 0-.215-.503.333.333 0 0 1-.066-.086c-.014-.028.036-.092.152-.193a2.543 2.543 0 0 1 .356-.289 4.23 4.23 0 0 1 .411-.246c.137-.071.255-.128.357-.171a.655.655 0 0 1 .216-.065q.215 0 .313.354a4.89 4.89 0 0 1 .14.835 9.25 9.25 0 0 1 .033.996q-.012.514-.032.836-.022.535-.055 1.252t-.065 1.489q-.032.77-.086 1.52t-.097 1.349q-.022.385.237.064c.072-.086.17-.207.292-.364s.26-.318.41-.482.307-.328.465-.493a4.622 4.622 0 0 1 .454-.417c.115-.086.255-.193.42-.321a4.212 4.212 0 0 1 .54-.354 5.55 5.55 0 0 1 .585-.278 1.48 1.48 0 0 1 .55-.118zM155.87 38.837a1.143 1.143 0 0 1 .984.664 2.855 2.855 0 0 1 .286 1.756q-.065.75-.109 1.66t-.064 1.66a6.18 6.18 0 0 0 .01.835 1.007 1.007 0 0 0 .184.535.864.864 0 0 0 .713.365 1.682 1.682 0 0 0 .476-.086 1.535 1.535 0 0 0 .432-.193c.072-.043.108-.01.108.096a.468.468 0 0 1-.13.31 4.432 4.432 0 0 1-.324.332 2.433 2.433 0 0 1-.454.332 2.755 2.755 0 0 1-.572.246 2.163 2.163 0 0 1-.64.098 1.103 1.103 0 0 1-.79-.344 2.545 2.545 0 0 1-.526-.706c-.043-.071-.086-.11-.129-.118a.4.4 0 0 0-.215.075 5.247 5.247 0 0 1-.515.31c-.202.107-.406.207-.614.3s-.404.171-.59.235a1.465 1.465 0 0 1-.452.097 2.229 2.229 0 0 1-.85-.183 1.305 1.305 0 0 1-.655-.545 1.363 1.363 0 0 1-.162-.364 1.708 1.708 0 0 1-.054-.45 1.143 1.143 0 0 1 .14-.557 2.438 2.438 0 0 1 .334-.471 3.736 3.736 0 0 1 .687-.568 7.854 7.854 0 0 1 .872-.493 10.322 10.322 0 0 1 .957-.406q.493-.182.967-.31c.243-.057.372-.165.387-.322q.02-.17.032-.418t.011-.546c0-.17-.008-.356-.021-.557a1.952 1.952 0 0 0-.12-.556 1.113 1.113 0 0 0-.28-.429.687.687 0 0 0-.486-.17 1.992 1.992 0 0 0-.68.138 5.834 5.834 0 0 0-.758.343q-.377.204-.723.418t-.605.342a.187.187 0 0 1-.162.011q-.054-.032.032-.225a1.984 1.984 0 0 1 .292-.514 1.328 1.328 0 0 1 .421-.364q.454-.236 1.027-.514a11.011 11.011 0 0 1 1.047-.45 3.57 3.57 0 0 1 1.257-.3zm-1.993 7.367a2.132 2.132 0 0 0 .594-.107 1.242 1.242 0 0 0 .529-.279.925.925 0 0 0 .39-.728c.014-.156.028-.343.043-.556l.043-.643c0-.157-.094-.214-.28-.171a6.792 6.792 0 0 0-1.016.235 3.852 3.852 0 0 0-.842.343 1.533 1.533 0 0 0-.455.353.783.783 0 0 0-.172.525.853.853 0 0 0 .335.739 1.253 1.253 0 0 0 .81.29zM161.935 47.275a1.432 1.432 0 0 1-1.188-.643 2.529 2.529 0 0 1-.453-1.606q0-.47.032-.9t.054-.92l.108-1.285q.044-.535.043-.9a3.483 3.483 0 0 0-.064-.685.94.94 0 0 0-.239-.492q-.128-.086.173-.322a6.33 6.33 0 0 1 .865-.535 1.535 1.535 0 0 1 .54-.193c.101 0 .176.09.227.268a2.728 2.728 0 0 1 .086.653q.012.386-.01.792c-.015.272-.029.5-.044.686q-.064.578-.13 1.413t-.086 1.52a2.018 2.018 0 0 0 .314 1.413 1.211 1.211 0 0 0 .96.407 1.61 1.61 0 0 0 .703-.17 3.064 3.064 0 0 0 .66-.43 4.698 4.698 0 0 0 .95-1.113 2.372 2.372 0 0 0 .248-.514 3.267 3.267 0 0 0 .12-.557l.053-.492c.021-.2.04-.407.054-.621l.044-.643c.014-.214.021-.407.021-.578a2.412 2.412 0 0 0-.021-.557 1.862 1.862 0 0 0-.108-.407c-.03-.085.014-.163.13-.235a2.198 2.198 0 0 1 .27-.215c.123-.085.255-.17.4-.256a3.781 3.781 0 0 1 .41-.214.826.826 0 0 1 .302-.086q.238 0 .195.728-.022.321-.076.964t-.119 1.338q-.064.696-.119 1.328t-.054.953v.62a3.153 3.153 0 0 0 .076.697 1.265 1.265 0 0 0 .27.557.702.702 0 0 0 .561.224 2.009 2.009 0 0 0 .476-.064 1.866 1.866 0 0 0 .454-.17c.115-.072.18-.055.194.053s-.057.232-.216.374a3.522 3.522 0 0 1-1.015.696 2.615 2.615 0 0 1-1.081.269.895.895 0 0 1-.605-.204 1.428 1.428 0 0 1-.378-.515 2.83 2.83 0 0 1-.206-.652 5.628 5.628 0 0 1-.086-.622c0-.242-.101-.27-.302-.086q-.109.087-.368.3t-.583.46q-.325.247-.648.472a6.314 6.314 0 0 1-.563.353 3.691 3.691 0 0 1-.593.257 2.053 2.053 0 0 1-.617.086zM170.254 41.985a1.905 1.905 0 0 1 .217-.889 3.35 3.35 0 0 1 .55-.77 4.918 4.918 0 0 1 .746-.643 6.027 6.027 0 0 1 .8-.482 2.668 2.668 0 0 1 .766-.31 2.915 2.915 0 0 1 .552-.076 1.496 1.496 0 0 1 .67.15.48.48 0 0 1 .302.45.726.726 0 0 1-.227.43 1.951 1.951 0 0 1-.4.363c-.13.057-.216.064-.26.021a1.339 1.339 0 0 0-.442-.267 1.752 1.752 0 0 0-.659-.118 1.232 1.232 0 0 0-.853.375 1.157 1.157 0 0 0-.4.867.806.806 0 0 0 .195.546 2.063 2.063 0 0 0 .519.418 6.126 6.126 0 0 0 .756.375q.432.181.928.396 1.06.45 1.06 1.285a1.841 1.841 0 0 1-.26.952 3.703 3.703 0 0 1-.627.793 5.026 5.026 0 0 1-.788.621 5.662 5.662 0 0 1-.767.417 3.98 3.98 0 0 1-1.686.428 2.2 2.2 0 0 1-.4-.042 2.233 2.233 0 0 1-.431-.129 1.059 1.059 0 0 1-.346-.224.448.448 0 0 1-.14-.332.32.32 0 0 1 .086-.193 2.025 2.025 0 0 1 .216-.225c.086-.078.173-.15.26-.214l.215-.16c.087-.072.151-.1.194-.086a.267.267 0 0 1 .109.064 1.126 1.126 0 0 0 .55.396 2.216 2.216 0 0 0 .833.16 1.63 1.63 0 0 0 .55-.095 1.667 1.667 0 0 0 .487-.268 1.487 1.487 0 0 0 .356-.407.984.984 0 0 0 .14-.514.867.867 0 0 0-.247-.578 2.453 2.453 0 0 0-.832-.536 61.35 61.35 0 0 1-.713-.289 6.226 6.226 0 0 1-.692-.332 1.558 1.558 0 0 1-.887-1.328z"/><path id="eBaum" class="ecls-5" d="M65.208 47.798a5.539 5.539 0 0 1-1.77.175c-.556 0-1.52.428-2.095.375a9.63 9.63 0 0 1-2.198-.112 7.646 7.646 0 0 0-2.55-.045 1.607 1.607 0 0 1-1.032-.193 9.27 9.27 0 0 0-1.326-.487 12.293 12.293 0 0 0-2.43-.095 12.578 12.578 0 0 1-2.868-.375c-.37-.069-1.187.303-1.602.279a1.474 1.474 0 0 1-1.051-.598c-.367.168-.9-.03-1.626-.08a9.391 9.391 0 0 1-3.266-.35 2.644 2.644 0 0 0-1.074-.061.313.313 0 0 1-.415-.072c-.117-.145-.022-.251.103-.347.274-.21.663-.195.973-.334a3.887 3.887 0 0 1 .476-.155c.075-.022.185-.035.178-.108-.052-.58.542-.448.887-.567.389-.135.83-.08 1.236-.209a1.97 1.97 0 0 1 .737.054c.14.019.206.022.275-.126.208-.437.609-.534 1.137-.326a.507.507 0 0 0 .378.04 1.152 1.152 0 0 1 .544-.016 1.052 1.052 0 0 0 .94-.165.57.57 0 0 1 .721.01.488.488 0 0 0 .414.113 6.431 6.431 0 0 1 1.322-.052c.455.022.934-.293 1.377.033a9.44 9.44 0 0 1 1.043-.31 4.513 4.513 0 0 1 1.822-.34.745.745 0 0 1 .627.235c.108.143.222.1.331.03a1.28 1.28 0 0 1 1.081-.098.759.759 0 0 0 .46-.004 3.296 3.296 0 0 1 1.118.01 1.877 1.877 0 0 0 1.096.102c.545-.113.548-.04.64-.531.137-.733.016-1.984.113-2.72.065-.495.098-1.504.225-1.994a.689.689 0 0 0-.046-.53 2.676 2.676 0 0 1-.278-1.48 1.077 1.077 0 0 0-.606-.96 2.195 2.195 0 0 1-.572-.556 1.212 1.212 0 0 0-.248-.26c-1.112-.807-.833-1.31-2.282-1.518a25.78 25.78 0 0 0-2.945-.146c-.077-.003-.172-.027-.22.037-.065.087.027.145.09.2.186.16.344.32.186.56-.06.088.056.137.105.202.26.327.167.58-.271.674-.173.038-.189.11-.201.234a.803.803 0 0 1-.832.743.79.79 0 0 1-.767-.663c-.043-.347-.516-.451-.537-.796-.006-.062-.128-.006-.174.052a1.473 1.473 0 0 1-.916.48 1.784 1.784 0 0 0-.934.448 1.088 1.088 0 0 1-1.026.374.861.861 0 0 0-.883.365c-.132.181-.34.313-.473.512-.143.214-.37.128-.497-.058a.485.485 0 0 0-.42-.247c-.268-.021-.343-.24-.195-.506.096-.173.292-.346-.129-.42a.25.25 0 0 1-.186-.246c.021-.355-.247-.683-.152-1.047a.328.328 0 0 0-.113-.302c-.237.29-.64.371-.937.586-.242.17-.46.075-.482-.2a.812.812 0 0 1 .082-.556.346.346 0 0 0 .03-.386c-.19-.304.016-.46.284-.594.323-.16.463-.42.289-.679-.18-.26-.11-.416.16-.552.074-.036.2-.065.16-.161-.052-.112-.175-.063-.279-.055-.343.029-.609-.197-.966-.202-.37-.003-.524-.303-.617-.589-.022-.065-.06-.15-.145-.15-.373-.005-.575-.31-.915-.376a.315.315 0 0 1-.269-.227c-.033-.143.071-.24.2-.298a.706.706 0 0 0 .427-.91.296.296 0 0 1 .193-.336 1.76 1.76 0 0 1 .739-.212c.475-.027.811-.177.897-.614.03-.157.192-.237.36-.278.212-.053.432-.088.647-.13a1.369 1.369 0 0 0-1.327-.473c-.193.033-.387.069-.583.083a.731.731 0 0 1-.826-.496 1.58 1.58 0 0 0-.56-.819c-.113-.078-.179-.193-.122-.3.13-.253-.013-.457-.137-.668a1.96 1.96 0 0 1-.272-.633.226.226 0 0 0-.165-.205c-.412-.149-.488-.403-.2-.695.136-.136.22-.227.088-.424-.132-.196.054-.328.262-.412.456-.184.582-.41.39-.828-.1-.215-.049-.323.149-.449.238-.153.448-.336.668-.508a1.231 1.231 0 0 1 .837-.321c.287.013.426-.113.447-.322.02-.229.184-.284.395-.287a2.69 2.69 0 0 1 1.117.196c.544.231.896.174 1.185-.253a.743.743 0 0 1 .649-.302 3.055 3.055 0 0 0 .732-.106c-.224-.046-.448-.094-.675-.14a2.818 2.818 0 0 1-2.11-1.78c-.116-.263-.176-.564-.317-.839a.402.402 0 0 1 .095-.472 2.407 2.407 0 0 0 .5-.894.91.91 0 0 1 .496-.538 4.36 4.36 0 0 0 .627-.394 1.115 1.115 0 0 1 .715-.238c.343.004.47-.145.278-.367-.475-.556-.046-.963.27-1.353a4.951 4.951 0 0 0 .75-.958c.165-.348.64-.46 1.02-.615a2.984 2.984 0 0 1 1.474-.114c.248.026.346-.023.404-.237a1.246 1.246 0 0 1 .72-.795.436.436 0 0 0 .293-.363c.031-.297.3-.443.62-.577-.504.023-.534-.3-.627-.548a.678.678 0 0 0-.432-.451c-.14-.05-.26-.15-.199-.255.158-.267.047-.61.33-.833a.41.41 0 0 0 .156-.298.262.262 0 0 1 .138-.23 3.907 3.907 0 0 0 1.05-.739c.406-.369 1.022-.45 1.408-.827.153-.15.421-.092.65-.117-.036-.141-.167-.284-.017-.41.162-.138.316-.002.472.04.19.046.386.082.578.125a.362.362 0 0 0 .45-.147.53.53 0 0 1 .861.06c.115.269.23.261.472.139.413-.209.466-.193.657.197.062.127.133.143.267.127.234-.03.47-.048.704-.074a1.633 1.633 0 0 1 1.25.33c.258.216.319.134.432-.094a2.526 2.526 0 0 1 .32-.677 1.192 1.192 0 0 1 .934-.415c.236-.001.47-.028.707-.043.178-.01.312-.08.338-.23a1.582 1.582 0 0 1 1.316-1.195 8.983 8.983 0 0 1 3.879-.32 3.923 3.923 0 0 1 2.062.949 1.379 1.379 0 0 1 .475 1.177c-.02.37.008.362.437.294a3.08 3.08 0 0 1 2.715.653 1.966 1.966 0 0 1 .674 1.372 1.676 1.676 0 0 1-.304 1.435c-.156.173-.15.334.16.392a.151.151 0 0 1 .038.013c.293.13.586.293.555.601-.028.307-.398.375-.652.516a.31.31 0 0 1-.115.015c-.144.005-.239.064-.187.19.058.138.172.052.262.023.232-.074.462-.155.695-.227a1.279 1.279 0 0 1 1.281.215c.097.084.186.168.34.097a3.267 3.267 0 0 1 2.062.067 6.386 6.386 0 0 1 2.113.85 1.127 1.127 0 0 1 .578.74c.13.574.241 1.15.398 1.72a1.235 1.235 0 0 1-.32 1.228c-.163.17-.16.282.009.484a1.803 1.803 0 0 1 .32 1.667A1.285 1.285 0 0 1 80.81 16.4c-.126.008-.139.114-.165.203a.91.91 0 0 1-.966.727c-.119-.001-.286.022-.256.147.04.162.24.088.33.059a3.823 3.823 0 0 1 1.515-.135 1.251 1.251 0 0 1 .562.155 1.744 1.744 0 0 0 1.153.354.423.423 0 0 1 .482.598.367.367 0 0 0 .057.381 10.224 10.224 0 0 1 .884 1.941c.055.105.07.277-.03.317-.353.144-.343.453-.47.696a1.01 1.01 0 0 1-.369.497c-.063.035-.132.087-.094.164.036.077.133.06.207.071.573.091.601.121.546.582a9.242 9.242 0 0 1-.413.971.382.382 0 0 1-.36.161.656.656 0 0 0-.393.115c.191.116.367.225.548.33a1.042 1.042 0 0 1 .636 1.118c-.046.27.019.448.355.583.516.21.598.427.527.935-.022.163.027.334.02.502a1.018 1.018 0 0 1-.981 1.006c-.284.046-.27.126-.114.27.28.258.458.52.22.87-.047.072.014.197.025.298.01.078.065.178.024.23-.396.512-.36 1.207-.925 1.645a1.072 1.072 0 0 1-.909.23 4.478 4.478 0 0 0-1.01.03c-.13-.005-.168.078-.218.16a.758.758 0 0 1-.898.363c-.38-.077-.597-.269-.614-.616-.01-.232-.571-.587-.857-.556-.116.013-.26.075-.344.036-.557-.251-.617.193-.834.408-.119.117-.092.192.122.198a4.215 4.215 0 0 1 2.38.812.402.402 0 0 1 .198.444l-.086.36a.91.91 0 0 0 .191.837 1.452 1.452 0 0 1 .133 1.521 1.84 1.84 0 0 1-1.762.921 1.135 1.135 0 0 0-.236 0 1.14 1.14 0 0 1-1.458-.763c-.028-.066-.04-.132-.139-.143-.109-.01-.193.035-.2.123-.013.243-.226.333-.431.432-.397.19-.791.38-1.188.567-.175.083-.34.072-.427-.102a3.63 3.63 0 0 0-.596-.86c-.202-.217-.12-.495-.058-.749.04-.149.09-.297.147-.481-.16.105-.278.206-.45.18-.317-.053-.457.072-.507.323a.637.637 0 0 1-.188.363.368.368 0 0 1-.59-.054 1.244 1.244 0 0 0-.357-.433.25.25 0 0 1-.098-.28.31.31 0 0 0-.166-.452c-.155-.085-.117-.256-.095-.406.08-.534-.132-.72-.747-.608-.695.127-1.407.105-2.108.18q-.78.084-1.55.208a1.839 1.839 0 0 0-1.35.937 2.05 2.05 0 0 0-.347 1.17 10.59 10.59 0 0 1-.196 2.303 4.867 4.867 0 0 0-.02 1.53c.107.456-.032 1.954.024 2.426a.792.792 0 0 0 1.102.702 2.173 2.173 0 0 1 .656-.029 2.374 2.374 0 0 0 1.11.06.628.628 0 0 1 .53-.057c.314.134.61.02.908.046.268.022 1.579.109 1.915.166.523.083 1.04-.083 1.562.037a3.575 3.575 0 0 0 2.035.245c.084-.015.485-.173.597-.191a1.862 1.862 0 0 1 1.155.175c.176.154.7-.056 1.044-.008a2.793 2.793 0 0 1 1.586.542c1.158.663.884 1.116-.3 1.09-.325-.008-.55.097-.784.081a5.235 5.235 0 0 0-1.936.271 3.744 3.744 0 0 1-1.482.645 4.386 4.386 0 0 0-1.661.522 4.045 4.045 0 0 1-2.039.156 3.451 3.451 0 0 0-1.28.038c-.277.077-1.59.562-1.832.305a3.484 3.484 0 0 0-1.996.024 11.786 11.786 0 0 0-1.207.229zm.289-15.726c.01-.156-.058-.234-.248-.135a3.877 3.877 0 0 1-1.16.378.242.242 0 0 0-.224.157 2.921 2.921 0 0 0-.257 1.624c.043.168.125.33.37.177a3.05 3.05 0 0 0 1.519-2.201zm-6.29-.212a2.446 2.446 0 0 0 .02.867.641.641 0 0 0 .64.404c.52-.156.652-.465.359-.881a1.206 1.206 0 0 1-.32-.678c0-.14-.123-.183-.27-.2-.477-.052-.38.264-.43.488zm-3.363-.462a.859.859 0 0 1-.93.453c.468.561 1.148.473 1.744.584.09.018.17-.046.11-.119-.187-.22-.19-.557-.563-.656a.799.799 0 0 1-.361-.262zm6.93.93l.008-.055c.014-.106.166-.225-.057-.308-.233-.09-.25.095-.345.18-.21.18-.258.464-.54.599-.085.04-.052.113-.035.179.063.237.304.364.467.532.077.08.135.006.16-.066a2.919 2.919 0 0 0 .341-1.061zm7.221-3.352a.947.947 0 0 0 .932-.822c0-.123-.067-.191-.216-.184a2.097 2.097 0 0 0-.963.774c-.014.117-.01.231.247.232zm-3.616 4.36c.914-.47.971-.659.416-1.339-.006-.006-.024-.003-.056-.007-.118.438-.236.878-.36 1.346zm-9.104-11.624c-.004-.285-.064-.498-.393-.51-.229-.007-.498-.015-.562.25-.028.12.424.462.602.462.202.003.374-.033.353-.202zm-3.644 10.544c.13-.006.26-.013.39-.017.099-.003.166-.04.108-.122a2.664 2.664 0 0 1-.416-.793.155.155 0 0 0-.182-.1c-.095.029-.062.112-.04.173a.685.685 0 0 1-.06.583c-.09.176-.064.284.2.276zm-5.56-13.997c.117.104.254.095.347.143.314.167.743.207.887.566.023.06-.01.146.087.165.084.018.141-.048.188-.1.09-.098-.033-.131-.091-.184a2.128 2.128 0 0 1-.267-.244c-.4-.522-.397-.523-1.15-.346z"/></svg><svg data-name="Ebene 1" width="38" height="66" viewBox="-1 -1 38 66" id="map-pin" x="124" y="86" xmlns="http://www.w3.org/2000/svg"><path d="M14 39.617v19.587l2.752 4.127a1.5 1.5 0 0 0 2.497 0L22 59.204V39.617a21.106 21.106 0 0 1-8 0zM18 0a18 18 0 1 0 18 18A18 18 0 0 0 18 0zm0 9.5A8.509 8.509 0 0 0 9.5 18a1.5 1.5 0 0 1-3 0A11.514 11.514 0 0 1 18 6.5a1.5 1.5 0 0 1 0 3z"/></svg><svg data-name="Ebene 1" width="66" height="46.8" viewBox="-1 -1 66 46.8" id="user-friends" y="152" xmlns="http://www.w3.org/2000/svg"><path d="M19.2 22.4A11.2 11.2 0 1 0 8 11.2a11.194 11.194 0 0 0 11.2 11.2zm7.68 3.2h-.83a15.463 15.463 0 0 1-13.7 0h-.83A11.523 11.523 0 0 0 0 37.12V40a4.801 4.801 0 0 0 4.8 4.8h28.8a4.801 4.801 0 0 0 4.8-4.8v-2.88A11.523 11.523 0 0 0 26.88 25.6zM48 22.4a9.6 9.6 0 1 0-9.6-9.6 9.602 9.602 0 0 0 9.6 9.6zm4.8 3.2h-.38a12.61 12.61 0 0 1-8.84 0h-.38a11.107 11.107 0 0 0-5.57 1.54 14.634 14.634 0 0 1 3.97 9.98v3.84c0 .22-.05.43-.06.64H59.2a4.801 4.801 0 0 0 4.8-4.8 11.194 11.194 0 0 0-11.2-11.2z"/></svg></svg>