<?xml version="1.0" encoding="utf-8"?>
<!-- Generator: Adobe Illustrator 23.0.0, SVG Export Plug-In . SVG Version: 6.00 Build 0)  -->
<svg version="1.1" id="Ebene_1" xmlns="http://www.w3.org/2000/svg" xmlns:xlink="http://www.w3.org/1999/xlink" x="0px" y="0px"
	 viewBox="0 0 64 64" style="enable-background:new 0 0 64 64;" xml:space="preserve">
<path d="M32,0C14.3,0,0,14.3,0,32s14.3,32,32,32s32-14.3,32-32S49.7,0,32,0z M32,57.8C17.7,57.8,6.2,46.3,6.2,32S17.7,6.2,32,6.2
	S57.8,17.7,57.8,32S46.3,57.8,32,57.8z M40,44.3l-11-8c-0.4-0.3-0.6-0.8-0.6-1.3V13.9c0-0.9,0.7-1.5,1.5-1.5h4.1
	c0.9,0,1.5,0.7,1.5,1.5v18.3l8.6,6.3c0.7,0.5,0.8,1.5,0.3,2.2L42.1,44C41.6,44.7,40.7,44.8,40,44.3L40,44.3z"/>
</svg>
