<?xml version="1.0" encoding="utf-8"?>
<!-- Generator: Adobe Illustrator 23.0.0, SVG Export Plug-In . SVG Version: 6.00 Build 0)  -->
<svg version="1.1" id="Ebene_1" xmlns="http://www.w3.org/2000/svg" xmlns:xlink="http://www.w3.org/1999/xlink" x="0px" y="0px"
	 viewBox="0 0 56 64" style="enable-background:new 0 0 56 64;" xml:space="preserve">
<style type="text/css">
	.st0{fill:#03A87C;}
</style>
<path class="st0" d="M56,10v44c0,3.3-2.7,6-6,6H39.3V37.8h7.6l1.1-8.5h-8.7V24c0-2.5,0.7-4.1,4.2-4.1H48v-7.6
	c-0.8-0.1-3.4-0.3-6.5-0.3c-6.5,0-10.9,3.9-10.9,11.2v6.2H23v8.5h7.6V60H6c-3.3,0-6-2.7-6-6V10c0-3.3,2.7-6,6-6h44
	C53.3,4,56,6.7,56,10z"/>
</svg>
