<?xml version="1.0" encoding="utf-8"?>
<!-- Generator: Adobe Illustrator 23.0.0, SVG Export Plug-In . SVG Version: 6.00 Build 0)  -->
<svg version="1.1" id="Ebene_1" xmlns="http://www.w3.org/2000/svg" xmlns:xlink="http://www.w3.org/1999/xlink" x="0px" y="0px"
	 viewBox="0 0 52 52" style="enable-background:new 0 0 52 52;" xml:space="preserve">
<style type="text/css">
	.st0{fill:#FFFFFF;}
</style>
<path class="st0" d="M52,5.6v40.9c0,3.1-2.5,5.6-5.6,5.6h-9.9V31.4h7.1l1-7.9h-8.1v-4.9c0-2.3,0.7-3.8,3.9-3.8h4.2V7.7
	c-0.7-0.1-3.2-0.3-6-0.3c-6,0-10.1,3.6-10.1,10.4v5.8h-7.1v7.9h7.1V52H5.6C2.5,52,0,49.5,0,46.4V5.6C0,2.5,2.5,0,5.6,0h40.9
	C49.5,0,52,2.5,52,5.6z"/>
</svg>
