<?xml version="1.0" encoding="utf-8"?>
<!-- Generator: Adobe Illustrator 23.0.0, SVG Export Plug-In . SVG Version: 6.00 Build 0)  -->
<svg version="1.1" id="Ebene_1" xmlns="http://www.w3.org/2000/svg" xmlns:xlink="http://www.w3.org/1999/xlink" x="0px" y="0px"
	 viewBox="0 0 62 64" style="enable-background:new 0 0 62 64;" xml:space="preserve">
<style type="text/css">
	.st0{fill:#03A87C;}
</style>
<path class="st0" d="M31,1C13.9,1,0,14.9,0,32s13.9,31,31,31s31-13.9,31-31S48.1,1,31,1z M56,32c0,2.8-0.5,5.5-1.3,8h-2.5
	c-0.5,0-1-0.2-1.4-0.6l-4-4.1c-0.6-0.6-0.6-1.5,0-2.1l1.6-1.6v-1.1c0-0.4-0.2-0.7-0.4-1l-1.2-1.2c-0.3-0.3-0.6-0.4-1-0.4h-2
	c-0.8,0-1.4-0.6-1.4-1.4c0-0.4,0.2-0.7,0.4-1l1.2-1.2c0.3-0.3,0.6-0.4,1-0.4h4c0.8,0,1.4-0.6,1.4-1.4v-1.2c0-0.8-0.6-1.4-1.4-1.4
	h-4.6c-1.1,0-2,0.9-2,2v0.6c0,0.9-0.5,1.6-1.4,1.9l-4,1.3c-0.4,0.1-0.7,0.5-0.7,1V27c0,0.5-0.5,1-1,1h-2c-0.5,0-1-0.5-1-1
	s-0.5-1-1-1h-0.4c-0.4,0-0.7,0.2-0.9,0.5l-1.2,2.3c-0.3,0.7-1,1.1-1.8,1.1h-2.8c-1.1,0-2-0.9-2-2v-3.2c0-0.5,0.2-1,0.6-1.4l2.5-2.5
	c0.6-0.6,0.9-1.4,0.9-2.2c0-0.4,0.3-0.8,0.7-1l5-1.7c0.2-0.1,0.4-0.2,0.5-0.3l3.3-3.4c0.3-0.3,0.4-0.6,0.4-1c0-0.8-0.6-1.4-1.4-1.4
	h-2.6l-2,2v1c0,0.6-0.5,1-1,1h-2c-0.5,0-1-0.4-1-1v-2.5c0-0.3,0.1-0.6,0.4-0.8L30.3,7c0.2,0,0.5,0,0.7,0C44.8,7,56,18.2,56,32z
	 M16.3,18.6c0-0.4,0.1-0.7,0.4-1l3.2-3.2c0.3-0.3,0.6-0.4,1-0.4c0.8,0,1.4,0.6,1.4,1.4v2c0,0.4-0.1,0.7-0.4,1l-1.2,1.2
	c-0.3,0.3-0.6,0.4-1,0.4h-2C16.9,20.1,16.3,19.4,16.3,18.6z M32.3,56.9V56c0-1.1-0.9-2-2-2h-2.5c-1.4,0-3.3-0.7-4.4-1.5l-2.8-2.1
	c-1.4-1.1-2.3-2.8-2.3-4.5v-3c0-2,1-3.8,2.8-4.9l5.4-3.2c0.9-0.5,1.9-0.8,2.9-0.8h3.9c1.4,0,2.7,0.5,3.7,1.4l5.4,4.6h2.3
	c1.1,0,2.1,0.4,2.8,1.2l2.2,2.2c0.4,0.4,1,0.7,1.6,0.7h1.7C48.8,51.4,41.2,56.5,32.3,56.9L32.3,56.9z"/>
</svg>
