<?xml version="1.0" encoding="utf-8"?>
<!-- Generator: Adobe Illustrator 23.0.0, SVG Export Plug-In . SVG Version: 6.00 Build 0)  -->
<svg version="1.1" id="Ebene_1" xmlns="http://www.w3.org/2000/svg" xmlns:xlink="http://www.w3.org/1999/xlink" x="0px" y="0px"
	 viewBox="0 0 56 64" style="enable-background:new 0 0 56 64;" xml:space="preserve">
<style type="text/css">
	.st0{fill:#03A87C;}
</style>
<path class="st0" d="M28.1,17.6c-7.9,0-14.3,6.4-14.3,14.3s6.4,14.3,14.3,14.3s14.3-6.4,14.3-14.3S36,17.6,28.1,17.6z M28.1,41.2
	c-5.1,0-9.3-4.2-9.3-9.3s4.2-9.3,9.3-9.3s9.3,4.2,9.3,9.3S33.2,41.2,28.1,41.2L28.1,41.2z M46.3,17c0,1.9-1.5,3.3-3.3,3.3
	c-1.9,0-3.3-1.5-3.3-3.3s1.5-3.3,3.3-3.3C44.8,13.6,46.3,15.1,46.3,17z M55.8,20.4c-0.2-4.5-1.2-8.4-4.5-11.7
	C48,5.4,44.1,4.4,39.6,4.2c-4.6-0.3-18.4-0.3-23.1,0C12.1,4.4,8.1,5.4,4.8,8.7s-4.3,7.2-4.5,11.7C0,25,0,38.8,0.3,43.4
	c0.2,4.5,1.2,8.4,4.5,11.7c3.3,3.3,7.2,4.3,11.7,4.5c4.6,0.3,18.4,0.3,23.1,0c4.5-0.2,8.4-1.2,11.7-4.5c3.3-3.3,4.3-7.2,4.5-11.7
	C56.1,38.8,56.1,25,55.8,20.4L55.8,20.4z M49.8,48.4c-1,2.4-2.9,4.3-5.3,5.3c-3.7,1.5-12.4,1.1-16.5,1.1s-12.8,0.3-16.5-1.1
	c-2.4-1-4.3-2.9-5.3-5.3C4.8,44.7,5.1,36,5.1,31.9S4.8,19.1,6.3,15.4c1-2.4,2.9-4.3,5.3-5.3C15.3,8.7,24,9,28.1,9s12.8-0.3,16.5,1.1
	c2.4,1,4.3,2.9,5.3,5.3c1.5,3.7,1.1,12.4,1.1,16.5S51.3,44.7,49.8,48.4z"/>
</svg>
