<?xml version="1.0" encoding="utf-8"?>
<!-- Generator: Adobe Illustrator 23.0.0, SVG Export Plug-In . SVG Version: 6.00 Build 0)  -->
<svg version="1.1" id="Ebene_1" xmlns="http://www.w3.org/2000/svg" xmlns:xlink="http://www.w3.org/1999/xlink" x="0px" y="0px"
	 viewBox="0 0 52 52" style="enable-background:new 0 0 52 52;" xml:space="preserve">
<style type="text/css">
	.st0{fill:#FFFFFF;}
</style>
<path class="st0" d="M26,12.7c-7.3,0-13.3,5.9-13.3,13.3S18.7,39.3,26,39.3S39.3,33.3,39.3,26S33.4,12.7,26,12.7z M26,34.6
	c-4.7,0-8.6-3.9-8.6-8.6s3.9-8.6,8.6-8.6s8.6,3.9,8.6,8.6S30.8,34.6,26,34.6L26,34.6z M42.9,12.2c0,1.8-1.4,3.1-3.1,3.1
	c-1.8,0-3.1-1.4-3.1-3.1s1.4-3.1,3.1-3.1C41.5,9,42.9,10.4,42.9,12.2z M51.7,15.3c-0.2-4.2-1.1-7.8-4.2-10.9
	c-3.1-3.1-6.7-4-10.9-4.2C32.4,0,19.6,0,15.3,0.3C11.2,0.5,7.5,1.4,4.4,4.5s-4,6.7-4.2,10.9C0,19.6,0,32.4,0.3,36.7
	c0.2,4.2,1.1,7.8,4.2,10.9c3.1,3.1,6.7,4,10.9,4.2c4.3,0.3,17.1,0.3,21.4,0c4.2-0.2,7.8-1.1,10.9-4.2c3.1-3.1,4-6.7,4.2-10.9
	C52,32.4,52,19.6,51.7,15.3L51.7,15.3z M46.2,41.3c-0.9,2.2-2.7,4-4.9,4.9c-3.4,1.4-11.5,1-15.3,1s-11.9,0.3-15.3-1
	c-2.2-0.9-4-2.7-4.9-4.9c-1.3-3.4-1-11.5-1-15.3S4.4,14.1,5.8,10.7c0.9-2.2,2.7-4,4.9-4.9c3.4-1.3,11.5-1,15.3-1s11.9-0.3,15.3,1
	c2.2,0.9,4,2.7,4.9,4.9c1.4,3.4,1,11.5,1,15.3S47.6,37.9,46.2,41.3z"/>
</svg>
