<?xml version="1.0" encoding="utf-8"?>
<!-- Generator: Adobe Illustrator 23.0.0, SVG Export Plug-In . SVG Version: 6.00 Build 0)  -->
<svg version="1.1" id="Ebene_1" xmlns="http://www.w3.org/2000/svg" xmlns:xlink="http://www.w3.org/1999/xlink" x="0px" y="0px"
	 viewBox="0 0 18 32" style="enable-background:new 0 0 18 32;" xml:space="preserve">
<title>map-pin</title>
<path d="M7,19.8v9.8l1.4,2.1c0.2,0.3,0.7,0.4,1,0.2c0.1-0.1,0.2-0.1,0.2-0.2l1.4-2.1v-9.8C9.7,20.1,8.3,20.1,7,19.8z M9,0
	C4,0,0,4,0,9s4,9,9,9s9-4,9-9l0,0C18,4,14,0,9,0z M9,4.8C6.7,4.8,4.8,6.7,4.8,9c0,0.4-0.3,0.8-0.8,0.8C3.6,9.8,3.3,9.4,3.3,9
	c0-3.2,2.6-5.7,5.8-5.8c0.4,0,0.7,0.3,0.7,0.8C9.7,4.4,9.4,4.7,9,4.8z"/>
</svg>
