<svg id="Ebene_1" data-name="Ebene 1" xmlns="http://www.w3.org/2000/svg" width="64" height="44.8" viewBox="0 0 64 44.8"><title>user-friends</title><path d="M19.2,25.6A11.2,11.2,0,1,0,8,14.4,11.1944,11.1944,0,0,0,19.2,25.6Zm7.68,3.2h-.83a15.4633,15.4633,0,0,1-13.7,0h-.83A11.523,11.523,0,0,0,0,40.32V43.2A4.8012,4.8012,0,0,0,4.8,48H33.6a4.8012,4.8012,0,0,0,4.8-4.8V40.32A11.523,11.523,0,0,0,26.88,28.8ZM48,25.6A9.6,9.6,0,1,0,38.4,16,9.6025,9.6025,0,0,0,48,25.6Zm4.8,3.2h-.38a12.61,12.61,0,0,1-8.84,0H43.2a11.1069,11.1069,0,0,0-5.57,1.54,14.6345,14.6345,0,0,1,3.97,9.98v3.84c0,.22-.05.43-.06.64H59.2A4.8012,4.8012,0,0,0,64,40,11.1944,11.1944,0,0,0,52.8,28.8Z" transform="translate(0 -3.2)"/></svg>