<?xml version="1.0" encoding="utf-8"?>
<!-- Generator: Adobe Illustrator 23.0.0, SVG Export Plug-In . SVG Version: 6.00 Build 0)  -->
<svg version="1.1" id="Ebene_1" xmlns="http://www.w3.org/2000/svg" xmlns:xlink="http://www.w3.org/1999/xlink" x="0px" y="0px"
	 viewBox="0 0 32 32" style="enable-background:new 0 0 32 32;" xml:space="preserve">
<title>user-friends</title>
<path d="M9.6,16c3.1,0,5.6-2.5,5.6-5.6s-2.5-5.6-5.6-5.6C6.5,4.8,4,7.3,4,10.4C4,13.5,6.5,16,9.6,16C9.6,16,9.6,16,9.6,16z
	 M13.4,17.6H13c-2.2,1.1-4.7,1.1-6.8,0H5.8c-3.2,0-5.8,2.6-5.8,5.8v1.4c0,1.3,1.1,2.4,2.4,2.4h14.4c1.3,0,2.4-1.1,2.4-2.4v-1.4
	C19.2,20.2,16.6,17.6,13.4,17.6z M24,16c2.7,0,4.8-2.1,4.8-4.8S26.7,6.4,24,6.4s-4.8,2.1-4.8,4.8c0,0,0,0,0,0
	C19.2,13.9,21.3,16,24,16z M26.4,17.6h-0.2c-1.4,0.5-3,0.5-4.4,0h-0.2c-1,0-1.9,0.3-2.8,0.8c1.3,1.4,2,3.1,2,5v1.9
	c0,0.1,0,0.2,0,0.3h8.8c1.3,0,2.4-1.1,2.4-2.4C32,20.1,29.5,17.6,26.4,17.6C26.4,17.6,26.4,17.6,26.4,17.6z"/>
</svg>
